<?xml version="1.0" encoding="UTF-8"?><svg xmlns="http://www.w3.org/2000/svg" viewBox="0 0 1000 1000"><g isolation="isolate"><g id="Layer_1"><g><path d="M667.15,534.94c-2.99-4.97-6.01-9.92-8.92-14.68-1.84-3.02-5-5-8.52-5.36h-.04c-.46-.61-.81-1.02-1.09-1.48-10.96-17.42-22.77-34.15-38.22-47.99-3.09-2.77-5.66-6.24-9.04-8.54-5.23-3.55-10.83-6.62-16.49-9.47-8.48-4.26-17.59-6.74-26.83-8.8-1.71-.38-3.7-.87-4.89-2-2.58-2.48-4.72-5.4-7.36-8.51,20.56-4.95,39.01-13.38,54.45-27.64,15.5-14.32,25.31-32.04,30.95-52.29,10.92-.21,20-4.63,27.78-11.44,9.97-8.72,14.05-20.16,12.83-33.24-1.09-11.73-5.5-21.69-17.5-26.94,6.15-5.19,7.16-11.88,6.53-18.97-1.19-13.53-4.98-26.4-10.96-38.53-1.78-3.61-2.51-7.32-2.18-10.95,1.19-12.78,.05-25.39-1.97-37.96-4.5-28.13-16.83-51.82-39.11-70.17-30.05-24.76-64.03-40.24-102.8-44.85-2.68-.32-5.47-.3-8.13,.1-7.18,1.09-14.36,2.24-21.44,3.8-25.76,5.67-48.81,17.38-70.12,32.59-23.98,17.12-41.47,38.88-47.65,68.5-3.27,15.7-5.61,31.4-4.05,47.53,.37,3.85-.44,7.75-2.23,11.5-5.84,12.2-9.86,24.97-10.81,38.56-.49,7.09,.26,13.8,6.3,18.75-6.99,3.92-8.51,5.14-11.03,8.79-11.23,16.26-7.76,40.34,7.78,52.61,7.67,6.06,16.26,10.15,26.44,10.33,12.54,43.7,41.89,69.38,85.7,80.61-1.1,1.46-2.9,2.1-3.69,3.36-2.96,4.73-7.47,6.27-12.56,7.49-19.35,4.64-36.58,12.7-50.81,27.53-12.91,13.48-24.29,27.92-34.27,43.56-1.38,2.17-2.7,3.98-4.72,4.5-2.16,.55-4.18,1.61-5.55,3.37-.38,.48-.72,.97-1.03,1.49-3.99,6.69-8.15,13.31-11.66,20.26-2.47,4.88-1,7.59,4.05,9.88,1.77,.81,3.53,1.63,5.16,2.38,0,.55,.05,.76-.01,.91-.45,.99-.96,1.95-1.4,2.94-7.02,15.89-7.93,31.92-1.6,48.05,15.87,40.48,40.62,59.72,45.34,63.23,.01,6.29,5.28,9.98,9.95,13.05-.63,12.77-1.57,24.88-1.75,37.01-.43,29.04-.59,58.1-.66,87.15-.03,13.77,.42,27.54,.65,41.8-3.41,2.96-4.64,7.3-3.98,12.33,.11,.89,.11,1.83-.05,2.71-2.52,13.9,.41,12.54,7.93,18.6-.66,.81-1.25,1.68-1.98,2.42-3.69,3.76-7.54,7.37-11.08,11.26-1.57,1.73-3.14,2.57-5.46,2.97-3.53,.63-7.16,1.49-10.37,3.05-11.76,5.72-17.69,17.93-15.59,31.15,.22,1.41,.06,2.88,.04,4.33-.05,5.28,.85,6.29,6.15,6.84,1.09,.12,2.17,.23,3.26,.25,10.89,.22,21.77,.4,32.65,.64,26.33,.58,52.66,1.18,78.98,1.75,1.45,.04,2.91-.06,4.35-.21,3.79-.41,4.87-1.22,5.06-4.99,.61-12.51,1.74-25.1-3.86-36.97-.28-.6-.19-1.37-.3-2.23,4.42-1.33,6.1-4.68,6.35-8.71,.2-3.23-.21-6.49-.36-9.74-.07-1.58-.63-3.32-.17-4.72,1.62-4.95,.28-9.21-2.14-13.5-2.11-3.76-3.95-7.66-1.88-12.21,.57-1.25,.41-2.85,.54-4.29,1.13-12.29,1.69-24.67,3.47-36.86,4.12-28.24,7.04-56.56,8.41-85.05,.07-1.38,.47-2.73,.69-3.93h18.99c.24,2.47,.49,4.62,.67,6.78,1.54,18.26,2.84,36.55,4.67,54.79,1.78,17.87,4.12,35.69,6.15,53.54,.56,4.87,.3,9.92,1.53,14.59,.94,3.61,.51,6.69-.58,9.9-.45,1.35-1.6,2.47-1.98,3.82-.89,3.09-2.46,6.41-1.97,9.34,.61,3.69,.28,7.05-.17,10.6-.27,2.13-.05,4.33,.05,6.5,.2,4.33,1.8,7.77,6.6,9.19-5.59,17.6-5.65,18.09-4.5,36.38,.48,7.49,.95,7.94,8.35,8.02,.18,0,.36-.01,.54-.01,18.7-.42,37.4-.85,56.1-1.25,18.51-.4,37.02-.77,55.53-1.17,1.81-.04,3.64-.13,5.43-.41,3.34-.54,4.32-1.68,4.48-5.06,.1-1.98-.26-4.02,.09-5.95,2.7-14.73-5.95-29.79-20.64-32.92-7.02-1.5-11.6-4.94-16.01-9.74-2.54-2.75-5.27-5.34-8.21-8.3,1.31-.87,2.02-1.35,2.74-1.81,6.42-4.04,7.46-6.48,6.09-14.06-.26-1.42-.59-2.9-.44-4.31,.58-5.53-.49-10.46-4.34-13.77,.33-8.64,.93-16.62,.87-24.59-.18-24.15-.64-48.3-.95-72.45-.29-22.66,1.66-45.37-2.09-67.77q8.87-7.08,10.88-14.15c4.16-2.98,49.63-37.68,47.73-87.41-.34-9.02-1.91-19.1-6.04-27.29,2.03-.89,3.85-1.66,5.66-2.48,5.46-2.47,6.18-5.12,3.41-11.24-.62-1.38-1.34-2.72-2.12-4.02ZM352.72,276.76c1.7-1.55,2.57-2.34,3.76-3.42,.54,1.5,.98,2.73,1.64,4.59-1.8-.39-3.05-.66-5.4-1.17Zm289.57,1.25c.25-1.76,.41-2.81,.65-4.45,1.45,.88,2.56,1.54,4.57,2.75-2.19,.71-3.49,1.14-5.22,1.7Z" fill="#091228"/><path d="M629.45,296.77c-.34,5.23-.61,10.26-.99,15.27-.93,12.13-2.23,24.2-5.99,35.87-12.61,39.13-39.54,62.35-79.3,71.24-13.18,2.95-26.54,4-40.03,3.37-2.54-.11-5.08,.01-7.62,.09-16.45,.52-32.66-1.17-48.42-5.98-38.43-11.74-61.88-37.69-71.58-76.37-3.51-13.97-4.18-28.31-4.76-43.03,6.62-1.52,8.23-6.84,9.27-12.5,1.41-7.68,2.69-15.37,4.14-23.03,.64-3.36,1.55-6.66,2.54-10.83,1.73,1.56,2.8,2.69,4.04,3.59,3.35,2.44,6.52,5.33,10.22,7.05,6.39,2.96,10.69,.26,11.46-6.74,.59-5.41,.78-10.87,1.26-16.29,.25-2.88,.73-5.74,1.24-9.56,1.32,1.78,2.23,2.8,2.91,3.95,4.44,7.56,10.75,13.17,18.25,17.53,.94,.55,1.89,1.1,2.9,1.5,5.22,2.06,8.75-.56,8.13-6.16-.66-5.95-1.57-11.87-2.33-17.81-.28-2.15-.41-4.33-.66-6.49-1.31-11.68,4.09-20.1,13.5-25.95,9.57-5.95,19.47-4.88,28.78,1,3.02,1.91,5.61,4.58,8.12,7.17,4.07,4.21,7.04,4.4,10.87,0,5.05-5.8,11-9.91,18.67-11.39,14.66-2.82,30.2,7.78,31.98,22.57,.64,5.3-.57,10.84-1.12,16.25-.43,4.33-1.19,8.62-1.72,12.94-.35,2.88-.99,6.01,2.06,7.89,2.68,1.65,5.29,.41,7.7-.95,7.89-4.42,14.57-10.16,19.21-18.06,.62-1.05,1.39-2.02,2.67-3.88,.48,2.45,.91,3.97,1.05,5.51,.48,5.43,.84,10.86,1.31,16.29,.17,1.99,.36,3.99,.8,5.93,1.04,4.57,3.84,6.7,8.34,5.5,3.23-.85,6.32-2.64,9.14-4.51,2.53-1.68,4.6-4.04,7.47-6.65,.85,2.68,1.82,4.93,2.27,7.28,1.54,8.2,2.89,16.44,4.36,24.65,.32,1.78,.8,3.54,1.28,5.29,1.16,4.23,3.03,7.85,8.58,8.45Z" fill="#ffd8c3"/><path d="M545.48,405.44c-13.77,2.95-27.72,4-41.81,3.37-2.65-.11-5.31,.01-7.96,.09-17.18,.52-34.11-1.17-50.57-5.98-33.16-9.7-55.64-29.11-68.16-57.38,10.47,35.76,33.48,59.88,70.13,71.08,15.76,4.81,31.97,6.5,48.42,5.98,2.54-.08,5.08-.2,7.62-.09,13.49,.63,26.85-.42,40.03-3.37,39.12-8.75,65.81-31.38,78.67-69.37-14.91,29.8-40.69,48.03-76.37,55.67Z" fill="#e3b1a3"/><path d="M600.48,843.42c-24.29-3.78-46.9,2.49-69.76,11.02-.74,.28-1.52-.26-1.53-1.05-.22-22.27-3.52-43.7-6.55-65.17-3.08-21.81-5.68-43.68-8.53-65.93-.07-.51,.21-1.01,.69-1.2,4.68-1.86,10.39-2.7,14.96-7.31,.65-.65,.31-1.77-.59-1.94-1.02-.19-1.82-.33-2.53-.14-12.52,3.33-25.31,1.49-37.96,1.95-4.64,.17-9.33-1.2-14.01-1.75-1.07-.13-2.17-.1-3.58-.07-1.01,.02-1.5,1.25-.78,1.95,4.59,4.45,10,5.59,15,7.18,.53,.17,.85,.7,.78,1.24-1.46,10.7-2.91,21.13-4.31,31.56-2.94,21.94-6.08,43.86-8.7,65.84-1.31,10.99-1.78,22.08-2.62,33.63-.05,.75-.82,1.25-1.53,.99-22.16-8.18-44.89-14.66-69.72-10.76-.66,.1-1.27-.37-1.31-1.04-.16-2.53-.36-4.65-.36-6.77,0-21.97,.06-43.94,.04-65.91-.01-16.88-.12-33.77-.18-50.65,0-2.24,0-4.48,0-6.96,0-.55,.39-1.02,.93-1.13,1.65-.32,3.13-.62,4.63-.83,7.98-1.12,14.36-4.99,19-11.51,1.7-2.38,3.27-3.94,6.49-3.87,6.69,.15,13.39-.13,20.08-.25,4.35-.08,8.69-.25,13.04-.25,17.95,.01,35.91,.11,53.86,.1,13.96,0,27.92-.13,41.88-.2,2.91-.02,5.82-.23,8.71-.05,5.36,.34,10.23,.81,13.78,6.4,3.69,5.82,10.14,8.59,17.08,9.59,1.45,.21,2.88,.49,4.24,.74,.52,.1,.91,.53,.93,1.06,.45,11.3,.28,116.84-.26,130.38-.03,.68-.64,1.18-1.31,1.07Z" fill="#4b6d88"/><path d="M562.6,238.83c.6-2.6,1.15-5.2,1.8-7.79,4.85-19.23-5.89-39.25-24.49-45.32-12.95-4.23-24.69-1.49-35.29,6.79-1.42,1.11-2.73,2.37-4.43,3.86-15.01-13.51-31.81-17.97-49.31-5.83-17.26,11.97-19.61,29.36-12.8,49.45-4.37-1.94-6.59-4.29-8.64-6.75-6.68-8.04-10.66-17.21-11.4-27.72-.31-4.34-.69-8.69-1.18-13.01-.14-1.28-.77-2.5-1.18-3.74-.45-.04-.9-.07-1.35-.11-.61,1.55-1.59,3.06-1.78,4.65-.72,6.11-1.19,12.25-1.74,18.38-.13,1.42,.19,3.05-.41,4.23-4.85,9.68-5.63,20.18-6.55,30.68-.12,1.39-.38,2.77-.67,4.77-1.63-1-2.89-1.59-3.93-2.44-4.98-4.08-8.98-8.96-11.77-14.79-1.8-3.76-3.59-7.54-5.57-11.21-.89-1.65-2.2-3.07-3.67-5.07-1.66,2.47-.83,4.3-.52,5.87,1.08,5.51,2.47,10.95,3.62,16.45,.27,1.3,.55,3.02-.05,4.02-4.55,7.55-5.44,16.06-6.88,24.46-.81,4.75-1.9,9.46-3.45,14.17-7.33-10.56-7.9-22.82-9.98-34.95-3.51,.66-3.88,3.64-3.95,6.07-.17,5.44-3.38,8.88-7.61,13.31-.47-3.09-1.27-5.31-1.05-7.43,1.07-10.27,2.37-20.52,3.67-30.77,.34-2.67,.97-5.29,1.54-8.38,11.57,2.45,18.77-4.08,25.39-11.73,4.63-5.35,9.11-10.84,13.83-16.11,11.87-13.25,25.8-23.91,41.41-32.39,12.45-6.76,25.13-13.05,38.73-17.21,18.02-5.51,36.24-5.89,54.11,.05,36.06,12,67.41,31.2,90.88,61.84,1.1,1.44,2.3,2.81,3.49,4.18,6.55,7.47,13.65,13.83,24.59,11.4,4.73,15.14,6.9,37.46,4.33,45.84-3.17-3.15-6.44-5.62-6.9-10.42-.3-3.07-.26-6.6-4.3-8.65-2.17,12.2-2.57,24.62-10.55,35.25-.81-3.57-1.72-7.11-2.39-10.71-.9-4.81-1.28-9.75-2.51-14.47-1.31-5.04-3.35-9.89-5.21-15.23,1.54-7.22,3.24-15.14,4.93-23.06-2.94-.93-3.65,.86-4.34,2.14-2.09,3.82-4.07,7.7-5.92,11.64-2.75,5.84-6.49,10.91-11.41,15.08-1.33,1.13-2.82,2.08-4.94,3.63-.44-4.44-.81-7.99-1.15-11.55-.75-7.98-2.1-15.8-5.44-23.21-.78-1.72-.81-3.81-.98-5.75-.5-5.59-.76-11.21-1.4-16.79-.23-1.98-1.29-3.87-2.09-6.13-3.09,1.98-2.62,4.58-2.89,6.76-.57,4.68-.68,9.42-1.31,14.09-1.43,10.63-6.23,19.62-13.86,27.1-1.23,1.2-2.71,2.14-4.07,3.2-.33-.22-.66-.44-.99-.66Z" fill="#55575c"/><path d="M600.38,472.84c-4.01,18.94-7.92,37.37-11.95,56.42-58.76-2.24-117.65-2.37-176.79,.07-4-18.83-7.95-37.4-11.97-56.34,8.45-5.33,17.61-9.49,27.39-12.33,.35-.1,.71-.15,1.06-.25,9.29-2.59,9.55-2.99,7.87-12.59,1.51-.39,3.04-.79,5.21-1.36-.31,1.73-.6,3.02-.76,4.34-.66,5.37-1.42,10.74-1.83,16.13-.13,1.72,.46,3.63,1.18,5.24,1.66,3.73,5.14,4.85,8.5,2.54,2.2-1.51,4.03-3.62,5.82-5.65,2.63-2.98,5.06-6.13,7.9-9.6,11,5.73,22.58,8.9,35.28,8.81-.1,1.79-.22,3.17-.25,4.54-.22,10.33-.46,20.67-.58,31.01,0,.02,0,.05,0,.07-.03,3.11,4.48,3.69,5.23,.67,2.92-11.83,1.7-24.07,3.74-36.18,11.4-.66,22.22-3.28,32.45-9.01,2.52,3.05,4.76,5.86,7.11,8.58,1.77,2.06,3.49,4.23,5.56,5.95,4.38,3.63,9.06,2.2,10.24-3.41,.8-3.82,.76-7.92,.42-11.84-.34-3.89-1.54-7.71-2.48-12.07,2.08,.47,3.74,.85,5.39,1.22-1.82,9.54-1.55,10.08,7.78,12.58,10.07,2.7,19.33,7.15,28.49,12.46Z" fill="#ff5c6d"/><path d="M609.26,167.55c-2.59-2.08-4.15-3.24-5.6-4.51-15.64-13.68-32.15-25.99-51.41-34.28-12.95-5.57-26.36-8.85-40.33-10.66-20.77-2.68-40.38,1.5-59.5,8.85-17.08,6.56-32.46,16.12-46.37,28.02-4.67,3.99-9.42,7.87-15,12.51,0-2.04-.09-3.16,.01-4.26,1.79-19.39,5.89-38.35,10.42-57.24,.57-2.38,1.91-3.78,3.64-5.13,13.1-10.2,27.4-18.31,42.56-25.07,15.95-7.12,32.8-10.59,49.96-12.34,6.15-.63,12.59,1.07,18.84,2.02,29.07,4.43,54.34,17.42,77.69,34.72,2.81,2.08,4.13,4.64,4.92,8.03,3.75,16.08,7.41,32.17,9.19,48.62,.34,3.15,.58,6.31,.98,10.71Zm-104.35-82.83c2.31-3.36,4.45-6.23,6.29-9.29,.64-1.06,1.19-3.08,.65-3.72-.71-.85-2.51-.91-3.87-1.05-.64-.07-1.36,.43-2.01,.74-7.75,3.73-14.59,8.78-20.73,14.74-3.05,2.96-2.11,5.41,2.18,6.38,2.21,.5,4.46,.79,7.6,1.33-2.58,3.07-4.78,5.41-6.65,7.98-1.88,2.59-5.63,4.25-4.76,8.39,2.82,1.57,5.22,.31,7.37-.87,5.39-2.96,10.67-6.14,15.92-9.36,2.46-1.51,4.88-3.16,7.08-5.03,3.21-2.75,2.94-4.69-.77-6.53-2.54-1.27-5.19-2.32-8.3-3.7Z" fill="#ff5c6d"/><path d="M444,83.13c16.96-7.12,34.87-10.59,53.12-12.34,3.07-.29,6.22-.07,9.37,.35,.5-.26,1.02-.52,1.49-.48,1.36,.14,3.16,.2,3.87,1.05,.06,.07,.1,.17,.14,.27,1.73,.29,3.45,.59,5.17,.83,30.48,4.37,57.02,17.07,81.55,34-.82-2.71-2.13-4.84-4.54-6.63-23.35-17.3-48.61-30.29-77.69-34.72-6.26-.95-12.69-2.65-18.84-2.02-17.16,1.75-34.01,5.22-49.96,12.34-15.16,6.76-29.45,14.88-42.56,25.07-1.73,1.35-3.07,2.74-3.64,5.13-.03,.11-.05,.23-.08,.34,13.21-9.32,27.49-16.87,42.6-23.21Z" fill="#f69a9e"/><path d="M401.21,535.53c26.4,2.1,52.18,.09,77.71,.16,1.43,0,2.57,1.19,2.53,2.62-1.24,47.69,.11,94.92-.36,142.14,0,.9,0,1.8,0,2.79,0,1.38-1.09,2.51-2.47,2.56-24.97,.81-49.59,1.61-74.48,2.42-1.11,.04-2.12-.66-2.49-1.71-.11-.32-.22-.64-.33-.95-.45-1.29,.2-2.71,1.47-3.21,4.67-1.84,9.15-3.52,13.49-5.48,4.3-1.94,7.18-5.49,9.21-9.68,.7-1.44,1.75-3.3,1.37-4.59-1.59-5.31,2.08-10.25,.77-15.38-.32-1.27-1.06-2.43-1.85-3.7-.65-1.05-.46-2.41,.45-3.24,2.62-2.38,5.31-5,5.75-9.11,.56-5.16-2.82-7.88-6.57-10.12,.08-.58,.01-.99,.19-1.23,5.56-7.78,4.21-13.79-4.18-18.23-5.07-2.68-10.61-3.65-16.23-4.22-1.1-.11-2.21-.22-3.39-.33-1.29-.12-2.29-1.19-2.32-2.49-.34-18.8-.68-37.43-1.02-56.45-.03-1.51,1.25-2.7,2.76-2.58Z" fill="#a3876f"/><path d="M573.92,619.15c.09,.12,.17,.25,.26,.39,.44,.7,.24,1.63-.46,2.08-3.46,2.24-6.17,4.99-5.53,9.85,.56,4.22,3.31,6.81,6.38,9.37,.65,.54,.72,1.5,.17,2.14-3.16,3.72-3.51,7.82-1.45,12.36,.35,.77,.63,1.81,.41,2.57-2.34,8.1,2.29,13.25,7.88,17.53,4.65,3.57,10.05,5.79,16.41,6.56,.93,.11,1.52,1.06,1.24,1.95-.36,1.13-.69,2.2-1.02,3.23-.2,.64-.81,1.07-1.49,1.05-25.37-.81-50.45-1.63-75.92-2.44-.76-.02-1.38-.61-1.45-1.36-.12-1.18-.24-2.32-.23-3.46,.05-37.22,.19-74.45,.14-111.68-.02-9.97-.64-19.95-.97-29.92-.03-.67-.02-1.35-.02-2.15s.68-1.5,1.51-1.51c26.69-.12,53.19,2,79.61-.19,.88-.07,1.63,.61,1.63,1.49v58.31c0,.78-.59,1.42-1.37,1.5-3.05,.3-5.71,.42-8.23,1.07-4.7,1.22-9.6,2.3-13.85,4.51-7.4,3.84-8.4,9.74-3.64,16.74Z" fill="#a3876f"/><path d="M488.17,535.18c7.79-.73,15.66-.8,23.5,.04,1.03,.11,1.79,1.01,1.76,2.04-1.64,48.89,.1,97.51-1.56,146.38-.04,1.07-.92,1.92-1.99,1.92h-19.82c-1.08,0-1.96-.86-1.99-1.93-1.36-48.67,.54-97.26-1.68-146.39-.05-1.05,.73-1.97,1.78-2.07Z" fill="#ceab8f"/><path d="M622.36,616.57c.65-7.37-4.17-13.95-13.54-18.09-.08-1.28-.17-2.68-.26-4.1,.66-.34,1.11-.74,1.59-.78,3.97-.31,7.94-.56,11.92-.83,1.81-.12,3.64-.08,5.41-.4,.74-.13,1.87-.96,1.91-1.53,.05-.91-.4-2.33-1.1-2.72-1.7-.96-3.61-1.83-5.52-2.07-4.64-.57-9.33-.77-14.48-1.15v-8.31c16.02-7.26,28.53-12.93,44.79-20.31,14.73,37.13,.49,68.72-30.57,96.35-.61-2.68-1.3-5.17-1.67-7.71-.14-.93,.31-2.08,.82-2.93,3.05-5.11,4.2-11.43,3.19-15.96-.67-2.99-2.74-6.41-2.47-9.46Z" fill="#ffd8c3"/><path d="M347.09,556.16c16.71,7.57,28.48,13.08,44.66,20.41v8.37c-4.97,.35-9.64,.49-14.25,1.09-2.08,.27-4.21,1.16-6,2.29-1.94,1.23-1.48,3.5,.74,4,1.92,.43,3.96,.34,5.95,.46,4.31,.26,8.62,.5,12.75,.74,1.49,3.46,.41,5.01-2.33,6.48-6.28,3.36-9.28,7.82-9.28,13.67,0,4.66-.99,9.3-3,13.51-2.8,5.88-1.69,9.69,3.17,16.3-.6,2.81-1.38,7.51,.55,11.98-1.82-1.58-5.93-5.34-7.3-6.7-14.49-14.32-24.65-31.32-30.5-50.77-2.97-9.88-4.41-25.75,4.84-41.81Z" fill="#ffd8c3"/><path d="M357.41,213.96c1.28-2.1,2.14-4.11,3.5-5.66,4.31-4.9,8.44-10.05,13.31-14.35,14.41-12.74,28.79-25.57,43.83-37.54,18.54-14.75,39.3-25.18,62.91-29.54,21.59-3.99,42.28-1.04,62.38,7.01,14.22,5.7,27.55,13.15,39.35,22.98,14.5,12.09,28.8,24.41,42.95,36.9,4.73,4.18,8.8,9.14,13.01,13.89,1.53,1.72,2.57,3.88,4.01,6.12-2.72,1.25-4.73,.07-6.24-1.14-3.38-2.7-6.68-5.57-9.6-8.76-6.24-6.83-11.93-14.18-18.36-20.82-23.38-24.12-52.22-38.94-84.24-47.68-18.82-5.13-37.8-3.9-56.35,2.15-36.23,11.83-67.28,31.33-90.92,61.78-3.21,4.13-6.91,7.94-10.72,11.54-3.03,2.87-4.4,3.05-8.84,3.11Z" fill="#ff5c6d"/><path d="M636.42,209.35c-3.38-2.7-6.68-5.57-9.6-8.76-6.24-6.83-11.93-14.18-18.36-20.82-23.38-24.12-52.22-38.94-84.24-47.68-18.82-5.13-37.8-3.9-56.34,2.15-36.23,11.83-67.28,31.33-90.92,61.78-3.21,4.13-6.91,7.94-10.72,11.54-2.55,2.41-3.93,2.92-6.93,3.06-.61,1.05-1.19,2.17-1.9,3.34,4.43-.06,5.8-.25,8.84-3.11,3.81-3.6,7.51-7.4,10.72-11.54,23.64-30.44,54.68-49.95,90.92-61.78,18.54-6.05,37.53-7.29,56.34-2.15,32.02,8.74,60.87,23.55,84.24,47.68,6.43,6.64,12.12,13.99,18.36,20.82,2.91,3.19,6.22,6.06,9.6,8.76,1.52,1.22,3.52,2.39,6.24,1.14-.62-.96-1.16-1.89-1.7-2.79-1.88,.23-3.36-.69-4.54-1.64Z" fill="#bd4857"/><path d="M392.39,533.74c.36,3.46,1.47,7.32,.97,10.58-13.29-9.21-26.16-18.13-39.52-27.39,13.08-14.93,24.25-31.84,39.36-45.88,3.76,19.95,7.4,39.27,11.11,58.94-2.06,.45-5.55,.03-8.61,.03-2,0-3.52,1.74-3.32,3.72Z" fill="#ff5c6d"/><path d="M606.84,471.04c15.17,14.19,26.32,30.92,39.33,45.88-13.37,9.28-26.23,18.21-39.41,27.35-.67-3.99-.24-8.49-.61-12.18-.08-.78-.67-1.4-1.45-1.49-2.91-.33-6.24-.01-8.98-.58,3.68-19.54,7.33-38.93,11.11-58.99Z" fill="#ff5c6d"/><path d="M419,663.15c-.76,3.58-3,5.07-5.82,6.09-3.35,1.21-6.7,2.48-9.85,4.15-4.57,2.43-7.4-.59-10.54-2.72-2.83-1.92-2.41-4.55-1.42-7.29,1.12-3.11-.01-5.72-2.1-7.98-2.8-3.04-3.52-6.11-1.01-9.77,1.69-2.46,1.03-5-1.26-6.77-5.09-3.93-4.98-8.72-2.96-14.14,2.6-4.38,1.25-4.84,1.66-7.31,1.1-6.5,4.37-9.81,10.95-11.07,7.04-1.35,13.75-.06,20.18,2.68,.91,.39,1.68,1.11,2.42,1.91,1.01,1.08,1.05,2.73,.12,3.88-.83,1.02-1.68,1.96-2.74,2.34-3.54,1.27-7.37,1.73-11.1,2.41-1.42,.26-2.91,.06-4.34,.28-1.83,.28-3.72,.85-3.99,3.04-.29,2.39,1.38,3.81,3.36,4.35,2.77,.76,5.66,1.32,8.52,1.43,3.61,.13,7.23-.41,10.85-.42,.01,0,.03,0,.04,0,3.09,.01,3.88,4.41,1.03,5.62-1.57,.67-3.34,.86-4.45,1.49-2.51,1.42-5.25,2.36-8.13,2.3-3.28-.06-5.64,.93-8.74,1.88,1.09,3.39,3.38,3.81,5.71,4.26,3.74,.72,7.48,1.42,11.18,2.32,1.74,.42,3.89,1.13,3.66,3.35-.17,1.64-1.02,3.57-2.22,4.66-2.71,2.44-6.26,2.62-9.77,2.45-3.17-.15-6.18,.21-8.62,2.51-1.98,1.86-1.78,4,.86,4.38,4.59,.67,9.31,.54,13.98,.58,1.38,.01,2.76-.52,4.52-.88Z" fill="#ffd8c3"/><path d="M580.64,663.12c7.42,1.14,14.52,3.19,21.38-.94-1.13-3.92-3.83-5.1-7-5.5-1.79-.22-3.68,.21-5.42-.16-2.61-.55-5.34-1.17-7.58-2.49-1.27-.75-2.45-3.1-2.23-4.52,.2-1.29,2.15-2.86,3.63-3.31,3.62-1.11,7.41-1.67,11.15-2.4,2.31-.45,4.67-.77,5.76-4.27-1.6-.5-3-1.01-4.44-1.37-5.09-1.26-10.23-2.34-15.28-3.77-2.19-.62-4.56-1.56-4.67-4.64,1.41-1.97,3.38-1.42,5.37-1.41,5.58,.02,11.23,1.27,16.72-.65,1.33-.47,2.76-1.04,3.78-1.97,2.02-1.83,1.65-4.08-.89-5.17-1.44-.62-3.15-.64-4.74-.88-3.57-.55-7.19-.9-10.71-1.69-1.7-.38-3.4-1.34-4.79-2.43-2.23-1.76-2.22-3.98,.22-5.27,8.49-4.48,17.41-6.13,26.72-2.68,3.76,1.39,5.42,4.67,6.37,8.3,1,3.81,1.64,7.73,2.8,11.49,1.27,4.09,.71,7.53-2.62,10.31-3.25,2.71-4.27,5.57-1.66,9.42,1.76,2.59,.92,5.3-1.12,7.46-2.92,3.09-3.78,6.5-2.2,10.48,.97,2.44-.1,4.17-1.95,5.67-3.73,3.04-7.54,4.78-12.34,2.05-2.82-1.6-5.97-2.62-8.97-3.89-2.45-1.04-4.11-2.8-5.29-5.77Z" fill="#ffd8c3"/><path d="M474.65,871.72c-2.07-.09-3.61-.16-6.17-.28,3.86,6.43,8.76,11.92,5.31,19.9-5.3-3.22-10.27-6.84-15.74-9.38-5.34-2.49-11.2-3.88-17.28-5.91,.69-6.3-3.6-9.59-9.08-11.98-5.84-2.56-11.84-4.66-18.28-4.78-2.84-.05-5.86,.22-8.52,1.14-6.24,2.16-8.93,6.97-8.5,13.89-2.93-2.06-3.67-4.52-3.48-7.58,.21-3.4,.26-6.83,.13-10.24-.24-5.97,1.91-8.06,7.78-8.2,24.01-.59,46.59,5.5,68.74,14.02,4.69,1.8,4.78,5.22,5.09,9.4Z" fill="#607f9d"/><path d="M603.59,873.79c-.34-9.64-5.24-14.54-14.98-14.59-8.73-.05-16.78,2.66-24.23,7.04-3.82,2.25-4.52,3.98-5.24,10.73-12.39,.75-22.51,7.44-32.63,14.64-4.26-8.2,1.48-13.64,4.83-20.03h-5.43c-.5-6.34,.24-7.57,5.72-9.64,12.72-4.8,25.56-9.44,39.03-11.39,10.18-1.47,20.56-1.65,30.86-2.21,2.96-.16,5.06,2.12,5.3,5.63,.33,4.85,.57,9.74,.32,14.59-.1,1.91-1.61,3.76-2.48,5.63-.36-.13-.71-.27-1.07-.4Z" fill="#607f9d"/><path d="M394.13,111.47c-8.26,20.78-11.62,41.92-12.19,63.16-8.01,7.62-15.97,15.19-23.35,22.22,1.8-20.5,5.52-41.78,15.46-61.56,4.47-8.89,11.1-16.1,18.11-23,.31-.31,.86-.38,1.98-.83Z" fill="#f2f2f2"/><path d="M641.69,197.69c-8.08-7.69-15.9-15.15-23.47-22.36-.73-21.69-4.04-42.76-11.39-63.26,7.81,6.81,14.59,14.23,19.27,23.38,6.92,13.55,10.6,28.1,13.1,42.99,1.08,6.41,1.68,12.9,2.49,19.25Z" fill="#f2f2f2"/><path d="M338.8,538.8c1.89-6.2,3.9-10.08,7.23-13.71,1.3-1.42,3.47-1.63,5.05-.52,13.74,9.63,27.6,19.34,41.31,28.95v13.06c-18.44-5.76-34.36-15.8-51.43-23.08-1.81-.77-2.74-2.81-2.16-4.7Z" fill="#ff5c6d"/><path d="M654.3,525.21c3.49,3.85,4.98,8.5,6.75,13.05,.81,2.08-.15,4.44-2.2,5.34-17.13,7.5-32.9,17.13-50.99,22.99v-13.15c13.3-9.36,27.02-19,40.96-28.81,1.72-1.21,4.08-.97,5.49,.58Z" fill="#ff5c6d"/><path d="M363.22,311.47c-7.87-3.17-9.58-10.43-13.16-17.5-3.75,7.42-1.08,13.13,1.26,18.63-1.01,2.16-2.11,4.06-2.76,6.1-.26,.84,.17,2.52,.79,2.86,.91,.49,2.51,.5,3.43,0,1.39-.75,2.45-2.11,3.88-3.43,2.34,1.07,4.77,2.17,7.29,3.32,.79,5.47,1.57,10.83,2.39,16.49-.61,.16-1.33,.61-1.88,.46-11.62-3.3-21.54-8.83-26.09-20.9-3.62-9.61-2.49-18.78,2.64-27.69,5.44-9.45,19.71-7.29,22.72,.69,.55,1.45,1.02,3.09,.93,4.6-.32,5.24-.9,10.47-1.45,16.36Z" fill="#ffd8c3"/><path d="M633.71,338.24c.8-5.59,1.58-11.09,2.38-16.73,2.31-1.11,4.58-2.21,7.08-3.41,1.27,1.13,2.46,2.55,3.97,3.42,.92,.53,2.51,.58,3.45,.12,.61-.3,1.02-2.01,.78-2.87-.58-2.06-1.61-3.99-2.53-6.16,2.06-5.54,5.14-11.26,1.26-18.44-3.79,6.73-5.28,14.2-13.12,17.2-.25-1.4-.56-2.55-.65-3.72-.28-3.43-.32-6.89-.73-10.31-.67-5.61,1.38-10.21,5.67-12.12,6.63-2.95,12.65-2.21,16.25,2.77,2.29,3.17,4.38,6.87,5.22,10.63,3.23,14.45-2.17,27.13-14.01,34.26-5.68,3.42-10.01,5.03-15.01,5.36Z" fill="#ffd8c3"/><path d="M585.7,926.61h-32.85c-.31,0-.57-.24-.61-.55-1.34-11.99-6.22-22.15-15.9-30.61-.32-.28-.27-.78,.09-1,3.58-2.11,6.82-4.02,10.04-5.92,.25-.15,.57-.1,.76,.11,12.02,13.02,25.17,23.2,42.64,26.63,.38,.07,.6,.47,.45,.83-1.34,3.33-2.58,6.41-4.06,10.1-.09,.23-.32,.39-.58,.39Z" fill="#55575c"/><path d="M453.54,888.54c3.25,1.88,6.46,3.74,10.05,5.81,.36,.21,.41,.72,.1,1-9.55,8.42-14.62,18.67-15.87,30.81-.03,.31-.29,.55-.61,.55h-32.71c-.25,0-.47-.15-.57-.38-1.44-3.44-2.81-6.73-4.25-10.18-.15-.36,.07-.76,.45-.84,17.53-3.54,30.71-13.69,42.65-26.66,.19-.21,.51-.26,.76-.12Z" fill="#55575c"/><path d="M405.78,926.36h-51.59c.59-10.5,10.02-22.53,23.78-22.93,12.34-.36,26.24,10.8,27.81,22.93Z" fill="#f2f2f2"/><path d="M593.97,926.44c3.03-13.38,16.45-23.79,28.72-22.97,12.26,.82,22.03,10.56,23.17,22.97h-51.88Z" fill="#f2f2f2"/><path d="M471.55,431.6h57.47c-1.36,1.62-2.38,3.04-3.6,4.26-6.29,6.31-12.93,12.17-20.78,16.57-3.19,1.79-5.93,1.9-9.14,.06-8.93-5.11-16.49-11.81-23.37-19.35-.31-.34-.35-.92-.58-1.54Z" fill="#e3b1a3"/><path d="M515.06,457.37c9.17-8.13,19.02-15.36,22.96-28.69,1.87,1.95,3.43,3.1,4.36,4.62,4.99,8.22,8.9,16.86,8.83,27.19-1.61-1.83-3.18-3.69-4.82-5.48-4.67-5.08-7.58-5.76-13.95-3.04-5.61,2.4-11.08,5.2-17.38,5.39Z" fill="#bd4857"/><path d="M485.07,458.1c-3.24-.94-6.51-1.76-9.7-2.85-2.39-.82-4.66-1.97-6.99-2.98-7.22-3.13-10.09-2.51-15.28,3.34-1.32,1.49-2.57,3.04-4.34,5.14-.21-1.47-.55-2.4-.44-3.27,1.23-9.34,5.17-17.63,10.17-25.46,.69-1.08,2-1.75,3.56-3.05,3.98,13.2,14.07,20.48,23.01,29.14Z" fill="#bd4857"/><path d="M406.47,911.3c-1.74-1.93-3.39-3.77-5.18-5.75-.29-.32-.18-.83,.22-.99,10.94-4.55,21.73-8.68,29.17-18.28,.16-.21,9.36-2.98,14.17-.02,.34,.21,.42,.69,.13,.98-10.77,11.02-23.16,19.21-37.84,24.24-.24,.08-.5,.01-.67-.18Z" fill="#55575c"/><path d="M554.83,887.05c-.34-.34-.17-.93,.29-1.04,3.55-.89,9.03-1.59,13.68,.05,.18,.06,.38,.09,.5,.24,7.45,9.48,18.21,13.69,29.26,18.27,.39,.16,.5,.67,.22,.99-1.82,2.02-3.48,3.85-5.21,5.77-.17,.19-.43,.26-.67,.17-14.6-5.05-26.91-13.2-38.06-24.45Z" fill="#55575c"/><path d="M645.32,933.12c-.4,1.22-.87,2.68-1.18,3.63-17.34,0-34.17-.09-51,.02-19.95,.14-39.9,.47-59.85,.7-1.45,.02-2.94,.16-4.33-.15-.74-.17-1.29-1.19-1.92-1.82,.12-.38,.23-.76,.35-1.14,39.22-.41,78.43-.83,117.93-1.24Z" fill="#f2f2f2"/><path d="M645.32,933.12c-.4,1.22-.87,2.68-1.18,3.63-17.34,0-34.17-.09-51,.02-19.95,.14-39.9,.47-59.85,.7-1.45,.02-2.94,.16-4.33-.15-.74-.17-1.29-1.19-1.92-1.82,.12-.38,.23-.76,.35-1.14,39.22-.41,78.43-.83,117.93-1.24Z" fill="#ccc"/><path d="M355.97,936.75c-.3-.84-.81-2.28-1.28-3.6,39.46,.4,78.54,.79,117.4,1.18,.95,2.12,.24,2.99-1.32,3.08-1.99,.12-3.99,.04-5.98,.02-30.3-.23-60.59-.46-90.89-.68-5.77-.04-11.55,0-17.92,0Z" fill="#f2f2f2"/><path d="M355.97,936.75c-.3-.84-.81-2.28-1.28-3.6,39.46,.4,78.54,.79,117.4,1.18,.95,2.12,.24,2.99-1.32,3.08-1.99,.12-3.99,.04-5.98,.02-30.3-.23-60.59-.46-90.89-.68-5.77-.04-11.55,0-17.92,0Z" fill="#ccc"/><path d="M470.21,900.6c1.69,8.92,3.97,17.12,3.07,25.91-.03,.32-.3,.56-.62,.56h-20.49c-.44,0-.74-.46-.57-.86,4.32-10.03,8.65-19.15,17.62-25.99,.36-.28,.9-.06,.98,.39Z" fill="#55575c"/><path d="M470.21,900.6c1.69,8.92,3.97,17.12,3.07,25.91-.03,.32-.3,.56-.62,.56h-20.49c-.44,0-.74-.46-.57-.86,4.32-10.03,8.65-19.15,17.62-25.99,.36-.28,.9-.06,.98,.39Z" fill="#ccc" mix-blend-mode="multiply"/><path d="M547.82,927.03h-20.15c-.31,0-.57-.22-.62-.53-1.35-8.52,1.06-16.83,2.85-25.87,.09-.45,.62-.66,.98-.38,8.89,6.84,13.27,15.89,17.5,25.91,.17,.41-.13,.86-.57,.86Z" fill="#55575c"/><path d="M547.82,927.03h-20.15c-.31,0-.57-.22-.62-.53-1.35-8.52,1.06-16.83,2.85-25.87,.09-.45,.62-.66,.98-.38,8.89,6.84,13.27,15.89,17.5,25.91,.17,.41-.13,.86-.57,.86Z" fill="#ccc" mix-blend-mode="multiply"/><path d="M431.9,877.02c-9.83-1.39-19.14-2.7-28.73-4.05-.21-2.88,1.55-4.73,4.24-5.73,1.49-.55,3.21-.89,4.78-.76,6.6,.53,12.72,2.68,18.52,5.85,2.23,1.22,2.76,2.72,1.19,4.69Z" fill="#55575c"/><path d="M596.68,872.97c-9.6,1.38-18.85,2.7-28.46,4.08-1.46-1.56-1.44-3.24,.81-4.52,6.04-3.42,12.48-5.78,19.45-6.08,4.93-.21,7.18,1.8,8.2,6.52Z" fill="#55575c"/><path d="M602.09,469.21c-8.45-6.39-16.79-10.57-25.74-13.53-1.71-.57-3.45-1.05-5.15-1.66-1.83-.66-1.81-.71-2.02-4.41,.89,.08,1.82-.06,2.56,.26,9.1,3.94,18.19,7.89,27.23,11.96,2.56,1.15,3.35,3.42,3.11,7.39Z" fill="#d9dadb"/><path d="M430.75,449.7c.46,1.83,.82,3.52-1.65,4.25-10.9,3.23-21.26,7.64-30.72,14.98-1.17-3.63,.13-5.87,2.35-6.89,9.32-4.29,18.78-8.27,28.2-12.32,.44-.19,1.04-.02,1.81-.02Z" fill="#d9dadb"/><path d="M397.62,703.28v-7.1h17.24c-2.74,4.9-9.63,7.82-17.24,7.1Z" fill="#4b6d88"/><path d="M583.67,696.12h18.75v7.54c-7.02,.38-12.66-2.16-18.75-7.54Z" fill="#4b6d88"/><path d="M583.67,696.12h18.75v7.54c-7.02,.38-12.66-2.16-18.75-7.54Z" fill="#ccc" mix-blend-mode="multiply"/><path d="M397.62,703.28v-7.1h17.24c-2.74,4.9-9.63,7.82-17.24,7.1Z" fill="#ccc" mix-blend-mode="multiply"/><path d="M605.38,889.56c-5.64,1.93-10.16,3.48-15.19,5.2-1.11-.75-2.69-1.82-4.64-3.14,5.23-3.42,10.64-3.69,15.95-4.09,.98-.07,2.05,1.04,3.87,2.03Z" fill="#f2f2f2"/><path d="M394.73,889.55c1.78-.98,2.74-1.87,3.8-2.02,3.73-.53,11.51,1.57,15.8,4.18-1.73,1.19-3.29,2.27-4.46,3.08-4.97-1.72-9.47-3.27-15.14-5.23Z" fill="#f2f2f2"/><path d="M402.23,898.93c-2.64,3.2-5.13,3.98-8.6,1.8-2.53-1.58-5.54-2.39-8.4-3.57,2.23-2.86,4.68-3.55,7.99-1.84,2.82,1.45,5.91,2.39,9.02,3.62Z" fill="#f2f2f2"/><path d="M615.97,896.63c-5.21,2.2-9.03,3.82-13.47,5.7-1.23-.73-2.88-1.72-5.29-3.15,4.58-1.81,8.32-3.66,12.27-4.68,1.51-.39,3.51,1.08,6.49,2.13Z" fill="#f2f2f2"/><path d="M404.84,880.62c6.45-.64,12.61,1.4,19.64,3.1-1.76,1.65-3.01,2.82-3.79,3.55-5.66-2.37-10.76-4.51-15.85-6.65Z" fill="#f2f2f2"/><path d="M579.44,887.26c-.74-.64-1.92-1.68-3.17-2.76,4.57-2.79,15.41-5,19.02-3.96-5.13,2.17-10.26,4.35-15.86,6.72Z" fill="#f2f2f2"/><path d="M642.29,278.01c.26-1.76,.41-2.81,.65-4.46,1.46,.88,2.56,1.54,4.58,2.75-2.19,.71-3.49,1.14-5.22,1.7Z" fill="#f2f2f2"/><path d="M352.72,276.76c1.7-1.55,2.58-2.34,3.76-3.42,.53,1.5,.97,2.73,1.64,4.59-1.8-.39-3.05-.66-5.4-1.17Z" fill="#f2f2f2"/><path d="M573,300.91c.28,2.17,.17,4.38-.22,6.53-.66,3.6-1.26,7.21-2.37,10.67-.97,3.03-2.71,6.01-4.77,8.44-6.19,7.31-15.36,7.39-21.76,.29-1.91-2.12-3.55-4.66-4.64-7.29-4.12-9.89-4.79-20.09-1.37-30.31,1.02-3.04,2.56-6.07,4.52-8.59,5.68-7.34,14.75-7.91,21.3-1.28,2.36,2.39,4.23,5.45,5.71,8.51,1.98,4.09,3.01,8.47,3.6,13.04Zm-28.14-10.29c-.11,2.81,2.17,5.26,4.96,5.35,2.87,.09,5.44-2.36,5.69-5.4,.24-3.06-1.65-5.36-4.58-5.57-3.06-.22-5.94,2.44-6.07,5.62Z" fill="#091228"/><path d="M456.76,326.2c-6.53,7.93-16.38,7.8-22.89-.15-4.83-5.9-6.29-13-6.61-20.35-.29-6.8,.95-13.42,4.12-19.49,1.32-2.53,3.06-4.99,5.09-6.98,6.5-6.34,15.16-5.81,21.01,1.12,3.75,4.44,5.49,9.76,6.28,15.41,.32,2.33,.01,21.95-7,30.44Zm-1.63-35.48c-.06-3.23-2.86-5.92-5.95-5.73-2.62,.16-4.72,2.34-4.8,4.96-.08,3.11,2.73,6.07,5.73,6.04,2.84-.03,5.07-2.38,5.01-5.27Z" fill="#091228"/><path d="M525.41,349.7c1.14-1.33,3.93-.09,3.1,1.45-16.51,30.88-51.22,17.98-56.53,.15-.43-1.45,1.11-2.83,2.45-2.14,.17,.09,.3,.19,.41,.32,14.62,16.23,41.55,10.87,49.61,1.47,.33-.38,.62-.85,.97-1.26Z" fill="#091228"/><path d="M493.51,319.94c-.2,1.57-.01,3.2,.73,4.59,1.18,2.22,3.26,4.17,6.58,4.21,2.14,.03,4.57-.96,6.71-.9,1.47,.04,5.23,.32,2.03,5.29-6.47,6.33-20.13,3.17-22.73-5.41-1.68-5.52,1.66-11.12,3.18-16.62,.14-.49,.52-.96,.88-1.34,.21-.22,4.03-.88,2.62,10.18Z" fill="#091228"/><path d="M504.9,84.71c3.11,1.37,5.76,2.43,8.3,3.7,3.71,1.84,3.98,3.79,.77,6.53-2.19,1.87-4.61,3.52-7.08,5.03-5.25,3.22-10.52,6.4-15.92,9.36-2.15,1.18-4.54,2.44-7.37,.87-.87-4.14,2.88-5.8,4.76-8.39,1.87-2.58,4.07-4.91,6.65-7.98-3.14-.54-5.39-.83-7.6-1.33-4.3-.97-5.24-3.41-2.18-6.38,6.14-5.96,12.98-11.01,20.73-14.74,.65-.31,1.37-.81,2.01-.74,1.36,.14,3.16,.2,3.87,1.05,.54,.64,0,2.66-.65,3.72-1.85,3.05-3.99,5.93-6.29,9.29Zm-16.49,3.83c3.11,.76,5.28,1.07,7.28,1.84,2.47,.95,3.15,2.85,1.97,5.23-.71,1.43-1.78,2.7-2.78,3.97-1.08,1.37-2.27,2.67-3.41,3.99,9.2-3.68,15.7-8.28,17.88-11.79-.99-.44-1.95-.91-2.94-1.29-1.01-.39-2.07-.65-3.07-1.07-3.89-1.62-4.64-3.49-2.62-7.13,1.18-2.13,2.67-4.09,4.02-6.13-6.09,3.02-10.95,7.36-16.33,12.38Z" fill="#091228"/><path d="M544.87,290.63c.13-3.18,3-5.85,6.07-5.62,2.94,.21,4.83,2.51,4.58,5.57-.24,3.04-2.82,5.49-5.69,5.4-2.8-.08-5.07-2.54-4.96-5.35Z" fill="#f2f2f2"/><path d="M455.13,290.72c.06,2.89-2.18,5.24-5.01,5.27-3,.03-5.81-2.93-5.73-6.04,.07-2.62,2.18-4.8,4.8-4.96,3.09-.19,5.88,2.51,5.95,5.73Z" fill="#f2f2f2"/><path d="M488.41,88.55c5.38-5.02,10.24-9.37,16.33-12.38-1.35,2.04-2.83,4-4.02,6.13-2.02,3.64-1.28,5.51,2.62,7.13,1,.41,2.06,.67,3.07,1.07,.99,.39,1.95,.85,2.94,1.29-2.18,3.52-8.67,8.11-17.88,11.79,1.14-1.33,2.33-2.62,3.41-3.99,1-1.27,2.07-2.54,2.78-3.97,1.18-2.39,.51-4.28-1.97-5.23-2-.77-4.17-1.08-7.28-1.84Z" fill="#f2f2f2"/><g><path d="M582.85,548.54h-27.34c-3.19,0-5.78,2.59-5.78,5.78v12.87c0,3.19,2.59,5.78,5.78,5.78h27.34c3.19,0,5.78-2.59,5.78-5.78v-12.87c0-3.19-2.59-5.78-5.78-5.78Zm-.05,17.51c0,.6-.49,1.09-1.09,1.09l-25.05,.05c-.61,0-1.1-.49-1.1-1.09l-.04-10.63c-.01-.61,.48-1.1,1.09-1.1l25.1-.05c.6,0,1.09,.49,1.09,1.1v10.63Z" fill="#091228"/><path d="M582.8,555.42v10.63c0,.6-.49,1.09-1.09,1.09l-25.05,.05c-.61,0-1.1-.49-1.1-1.09l-.04-10.63c-.01-.61,.48-1.1,1.09-1.1l25.1-.05c.6,0,1.09,.49,1.09,1.1Z" fill="#fff"/></g><ellipse cx="569.2" cy="558.38" rx="10.5" ry="1.13" fill="#091228"/><ellipse cx="563.2" cy="563.48" rx="4.5" ry="1.13" fill="#091228"/><ellipse cx="575.2" cy="563.48" rx="4.5" ry="1.13" fill="#091228"/><path d="M553.21,244.03c.53-4.32,1.29-8.61,1.72-12.94,.55-5.41,1.76-10.95,1.12-16.25-1.78-14.79-17.32-25.39-31.98-22.57-7.67,1.48-13.62,5.59-18.67,11.39-3.83,4.4-6.8,4.21-10.87,0-2.51-2.59-5.1-5.26-8.12-7.17-9.31-5.88-19.21-6.95-28.78-1-9.41,5.85-14.81,14.27-13.5,25.95,.25,2.16,.38,4.34,.66,6.49,.76,5.94,1.67,11.86,2.33,17.81,0,0,5.76-54.49,51.47-31.42,0,0,58-22.24,54.62,29.71Z" fill="#e3b1a3"/><g><path d="M413.69,238.48c-.48,5.42-.67,10.88-1.26,16.29-.39,3.56-1.7,6.01-3.74,7.16l1.09,.49c2.8,1.27,6.01-.66,6.19-3.74l.99-17.09s11.05,12.83,17.33,12.92c1.17,.02,1.32-1.79,.79-4.74-7.05-4.27-13-9.69-17.23-16.9-.68-1.15-1.59-2.17-2.91-3.95-.51,3.82-.99,6.68-1.24,9.56Z" fill="#e3b1a3"/><path d="M384.17,261.7c-1.45,7.66-2.73,15.35-4.14,23.03-.12,.65-.25,1.3-.39,1.94,10.33-28,9.44-26.45,20.65-25.51-3.41-1.74-6.4-4.42-9.54-6.7-1.24-.9-2.31-2.03-4.04-3.59-.99,4.17-1.9,7.47-2.54,10.83Z" fill="#e3b1a3"/></g><g><path d="M582.76,242.03c.86-1.44,2.77,2.73,4.28,6.71-.39-4.73-.72-9.47-1.14-14.2-.14-1.54-.57-3.06-1.05-5.51-1.28,1.86-2.05,2.83-2.67,3.88-4.14,7.06-9.92,12.38-16.73,16.59,0,0-.01,.02-.01,.02,0,0,15.78-4.91,17.33-7.49Z" fill="#e3b1a3"/><path d="M612.18,257.58c.69-.56,4.65,14.31,7.2,24.24-1.39-7.81-2.68-15.65-4.15-23.45-.45-2.35-1.42-4.6-2.27-7.28-2.87,2.61-4.94,4.97-7.47,6.65-2.82,1.87-5.91,3.66-9.14,4.51,0,0,14.8-3.83,15.83-4.67Z" fill="#e3b1a3"/></g><path d="M366.35,337.95c-.47-3.24-.93-6.39-1.38-9.51-20.14-.9-27.11-21.19-28.44-25.83-.63,4.86-.06,9.82,1.86,14.91,4.54,12.07,14.47,17.6,26.09,20.9,.55,.16,1.27-.3,1.88-.46Z" fill="#e3b1a3"/><path d="M634.59,332.11c-.29,2.04-.58,4.08-.87,6.14,5-.32,9.33-1.93,15.01-5.36,11.84-7.13,17.23-19.8,14.01-34.26-.03,27.96-28.14,33.47-28.14,33.47Z" fill="#e3b1a3"/><path d="M348.36,259.8c-.22,2.12,.58,4.34,1.05,7.43,1.69-1.77,3.22-3.39,4.46-5.04,.28-13.98-.3-41.54-.3-41.54-.58,3.08-1.2,5.71-1.54,8.38-1.3,10.25-2.6,20.49-3.67,30.77Z" fill="#707278"/><path d="M646.79,263.03c1.08,1.18,2.32,2.29,3.54,3.5,2.57-8.37,.4-30.7-4.33-45.84,0,0,3.1,28.61,.79,42.34Z" fill="#707278"/><path d="M381.29,244.18c.6-1,.32-2.72,.05-4.02-1.14-5.5-2.54-10.94-3.62-16.45-.11-.56-.29-1.16-.39-1.81h0s-9.13,47.58-6.36,60.91c1.55-4.71,2.63-9.42,3.45-14.17,1.44-8.4,2.32-16.91,6.88-24.46Z" fill="#3f4145"/><path d="M410.4,215.91c.59-1.18,.28-2.81,.41-4.23,.55-6.13,1.02-12.27,1.74-18.38,0,0-11.93,26.35-9.37,58.06,.29-2.01,.55-3.38,.67-4.77,.92-10.49,1.7-21,6.55-30.68Z" fill="#3f4145"/><path d="M621.74,226.94c-1.13,5.3-2.25,10.5-3.29,15.38,1.86,5.34,3.9,10.19,5.21,15.23,1.23,4.72,1.61,9.66,2.51,14.47,.67,3.59,1.58,7.14,2.39,10.71,5.03-24.17-2.5-45.95-6.83-55.79Z" fill="#3f4145"/><path d="M621.41,209.29c-1.2-1.36-2.39-2.74-3.49-4.18-23.47-30.64-54.82-49.84-90.88-61.84-17.86-5.94-36.09-5.57-54.11-.05-13.59,4.16-26.28,10.44-38.73,17.21-15.61,8.48-29.54,19.14-41.41,32.39-4.72,5.27-9.2,10.76-13.83,16.11,0,0,54.57-54.05,119.63-54.05s122.81,54.41,122.81,54.41Z" fill="#3f4145"/><g><path d="M446.97,257.77c.07,0,.15,0,.23,0,6.51-.52,11.9,2.06,16.69,6.19,.94,.81,2.23,1.79,2.37,2.83,.22,1.6,.08,3.7-.83,4.85-.72,.89-2.89,1.01-4.33,.81-1.11-.15-2.23-1.18-3.1-2.05-4.84-4.87-10.76-5.59-17.08-4.38-3.17,.61-6.25,1.72-9.35,2.66-1.03,.31-1.99,1.02-3.03,1.12-.08,0-.16,.01-.24,.02-1.95,.08-3.48-1.86-2.76-3.67,.09-.23,.21-.43,.36-.61,1.39-1.6,3.16-3,5.02-4.02,4.97-2.72,10.35-3.99,16.04-3.75Z" fill="#091228"/><path d="M553.03,257.77c-.07,0-.15,0-.23,0-6.51-.52-11.9,2.06-16.69,6.19-.94,.81-2.23,1.79-2.37,2.83-.22,1.6-.08,3.7,.83,4.85,.72,.89,2.89,1.01,4.33,.81,1.11-.15,2.23-1.18,3.1-2.05,4.84-4.87,10.76-5.59,17.08-4.38,3.17,.61,6.25,1.72,9.35,2.66,1.03,.31,1.99,1.02,3.03,1.12,.08,0,.16,.01,.24,.02,1.95,.08,3.48-1.86,2.76-3.67-.09-.23-.21-.43-.36-.61-1.39-1.6-3.16-3-5.02-4.02-4.97-2.72-10.35-3.99-16.04-3.75Z" fill="#091228"/></g><g><path d="M496.84,482.35c.07-3.18,.14-6.36,.2-9.54,.03-1.38,.15-2.75,.25-4.54-12.71,.09-24.28-3.08-35.28-8.81-2.84,3.47-5.28,6.62-7.9,9.6-1.79,2.03-3.62,4.14-5.82,5.65-3.36,2.31-6.84,1.19-8.5-2.54-.72-1.62-1.31-3.52-1.18-5.24,.41-5.39,1.17-10.76,1.83-16.13,.16-1.31,.45-2.61,.76-4.34-2.17,.56-3.7,.96-5.21,1.36,1.68,9.6,1.42,10-7.87,12.59-.35,.1-.71,.15-1.06,.25-9.08,2.64-17.63,6.43-25.57,11.23,23.8,6.38,57.68,10.39,95.34,10.47Z" fill="#bd4857"/><path d="M550.55,473.89c-2.08-1.72-3.79-3.89-5.56-5.95-2.35-2.72-4.59-5.53-7.11-8.58-10.23,5.73-21.05,8.35-32.45,9.01-.78,4.64-1.08,9.3-1.33,13.94,37.16-.43,70.3-4.7,93.15-11.25-8.15-4.52-16.44-8.3-25.37-10.69-9.33-2.5-9.6-3.03-7.78-12.58-1.65-.37-3.31-.75-5.39-1.22,.93,4.36,2.13,8.17,2.48,12.07,.35,3.92,.38,8.02-.42,11.84-1.18,5.62-5.85,7.04-10.24,3.41Z" fill="#bd4857"/></g><g><path d="M383.54,537.5c3.26,2.26,6.53,4.53,9.83,6.81,.5-3.25-.61-7.12-.97-10.58-.21-1.98,1.32-3.72,3.32-3.72,3.06,0,6.54,.41,8.61-.03-.94-5-1.88-9.97-2.82-14.94,0,0-8.77,10-17.96,22.46Z" fill="#bd4857"/><path d="M370.21,557.56c7.13,3.41,14.44,6.59,22.19,9.01v-13.06c-4.5-3.15-9.02-6.32-13.54-9.49-3.11,4.47-6.1,9.08-8.64,13.53Z" fill="#bd4857"/></g><polygon points="408.61 515.04 419.44 529.02 411.65 529.33 408.61 515.04" fill="#bd4857"/><g><path d="M579.69,528.95s0,0,0,0c2.91,.1,5.83,.2,8.74,.31,1.09-5.15,2.17-10.26,3.25-15.34l-11.99,15.02Z" fill="#bd4857"/><path d="M606.16,532.09c.37,3.69-.07,8.18,.61,12.18,4.16-2.89,8.29-5.75,12.41-8.62-7.38-10.19-15.66-20.05-19.82-24.89-1.21,6.42-2.42,12.84-3.63,19.26,2.74,.56,6.07,.24,8.98,.58,.77,.09,1.37,.71,1.45,1.49Z" fill="#bd4857"/><path d="M623.77,542.23c-5.36,3.77-10.68,7.51-15.92,11.2v13.15c8.4-2.72,16.3-6.26,24.07-10.02-1.75-4.18-4.69-9.17-8.14-14.33Z" fill="#bd4857"/></g><g><path d="M390.94,593.51c-3.38-.19-6.88-.39-10.4-.6,1.93,2.44,4.55,4.84,8.07,7.07,2.74-1.47,3.82-3.01,2.33-6.48Z" fill="#e3b1a3"/><path d="M376.82,586.14c.23-.04,.45-.08,.68-.11,4.61-.6,9.28-.74,14.25-1.09v-8.37c-5.13-2.32-9.82-4.47-14.36-6.55-1.34,3.62-2.74,9.68-.57,16.12Z" fill="#e3b1a3"/></g><g><path d="M610.14,593.6c-.48,.04-.93,.45-1.59,.78,.09,1.41,.18,2.82,.26,4.1,2.67,1.18,4.95,2.56,6.86,4.09,2.41-2.33,3.71-5.78,4.29-9.66-3.28,.21-6.55,.43-9.83,.69Z" fill="#e3b1a3"/><path d="M608.28,584.9c4.25,.32,8.19,.51,12.05,.89-.14-5.19-1.01-10.31-1.77-13.87-3.31,1.5-6.71,3.04-10.29,4.66v8.31Z" fill="#e3b1a3"/></g><g><path d="M419,663.15c-1.76,.36-3.15,.89-4.52,.88-2.9-.03-5.82,.01-8.72-.11-3.55,3.96-8.41,5.72-15.06,3.75h0c.19,1.11,.8,2.13,2.09,3.01,3.14,2.13,5.97,5.14,10.54,2.72,3.15-1.67,6.49-2.94,9.85-4.15,2.83-1.02,5.07-2.51,5.82-6.09Z" fill="#e3b1a3"/><path d="M420.24,649.46c.23-2.22-1.92-2.93-3.66-3.35-1.13-.27-2.27-.53-3.4-.77-.71,4.05-1.71,7.9-3.07,11.26,2.88,0,5.69-.47,7.92-2.49,1.2-1.08,2.05-3.02,2.22-4.66Z" fill="#e3b1a3"/><path d="M419.98,628.24s-.03,0-.04,0c-1.72,0-3.45,.13-5.17,.25-.08,2.59-.22,5.27-.45,7.96,.77-.32,1.52-.68,2.24-1.1,1.11-.63,2.88-.82,4.45-1.49,2.84-1.21,2.05-5.6-1.03-5.62Z" fill="#e3b1a3"/><path d="M414.75,617.75c.63-.18,1.26-.37,1.88-.59,1.06-.38,1.91-1.32,2.74-2.34,.93-1.15,.89-2.8-.12-3.88-.74-.79-1.51-1.52-2.42-1.91-.86-.37-1.73-.71-2.61-1.02,.17,2.09,.4,5.52,.53,9.73Z" fill="#e3b1a3"/></g><g><path d="M580.59,634.39c1.38,.39,2.76,.75,4.15,1.1-.58-2.42-1.07-4.81-1.5-7.1-.65-.03-1.29-.05-1.94-.05-1.99,0-3.96-.56-5.37,1.41,.1,3.08,2.48,4.02,4.67,4.64Z" fill="#e3b1a3"/><path d="M599.55,663.4c-6.09,2.43-12.37,.72-18.91-.28,1.19,2.97,2.84,4.73,5.29,5.77,3,1.28,6.15,2.3,8.97,3.89,4.81,2.73,8.61,.99,12.34-2.05,1.85-1.51,2.92-3.24,1.95-5.67-3.66,.74-6.85,.04-9.64-1.66Z" fill="#e3b1a3"/><path d="M579.78,649.52c-.21,1.41,.96,3.76,2.23,4.52,2.24,1.33,4.98,1.94,7.58,2.49,1.08,.23,2.22,.15,3.36,.11-2.16-3.29-3.94-7.26-5.41-11.47-1.39,.3-2.78,.63-4.13,1.04-1.48,.45-3.43,2.02-3.63,3.31Z" fill="#e3b1a3"/><path d="M580.68,615.54c.24,.19,.5,.36,.75,.54-.4-3.57-.53-5.81-.53-5.81-2.44,1.29-2.45,3.51-.22,5.27Z" fill="#e3b1a3"/></g><g><path d="M519.11,680.97c0,1.14,.11,2.28,.23,3.46,.07,.75,.7,1.34,1.45,1.36,25.48,.81,50.56,1.63,75.92,2.44,.67,.02,1.28-.41,1.49-1.05,.33-1.03,.66-2.1,1.02-3.23,.28-.89-.31-1.84-1.24-1.95-6.36-.77-11.76-2.99-16.41-6.56-2.73-2.09-5.22-4.39-6.79-7.13h-55.66c0,4.22-.02,8.44-.02,12.66Z" fill="#836d59"/><path d="M490.06,685.57h19.82c1.07,0,1.95-.85,1.99-1.92,.17-5.12,.3-10.23,.41-15.34h-24.54c.08,5.11,.18,10.22,.32,15.33,.03,1.08,.91,1.93,1.99,1.93Z" fill="#b89a81"/><path d="M401.64,686.51c.37,1.05,1.38,1.74,2.49,1.71,24.89-.81,49.51-1.61,74.48-2.42,1.38-.04,2.47-1.18,2.47-2.56,0-.98,0-1.88,0-2.79,.04-4.05,.06-8.1,.08-12.15h-56.26c-1.99,3.7-4.73,6.8-8.63,8.57-4.35,1.96-8.82,3.64-13.49,5.48-1.27,.5-1.92,1.92-1.47,3.21,.11,.31,.22,.63,.33,.95Z" fill="#836d59"/></g><path d="M511.67,535.22c-7.83-.84-15.7-.77-23.5-.04-1.05,.1-1.83,1.01-1.78,2.07,.09,1.93,.16,3.85,.23,5.78h26.64c.05-1.92,.11-3.84,.17-5.76,.03-1.03-.73-1.93-1.76-2.04Z" fill="#e1c3ab"/><path d="M599.39,535.52c-26.43,2.19-52.92,.07-79.61,.19-.83,0-1.5,.68-1.51,1.51,0,.8,0,1.48,.02,2.15,.04,1.22,.09,2.44,.14,3.66h82.59v-6.02c0-.88-.75-1.57-1.63-1.49Z" fill="#b89a81"/><path d="M478.92,535.7c-25.53-.08-51.31,1.94-77.71-.16-1.5-.12-2.78,1.08-2.76,2.58,.03,1.64,.06,3.27,.09,4.91h82.8c.04-1.57,.07-3.14,.11-4.71,.04-1.43-1.1-2.61-2.53-2.62Z" fill="#b89a81"/><path d="M602.19,719.98c-.04-3.84-.08-6.63-.14-8.01-.02-.52-.4-.96-.91-1.06-1.36-.25-2.8-.53-4.25-.74-6.95-1-13.39-3.77-17.08-9.59-3.55-5.59-8.42-6.06-13.78-6.4-2.89-.18-5.81,.03-8.71,.05-13.96,.08-27.92,.2-41.88,.2-17.95,0-35.91-.09-53.86-.1-4.35,0-8.69,.17-13.04,.25-6.69,.12-13.39,.4-20.08,.25-3.22-.07-4.8,1.49-6.49,3.87-4.63,6.52-11.02,10.38-19,11.51-1.49,.21-2.97,.52-4.62,.83-.54,.1-.94,.58-.94,1.13,0,1.51,0,2.93,0,4.32,12.84,6.42,35.7,11.49,63.79,14.09,6.19,.57,10.8,5.98,10.41,12.18l-6.9,109.95c1.41,.5,2.83,1.02,4.24,1.54,.71,.26,1.47-.23,1.53-.99,.84-11.55,1.3-22.64,2.62-33.63,2.62-21.98,5.76-43.9,8.7-65.84,.97-7.2,1.95-14.4,2.95-21.69h0c.26-1.86,.51-3.74,.77-5.61,.05-.34,.09-.68,.14-1.02h0c.15-1.08,.3-2.15,.44-3.24,.08-.55-.25-1.08-.78-1.25-5-1.59-10.41-2.73-15-7.18-.72-.7-.23-1.94,.78-1.96,1.41-.03,2.51-.06,3.58,.07,4.68,.55,9.37,1.92,14.01,1.75,12.65-.46,25.44,1.37,37.96-1.95,.71-.19,1.51-.05,2.53,.14,.91,.17,1.24,1.28,.59,1.94-1.49,1.5-3.11,2.6-4.76,3.47-.42,.22-.84,.42-1.26,.61-.02,0-.04,.02-.07,.03-2.05,.92-4.15,1.56-6.14,2.22,0,0,0,0,0,0-.18,.06-.35,.12-.53,.18-.24,.08-.49,.17-.73,.25-.13,.04-.26,.09-.38,.13-.37,.13-.73,.27-1.09,.41-.48,.19-.75,.69-.69,1.2,2.85,22.25,5.45,44.12,8.53,65.93,3.04,21.47,6.33,42.89,6.55,65.16,0,.79,.79,1.33,1.53,1.05,1.46-.55,2.93-1.08,4.39-1.61l-8.14-109.17c-.48-6.38,4.34-11.9,10.72-12.35,26.69-1.89,49.42-5.96,64.5-11.34Z" fill="#ccc" mix-blend-mode="multiply"/><g mix-blend-mode="multiply"><path d="M459.5,870.38c3.29,4.03,5.42,8.62-3.87,6.78-2.64-.52-8.08-1.45-14.8-2.49,0,.44-.01,.89-.06,1.37,6.09,2.03,11.94,3.42,17.28,5.91,5.47,2.55,10.44,6.17,15.74,9.38,3.45-7.98-1.44-13.47-5.31-19.9,2.56,.12,4.1,.19,6.17,.28-.31-4.18-.4-7.6-5.09-9.4-.82-.32-1.65-.62-2.48-.93h-2.84c-3.26,0-6.1,2.63-5.95,5.89,.05,1.03,.38,2.1,1.21,3.11Z" fill="#ccc"/><path d="M393.05,869.37c.35,1.88,1.31,3.51,3.35,4.94-.11-1.76-.01-3.38,.29-4.86-1.33-.06-2.55-.09-3.64-.08Z" fill="#ccc"/></g><g mix-blend-mode="multiply"><path d="M539.44,876.36c-1.94-2.06,3.87-12.27-1.89-12.65-5.75-.39-1.42-3.43-1.41-3.44-1.5,.56-3,1.12-4.49,1.68-5.48,2.07-6.22,3.29-5.72,9.64h5.43c-3.35,6.39-9.09,11.83-4.83,20.03,10.12-7.2,20.24-13.89,32.63-14.64,.25-2.37,.51-4.12,.89-5.49-12.01,2.97-19.7,5.82-20.6,4.87Z" fill="#ccc"/><path d="M607.22,865.91c-1.84-.05-3.66-.08-5.45-.06,1.1,2.14,1.71,4.78,1.83,7.94,.36,.13,.71,.27,1.07,.4,.87-1.87,2.38-3.72,2.48-5.63,.05-.88,.06-1.76,.07-2.65Z" fill="#ccc"/></g><g mix-blend-mode="multiply"><path d="M433.57,897.34c4-3.05,7.8-6.41,11.4-10.11,.28-.29,.21-.77-.13-.98-3-1.84-7.72-1.46-10.88-.86,.11,1.5,.37,6.29-.39,11.94Z" fill="#ccc"/><path d="M404.74,922.16h-49.85c-.38,1.41-.61,2.82-.69,4.21h51.59c-.18-1.42-.54-2.83-1.04-4.21Z" fill="#ccc"/><path d="M463.69,895.35c.32-.28,.27-.79-.1-1-3.59-2.08-6.8-3.93-10.05-5.81-.25-.14-.57-.09-.76,.12-6.63,7.21-13.65,13.53-21.58,18.35-2.85,7.46-8.4,14.14-19.05,15.05,.59,1.41,1.18,2.83,1.79,4.28,.1,.23,.32,.38,.57,.38h32.71c.31,0,.57-.24,.61-.55,1.25-12.14,6.33-22.39,15.87-30.81Z" fill="#ccc"/></g><g mix-blend-mode="multiply"><path d="M558.56,890.64c2.07-2.87,3.96-4.96,4.53-5.56-2.95-.08-5.81,.38-7.97,.92-.46,.12-.63,.7-.29,1.04,1.23,1.24,2.47,2.43,3.73,3.59Z" fill="#ccc"/><path d="M552.85,926.61h32.85c.25,0,.48-.16,.58-.39,1.07-2.66,2.01-5.01,2.96-7.36-33.58-1.22-36.21-4.31-37.03-11.33-.42-3.6,.91-7.55,2.77-11.13-2.64-2.44-5.21-5.03-7.73-7.75-.2-.21-.51-.26-.76-.11-3.22,1.9-6.46,3.81-10.04,5.92-.36,.21-.41,.72-.09,1,9.67,8.46,14.56,18.62,15.9,30.61,.03,.31,.29,.55,.61,.55Z" fill="#ccc"/><path d="M644.25,919.55c-19.79-.02-35.29-.15-47.43-.46-1.28,2.3-2.25,4.77-2.84,7.36h51.88c-.22-2.42-.78-4.73-1.61-6.9Z" fill="#ccc"/></g></g></g></g></svg>