<svg width="222" height="42" viewBox="0 0 222 42" fill="none" xmlns="http://www.w3.org/2000/svg">
<g clip-path="url(#clip0_1_385)">
<path fill-rule="evenodd" clip-rule="evenodd" d="M50 17.2658L24.9809 42L0 17.3049L0.328388 16.2933C1.97766 11.1975 5.24395 7.00459 9.80033 4.11753C10.9174 3.41026 12.0932 2.79285 13.3085 2.2682C18.3003 0.115947 23.9753 -0.482624 29.3379 0.378276C38.5299 1.85369 46.3247 7.46548 49.6071 16.2194L50 17.2658Z" fill="white"/>
<path fill-rule="evenodd" clip-rule="evenodd" d="M49.1688 17.0861L24.9809 40.9985L0.815109 17.1093L1.01009 16.5093C2.61098 11.5685 5.77025 7.51185 10.1874 4.71465C15.7582 1.1841 22.7321 0.0347831 29.2221 1.07685C38.137 2.50878 45.7354 7.93361 48.9357 16.4658L49.1688 17.0875V17.0861Z" fill="#248247"/>
<path fill-rule="evenodd" clip-rule="evenodd" d="M47.9564 16.8238L24.9809 39.5376L2.00551 16.8238C8.53075 -3.31751 40.4269 -3.25808 47.9564 16.8238Z" fill="#00A551"/>
<path fill-rule="evenodd" clip-rule="evenodd" d="M10.1463 24.8733L5.90805 20.6833V9.78295C7.1527 8.31478 8.57913 7.04662 10.1463 5.97992V24.8733ZM18.6228 33.2533L14.3846 29.0633V3.71317C15.7494 3.15228 17.1685 2.71024 18.6228 2.38849V33.2533ZM27.0993 37.4433L25.0572 39.4622H24.9047L22.8625 37.4433V1.79426C24.2714 1.70875 25.6905 1.72905 27.1008 1.85514V37.4433H27.0993ZM35.5758 29.0633L31.3376 33.2533V2.56676C32.7889 2.92764 34.2095 3.40591 35.5758 4.00304V29.0648V29.0633ZM44.0524 20.6833L39.8141 24.8733V6.36834C41.3681 7.45388 42.796 8.72639 44.0524 10.1931V20.6833Z" fill="#248247"/>
<path fill-rule="evenodd" clip-rule="evenodd" d="M40.5222 24.1718L24.9795 39.5376L9.34733 24.0834C14.9915 11.8381 34.5291 11.97 40.5207 24.1718" fill="#FDCF9D"/>
<path fill-rule="evenodd" clip-rule="evenodd" d="M25.5791 21.7051L33.0396 29.0807C32.8857 29.2329 32.7919 29.4416 32.7919 29.6735C32.7919 29.9054 32.8872 30.1141 33.0396 30.2663L25.6861 37.5361C25.5072 37.3535 25.2565 37.239 24.9795 37.239C24.7024 37.239 24.4517 37.352 24.2729 37.5361L16.9061 30.2532C17.0674 30.101 17.1685 29.8851 17.1685 29.6474C17.1685 29.4228 17.0791 29.2198 16.934 29.0691L24.3813 21.7065C24.5353 21.8587 24.7464 21.9515 24.9809 21.9515C25.2155 21.9515 25.4266 21.8573 25.5805 21.7065" fill="#00A551"/>
<path fill-rule="evenodd" clip-rule="evenodd" d="M24.9809 28.6735C25.5248 28.6735 25.9646 29.1083 25.9646 29.646C25.9646 30.1837 25.5234 30.6184 24.9809 30.6184C24.4385 30.6184 23.9972 30.1822 23.9972 29.646C23.9972 29.1097 24.437 28.6735 24.9809 28.6735Z" fill="#FDCF9D"/>
<path d="M24.9994 20.3734L24.4001 20.9657L24.9992 21.5581L25.5984 20.9659L24.9994 20.3734Z" fill="white"/>
<path d="M33.8807 29.049L33.2816 29.6415L33.8809 30.2337L34.48 29.6413L33.8807 29.049Z" fill="white"/>
<path d="M16.2037 29.0531L15.6047 29.6455L16.204 30.2378L16.803 29.6453L16.2037 29.0531Z" fill="white"/>
<path d="M25.6729 29.3735H24.289V29.917H25.6729V29.3735Z" fill="white"/>
<path d="M24.7478 37.6796H24.4297V38.2868H24.7478V37.6796ZM24.3975 37.6216H24.8138V38.3448H24.3652V37.6216H24.3975Z" fill="white"/>
<path d="M25.516 37.6796H25.1979V38.2868H25.516V37.6796ZM25.1642 37.6216H25.5805V38.3448H25.1319V37.6216H25.1642Z" fill="white"/>
</g>
<path d="M62.0273 8.1875H64.9375V6.21484C64.9375 5.8763 64.9115 5.66797 64.8594 5.58984C64.8203 5.51172 64.7487 5.45312 64.6445 5.41406C64.4362 5.33594 64.2669 5.27083 64.1367 5.21875C64.0195 5.15365 63.9609 5.02995 63.9609 4.84766C63.9609 4.50911 64.1823 4.33984 64.625 4.33984H65.7383C66.3112 4.33984 66.5977 4.6263 66.5977 5.19922V8.63672H68.6094V4.86719C68.6094 4.5026 68.5638 4.26823 68.4727 4.16406C68.3815 4.04688 68.2057 3.94922 67.9453 3.87109C67.6589 3.79297 67.444 3.71484 67.3008 3.63672C67.1576 3.54557 67.0859 3.41536 67.0859 3.24609C67.0859 2.92057 67.3138 2.75781 67.7695 2.75781H69.4492C70.0091 2.75781 70.2891 3.05078 70.2891 3.63672V17.5625C70.2891 18.7995 69.8529 19.418 68.9805 19.418H68.6094V10.043H66.5977V11.5273C66.5977 12.2956 66.4935 12.8685 66.2852 13.2461C66.6628 13.2721 66.8516 13.5065 66.8516 13.9492C66.8516 14.431 66.6432 14.6719 66.2266 14.6719H61.6562C61.4479 15.0365 61.1484 15.2188 60.7578 15.2188H60.3672V6.83984C60.3672 6.5013 60.3411 6.28646 60.2891 6.19531C60.25 6.10417 60.1784 6.03906 60.0742 6C59.944 5.9349 59.8008 5.8763 59.6445 5.82422C59.5013 5.75911 59.4297 5.63542 59.4297 5.45312C59.4297 5.10156 59.6445 4.92578 60.0742 4.92578H61.2461C61.7669 4.92578 62.0273 5.21224 62.0273 5.78516V8.1875ZM64.9375 9.61328H62.0273V12.6992C62.0273 12.8945 62.0208 13.0768 62.0078 13.2461H64.9375V9.61328ZM71.8906 4.04688C71.8906 3.66927 71.8451 3.42188 71.7539 3.30469C71.6758 3.1875 71.4935 3.09635 71.207 3.03125C70.9206 2.96615 70.6992 2.90104 70.543 2.83594C70.3997 2.75781 70.3281 2.6276 70.3281 2.44531C70.3281 2.09375 70.5625 1.91797 71.0312 1.91797H72.7305C73.3164 1.91797 73.6094 2.19141 73.6094 2.73828V18.7734C73.6094 19.9974 73.1667 20.6094 72.2812 20.6094H71.8906V4.04688ZM74.7477 9.53516C74.7477 8.24609 75.1643 7.17839 75.9977 6.33203C76.844 5.47266 77.8792 5.04297 79.1031 5.04297C80.3401 5.04297 81.3818 5.47266 82.2281 6.33203C83.0745 7.17839 83.4977 8.24609 83.4977 9.53516C83.4977 10.8242 83.0745 11.8919 82.2281 12.7383C81.3818 13.5846 80.3401 14.0078 79.1031 14.0078C77.8792 14.0078 76.844 13.5846 75.9977 12.7383C75.1643 11.8919 74.7477 10.8242 74.7477 9.53516ZM76.4664 9.53516C76.4664 10.4206 76.7203 11.1432 77.2281 11.7031C77.7359 12.263 78.3609 12.543 79.1031 12.543C79.8453 12.543 80.4768 12.263 80.9977 11.7031C81.5185 11.1432 81.7789 10.4206 81.7789 9.53516C81.7789 8.63672 81.5185 7.90755 80.9977 7.34766C80.4768 6.78776 79.8453 6.50781 79.1031 6.50781C78.3609 6.50781 77.7359 6.78776 77.2281 7.34766C76.7203 7.90755 76.4664 8.63672 76.4664 9.53516ZM85.9977 4.06641C85.9977 3.6888 85.9456 3.44141 85.8414 3.32422C85.7372 3.20703 85.5549 3.11589 85.2945 3.05078C85.0341 2.98568 84.8193 2.91406 84.65 2.83594C84.4937 2.75781 84.4156 2.6276 84.4156 2.44531C84.4156 2.09375 84.6435 1.91797 85.0992 1.91797H86.857C87.4169 1.91797 87.6969 2.19141 87.6969 2.73828V18.7734C87.6969 19.9974 87.2672 20.6094 86.4078 20.6094H85.9977V4.06641ZM102.644 12.4258C102.487 12.6081 102.273 12.7188 101.999 12.7578C101.739 12.7839 101.472 12.6732 101.198 12.4258L96.7062 8.55859C96.55 8.76693 96.3807 8.97526 96.1984 9.18359C94.9094 10.7201 93.412 11.9635 91.7062 12.9141C91.3156 13.1354 91.0227 13.1159 90.8273 12.8555C90.632 12.582 90.7036 12.3346 91.0422 12.1133C92.2141 11.306 93.2883 10.2643 94.2648 8.98828C95.2544 7.69922 95.8794 6.48177 96.1398 5.33594C96.1659 5.17969 96.1203 5.05599 96.0031 4.96484C95.8859 4.8737 95.7102 4.80208 95.4758 4.75C95.1112 4.67188 94.9484 4.47656 94.9875 4.16406C95.0266 3.85156 95.2479 3.69531 95.6516 3.69531H96.9406C97.4484 3.69531 97.7935 3.8125 97.9758 4.04688C98.1581 4.28125 98.2427 4.58073 98.2297 4.94531C98.1906 5.73958 97.9237 6.56641 97.4289 7.42578L102.351 11.1172C102.637 11.3255 102.787 11.5664 102.8 11.8398C102.813 12.1003 102.761 12.2956 102.644 12.4258ZM103.933 17.543H89.8508C89.4602 17.543 89.2648 17.3086 89.2648 16.8398C89.2648 16.3581 89.4602 16.1172 89.8508 16.1172H103.933C104.376 16.1172 104.597 16.3581 104.597 16.8398C104.597 17.3086 104.376 17.543 103.933 17.543ZM116.536 9.45703H113.255V10.9609H119.368C119.824 10.9609 120.052 11.1888 120.052 11.6445C120.052 12.1263 119.824 12.3672 119.368 12.3672H105.305C104.915 12.3672 104.72 12.1263 104.72 11.6445C104.72 11.1888 104.915 10.9609 105.305 10.9609H111.555V9.45703H109.173C108.951 9.80859 108.645 9.98438 108.255 9.98438H107.845V4.96484C107.845 4.6263 107.825 4.41146 107.786 4.32031C107.747 4.21615 107.675 4.14453 107.571 4.10547C107.441 4.05339 107.298 4.0013 107.141 3.94922C106.985 3.88411 106.907 3.76042 106.907 3.57812C106.907 3.22656 107.128 3.05078 107.571 3.05078H108.723C109.257 3.05078 109.524 3.34375 109.524 3.92969V4.80859H115.227V4.33984C115.227 4.0013 115.201 3.79297 115.149 3.71484C115.11 3.63672 115.039 3.57812 114.934 3.53906C114.726 3.44792 114.557 3.3763 114.427 3.32422C114.309 3.25911 114.251 3.14193 114.251 2.97266C114.251 2.62109 114.472 2.44531 114.915 2.44531H116.048C116.621 2.44531 116.907 2.73828 116.907 3.32422V6.72266C116.907 7.28255 116.809 7.71875 116.614 8.03125C116.979 8.05729 117.161 8.29167 117.161 8.73438C117.161 9.21615 116.953 9.45703 116.536 9.45703ZM109.505 8.03125H115.227V6.23438H109.524V7.46484C109.524 7.67318 109.518 7.86198 109.505 8.03125ZM108.079 14.9844C107.662 14.9844 107.454 14.763 107.454 14.3203C107.454 13.8385 107.662 13.5977 108.079 13.5977H116.36C116.829 13.5977 117.063 13.8906 117.063 14.4766V16.7227C117.063 17.4388 116.803 17.7969 116.282 17.7969H109.72V18.7734C109.72 19.099 109.869 19.2617 110.169 19.2617H117.044C117.46 19.2617 117.669 19.4961 117.669 19.9648C117.669 20.4336 117.454 20.668 117.024 20.668H109.251C108.417 20.668 108.001 20.1732 108.001 19.1836V18.3047C108.001 18.0182 107.962 17.8229 107.884 17.7188C107.805 17.6146 107.675 17.5299 107.493 17.4648C107.389 17.4128 107.278 17.3542 107.161 17.2891C107.044 17.2109 106.985 17.0872 106.985 16.918C106.985 16.5664 107.167 16.3906 107.532 16.3906H115.364V14.9844H108.079ZM136.078 10.1797H128.324C127.908 10.1797 127.699 9.9388 127.699 9.45703C127.699 8.98828 127.908 8.75391 128.324 8.75391H136.117C136.143 7.63411 136.156 6.52083 136.156 5.41406H128.422C128.005 5.41406 127.797 5.17969 127.797 4.71094C127.797 4.22917 128.005 3.98828 128.422 3.98828H137.074C137.634 3.98828 137.914 4.33333 137.914 5.02344C137.914 6.01302 137.842 7.45182 137.699 9.33984C137.569 11.2279 137.309 12.7513 136.918 13.9102C136.853 14.1055 136.742 14.2487 136.586 14.3398C136.443 14.418 136.273 14.431 136.078 14.3789C135.935 14.3398 135.831 14.2617 135.766 14.1445C135.714 14.0143 135.714 13.8255 135.766 13.5781C135.922 12.7969 136.026 11.6641 136.078 10.1797ZM131.879 16.1367V13.832C131.879 13.4544 131.846 13.2201 131.781 13.1289C131.716 13.0378 131.527 12.9531 131.215 12.875C131.007 12.8229 130.844 12.7513 130.727 12.6602C130.622 12.569 130.57 12.4388 130.57 12.2695C130.57 11.931 130.798 11.7617 131.254 11.7617H132.758C133.305 11.7617 133.578 12.0677 133.578 12.6797V16.1367H140.238C140.681 16.1367 140.902 16.3711 140.902 16.8398C140.902 17.3086 140.681 17.543 140.238 17.543H126.156C125.766 17.543 125.57 17.3086 125.57 16.8398C125.57 16.3711 125.766 16.1367 126.156 16.1367H131.879ZM143.623 10.3555H147.49V5.31641H143.642V9.80859C143.642 10.0039 143.636 10.1862 143.623 10.3555ZM152.314 13.168V4.06641C152.314 3.6888 152.262 3.44141 152.158 3.32422C152.054 3.20703 151.871 3.11589 151.611 3.05078C151.351 2.98568 151.136 2.91406 150.966 2.83594C150.81 2.75781 150.732 2.6276 150.732 2.44531C150.732 2.09375 150.96 1.91797 151.416 1.91797H153.173C153.733 1.91797 154.013 2.19792 154.013 2.75781V11.3125C154.013 12.5495 153.584 13.168 152.724 13.168H152.314ZM144.853 15.4531C144.489 15.4531 144.306 15.2122 144.306 14.7305C144.306 14.2617 144.489 14.0273 144.853 14.0273H153.115C153.61 14.0273 153.857 14.3138 153.857 14.8867V19.0469C153.857 20.3359 153.453 20.9805 152.646 20.9805H152.177V15.4531H144.853ZM148.33 3.89062C148.89 3.89062 149.17 4.22266 149.17 4.88672V9.08594C149.17 9.61979 149.078 10.043 148.896 10.3555C149.261 10.3945 149.443 10.6289 149.443 11.0586C149.443 11.5404 149.228 11.7812 148.798 11.7812H143.271C143.063 12.1458 142.757 12.3281 142.353 12.3281H141.963V6.3125C141.963 5.81771 141.943 5.50521 141.904 5.375C141.878 5.23177 141.754 5.10807 141.533 5.00391C141.377 4.9388 141.24 4.86719 141.123 4.78906C141.005 4.69792 140.947 4.57422 140.947 4.41797C140.947 4.06641 141.162 3.89062 141.591 3.89062H148.33ZM168.96 12.4258C168.804 12.6081 168.589 12.7188 168.316 12.7578C168.055 12.7839 167.788 12.6732 167.515 12.4258L163.023 8.55859C162.866 8.76693 162.697 8.97526 162.515 9.18359C161.226 10.7201 159.728 11.9635 158.023 12.9141C157.632 13.1354 157.339 13.1159 157.144 12.8555C156.948 12.582 157.02 12.3346 157.359 12.1133C158.53 11.306 159.605 10.2643 160.581 8.98828C161.571 7.69922 162.196 6.48177 162.456 5.33594C162.482 5.17969 162.437 5.05599 162.32 4.96484C162.202 4.8737 162.027 4.80208 161.792 4.75C161.428 4.67188 161.265 4.47656 161.304 4.16406C161.343 3.85156 161.564 3.69531 161.968 3.69531H163.257C163.765 3.69531 164.11 3.8125 164.292 4.04688C164.474 4.28125 164.559 4.58073 164.546 4.94531C164.507 5.73958 164.24 6.56641 163.745 7.42578L168.667 11.1172C168.954 11.3255 169.103 11.5664 169.116 11.8398C169.129 12.1003 169.077 12.2956 168.96 12.4258ZM170.249 17.543H156.167C155.777 17.543 155.581 17.3086 155.581 16.8398C155.581 16.3581 155.777 16.1172 156.167 16.1172H170.249C170.692 16.1172 170.913 16.3581 170.913 16.8398C170.913 17.3086 170.692 17.543 170.249 17.543ZM182.623 5.74609C182.532 6.80078 182.181 7.97917 181.569 9.28125L185.397 13.1289C185.618 13.3372 185.742 13.5911 185.768 13.8906C185.807 14.1901 185.729 14.4115 185.534 14.5547C185.286 14.75 185.032 14.8086 184.772 14.7305C184.511 14.6523 184.284 14.4961 184.088 14.2617L180.944 10.4531C180.931 10.4922 180.911 10.5312 180.885 10.5703C179.843 12.3802 178.652 13.8581 177.311 15.0039C177.011 15.2513 176.738 15.2839 176.491 15.1016C176.243 14.9193 176.263 14.6719 176.549 14.3594C177.76 13.0052 178.724 11.5339 179.44 9.94531C180.169 8.34375 180.592 7.04818 180.709 6.05859C180.722 5.90234 180.657 5.78516 180.514 5.70703C180.384 5.62891 180.202 5.5638 179.967 5.51172C179.616 5.44661 179.446 5.26432 179.459 4.96484C179.472 4.66536 179.674 4.51562 180.065 4.51562H181.393C181.888 4.51562 182.22 4.6263 182.389 4.84766C182.571 5.06901 182.649 5.36849 182.623 5.74609ZM187.721 4.06641C187.721 3.6888 187.669 3.44141 187.565 3.32422C187.461 3.20703 187.278 3.11589 187.018 3.05078C186.758 2.98568 186.543 2.91406 186.373 2.83594C186.217 2.75781 186.139 2.6276 186.139 2.44531C186.139 2.09375 186.367 1.91797 186.823 1.91797H188.58C189.14 1.91797 189.42 2.19141 189.42 2.73828V18.7734C189.42 19.9974 188.991 20.6094 188.131 20.6094H187.721V4.06641ZM204.367 12.4258C204.211 12.6081 203.996 12.7188 203.723 12.7578C203.462 12.7839 203.195 12.6732 202.922 12.4258L198.43 8.55859C198.273 8.76693 198.104 8.97526 197.922 9.18359C196.633 10.7201 195.135 11.9635 193.43 12.9141C193.039 13.1354 192.746 13.1159 192.551 12.8555C192.355 12.582 192.427 12.3346 192.766 12.1133C193.938 11.306 195.012 10.2643 195.988 8.98828C196.978 7.69922 197.603 6.48177 197.863 5.33594C197.889 5.17969 197.844 5.05599 197.727 4.96484C197.609 4.8737 197.434 4.80208 197.199 4.75C196.835 4.67188 196.672 4.47656 196.711 4.16406C196.75 3.85156 196.971 3.69531 197.375 3.69531H198.664C199.172 3.69531 199.517 3.8125 199.699 4.04688C199.882 4.28125 199.966 4.58073 199.953 4.94531C199.914 5.73958 199.647 6.56641 199.152 7.42578L204.074 11.1172C204.361 11.3255 204.51 11.5664 204.523 11.8398C204.536 12.1003 204.484 12.2956 204.367 12.4258ZM205.656 17.543H191.574C191.184 17.543 190.988 17.3086 190.988 16.8398C190.988 16.3581 191.184 16.1172 191.574 16.1172H205.656C206.099 16.1172 206.32 16.3581 206.32 16.8398C206.32 17.3086 206.099 17.543 205.656 17.543ZM212.146 7.40625C212.589 7.40625 212.81 7.64714 212.81 8.12891C212.81 8.59766 212.589 8.83203 212.146 8.83203H209.158V10.4141C209.158 10.7656 209.314 10.9414 209.627 10.9414H213.728C214.145 10.9414 214.353 11.1693 214.353 11.625C214.353 12.1068 214.138 12.3477 213.709 12.3477H208.65C207.869 12.3477 207.478 11.9115 207.478 11.0391V6.29297C207.478 5.82422 207.459 5.51823 207.42 5.375C207.38 5.21875 207.283 5.09505 207.127 5.00391C206.983 4.92578 206.86 4.84766 206.755 4.76953C206.664 4.69141 206.619 4.58073 206.619 4.4375C206.619 4.08594 206.801 3.91016 207.166 3.91016H212.966C213.396 3.91016 213.611 4.15104 213.611 4.63281C213.611 5.10156 213.403 5.33594 212.986 5.33594H209.158V7.40625H212.146ZM218.045 1.91797H219.744C220.33 1.91797 220.623 2.19792 220.623 2.75781V11.3516C220.623 12.5885 220.18 13.207 219.295 13.207H218.904V4.04688C218.904 3.66927 218.858 3.42188 218.767 3.30469C218.689 3.1875 218.507 3.09635 218.22 3.03125C217.934 2.96615 217.712 2.90104 217.556 2.83594C217.413 2.75781 217.341 2.6276 217.341 2.44531C217.341 2.09375 217.576 1.91797 218.045 1.91797ZM215.681 4.86719C215.681 4.5026 215.636 4.26823 215.545 4.16406C215.453 4.04688 215.278 3.94922 215.017 3.87109C214.731 3.79297 214.516 3.71484 214.373 3.63672C214.229 3.54557 214.158 3.41536 214.158 3.24609C214.158 2.92057 214.386 2.75781 214.841 2.75781H216.541C217.087 2.75781 217.361 3.05078 217.361 3.63672V11.0586C217.361 12.2956 216.925 12.9141 216.052 12.9141H215.681V8.83203H214.021C213.604 8.83203 213.396 8.59766 213.396 8.12891C213.396 7.64714 213.604 7.40625 214.021 7.40625H215.681V4.86719ZM213.416 19.1055H218.728V15.5703H213.435V18.5781C213.435 18.7604 213.429 18.9362 213.416 19.1055ZM219.568 14.1445C220.128 14.1445 220.408 14.4831 220.408 15.1602V17.6406C220.408 18.2786 220.304 18.7669 220.095 19.1055C220.486 19.1315 220.681 19.3659 220.681 19.8086C220.681 20.2904 220.466 20.5312 220.037 20.5312H213.064C212.856 20.9089 212.55 21.0977 212.146 21.0977H211.755V16.5664C211.755 16.0716 211.736 15.7591 211.697 15.6289C211.671 15.4857 211.547 15.3685 211.326 15.2773C211.17 15.2122 211.033 15.1341 210.916 15.043C210.811 14.9518 210.759 14.8281 210.759 14.6719C210.759 14.3203 210.968 14.1445 211.384 14.1445H219.568Z" fill="black"/>
<path opacity="0.7" d="M65.696 35.04C65.696 35.824 65.444 36.432 64.94 36.864C64.436 37.288 63.752 37.5 62.888 37.5H59.9V28.968H62.696C63.592 28.968 64.28 29.156 64.76 29.532C65.24 29.9 65.48 30.472 65.48 31.248C65.48 31.632 65.364 31.98 65.132 32.292C64.908 32.604 64.6 32.844 64.208 33.012C64.68 33.132 65.044 33.38 65.3 33.756C65.564 34.124 65.696 34.552 65.696 35.04ZM61.028 32.604H62.72C63.216 32.604 63.608 32.484 63.896 32.244C64.192 31.996 64.34 31.66 64.34 31.236C64.34 30.764 64.204 30.424 63.932 30.216C63.668 30 63.256 29.892 62.696 29.892H61.028V32.604ZM64.568 35.052C64.568 34.564 64.432 34.184 64.16 33.912C63.896 33.64 63.488 33.504 62.936 33.504H61.028V36.588H62.888C63.416 36.588 63.828 36.452 64.124 36.18C64.42 35.9 64.568 35.524 64.568 35.052ZM71.4731 33.156C71.4731 32.772 71.3571 32.468 71.1251 32.244C70.9011 32.02 70.5731 31.908 70.1411 31.908C69.7411 31.908 69.4131 32.008 69.1571 32.208C68.9091 32.408 68.7851 32.644 68.7851 32.916H67.6811C67.6811 32.604 67.7851 32.304 67.9931 32.016C68.2091 31.728 68.5091 31.496 68.8931 31.32C69.2771 31.136 69.7131 31.044 70.2011 31.044C70.9211 31.044 71.4931 31.228 71.9171 31.596C72.3491 31.956 72.5651 32.48 72.5651 33.168V36.12C72.5651 36.336 72.5851 36.564 72.6251 36.804C72.6651 37.044 72.7211 37.244 72.7931 37.404V37.5H71.6531C71.5731 37.332 71.5211 37.112 71.4971 36.84C71.2731 37.072 71.0091 37.26 70.7051 37.404C70.4011 37.548 70.0651 37.62 69.6971 37.62C69.2731 37.62 68.8971 37.54 68.5691 37.38C68.2491 37.212 67.9971 36.984 67.8131 36.696C67.6371 36.408 67.5491 36.092 67.5491 35.748C67.5491 35.076 67.8011 34.56 68.3051 34.2C68.8171 33.84 69.5171 33.66 70.4051 33.66H71.4731V33.156ZM69.8531 36.684C70.2291 36.684 70.5611 36.592 70.8491 36.408C71.1371 36.216 71.3451 35.988 71.4731 35.724V34.416H70.5851C69.9611 34.416 69.4811 34.516 69.1451 34.716C68.8171 34.916 68.6531 35.208 68.6531 35.592C68.6531 35.912 68.7571 36.176 68.9651 36.384C69.1731 36.584 69.4691 36.684 69.8531 36.684ZM78.4849 35.82C78.4849 35.556 78.3849 35.336 78.1849 35.16C77.9929 34.984 77.6089 34.836 77.0329 34.716C76.2809 34.564 75.7089 34.348 75.3169 34.068C74.9329 33.78 74.7409 33.388 74.7409 32.892C74.7409 32.556 74.8369 32.248 75.0289 31.968C75.2289 31.688 75.5089 31.464 75.8689 31.296C76.2289 31.128 76.6369 31.044 77.0929 31.044C77.5889 31.044 78.0169 31.132 78.3769 31.308C78.7449 31.484 79.0249 31.724 79.2169 32.028C79.4169 32.324 79.5169 32.652 79.5169 33.012H78.4249C78.4249 32.836 78.3689 32.664 78.2569 32.496C78.1529 32.328 78.0009 32.192 77.8009 32.088C77.6009 31.976 77.3649 31.92 77.0929 31.92C76.6769 31.92 76.3649 32.012 76.1569 32.196C75.9489 32.38 75.8449 32.6 75.8449 32.856C75.8449 33.024 75.8849 33.164 75.9649 33.276C76.0449 33.388 76.1889 33.488 76.3969 33.576C76.6049 33.664 76.9049 33.752 77.2969 33.84C78.0969 34.024 78.6769 34.264 79.0369 34.56C79.3969 34.848 79.5769 35.244 79.5769 35.748C79.5769 36.116 79.4729 36.444 79.2649 36.732C79.0649 37.012 78.7809 37.232 78.4129 37.392C78.0449 37.544 77.6169 37.62 77.1289 37.62C76.5929 37.62 76.1249 37.524 75.7249 37.332C75.3329 37.132 75.0329 36.876 74.8249 36.564C74.6249 36.244 74.5249 35.904 74.5249 35.544H75.6289C75.6529 35.96 75.8089 36.264 76.0969 36.456C76.3929 36.648 76.7369 36.744 77.1289 36.744C77.5529 36.744 77.8849 36.656 78.1249 36.48C78.3649 36.304 78.4849 36.084 78.4849 35.82ZM84.1129 37.62C83.5369 37.62 83.0249 37.492 82.5769 37.236C82.1369 36.972 81.7969 36.608 81.5569 36.144C81.3169 35.672 81.1969 35.14 81.1969 34.548C81.1969 33.812 81.3249 33.18 81.5809 32.652C81.8449 32.124 82.1849 31.724 82.6009 31.452C83.0249 31.18 83.4809 31.044 83.9689 31.044C84.8409 31.044 85.4929 31.328 85.9249 31.896C86.3649 32.456 86.5849 33.204 86.5849 34.14V34.632H82.3009C82.3169 35.232 82.4929 35.736 82.8289 36.144C83.1649 36.544 83.6129 36.744 84.1729 36.744C84.5409 36.744 84.8569 36.672 85.1209 36.528C85.3849 36.376 85.6249 36.16 85.8409 35.88L86.5009 36.396C85.9649 37.212 85.1689 37.62 84.1129 37.62ZM83.9689 31.92C83.5369 31.92 83.1729 32.08 82.8769 32.4C82.5889 32.72 82.4089 33.168 82.3369 33.744H85.4929V33.672C85.4609 33.168 85.3249 32.752 85.0849 32.424C84.8529 32.088 84.4809 31.92 83.9689 31.92ZM93.7807 34.404C93.7807 35.028 93.6847 35.584 93.4927 36.072C93.3007 36.552 93.0167 36.932 92.6407 37.212C92.2727 37.484 91.8327 37.62 91.3207 37.62C90.5127 37.62 89.8927 37.336 89.4607 36.768L89.4127 37.5H88.4047V28.968H89.5087V31.836C89.9247 31.308 90.5247 31.044 91.3087 31.044C92.0847 31.044 92.6887 31.336 93.1207 31.92C93.5607 32.504 93.7807 33.288 93.7807 34.272V34.404ZM92.6887 34.272C92.6887 33.584 92.5567 33.028 92.2927 32.604C92.0287 32.172 91.6087 31.956 91.0327 31.956C90.6647 31.956 90.3527 32.044 90.0967 32.22C89.8487 32.396 89.6527 32.636 89.5087 32.94V35.712C89.8447 36.376 90.3567 36.708 91.0447 36.708C91.5967 36.708 92.0087 36.496 92.2807 36.072C92.5527 35.64 92.6887 35.084 92.6887 34.404V34.272ZM99.4195 33.156C99.4195 32.772 99.3035 32.468 99.0715 32.244C98.8475 32.02 98.5195 31.908 98.0875 31.908C97.6875 31.908 97.3595 32.008 97.1035 32.208C96.8555 32.408 96.7315 32.644 96.7315 32.916H95.6275C95.6275 32.604 95.7315 32.304 95.9395 32.016C96.1555 31.728 96.4555 31.496 96.8395 31.32C97.2235 31.136 97.6595 31.044 98.1475 31.044C98.8675 31.044 99.4395 31.228 99.8635 31.596C100.295 31.956 100.511 32.48 100.511 33.168V36.12C100.511 36.336 100.531 36.564 100.571 36.804C100.611 37.044 100.667 37.244 100.739 37.404V37.5H99.5995C99.5195 37.332 99.4675 37.112 99.4435 36.84C99.2195 37.072 98.9555 37.26 98.6515 37.404C98.3475 37.548 98.0115 37.62 97.6435 37.62C97.2195 37.62 96.8435 37.54 96.5155 37.38C96.1955 37.212 95.9435 36.984 95.7595 36.696C95.5835 36.408 95.4955 36.092 95.4955 35.748C95.4955 35.076 95.7475 34.56 96.2515 34.2C96.7635 33.84 97.4635 33.66 98.3515 33.66H99.4195V33.156ZM97.7995 36.684C98.1755 36.684 98.5075 36.592 98.7955 36.408C99.0835 36.216 99.2915 35.988 99.4195 35.724V34.416H98.5315C97.9075 34.416 97.4275 34.516 97.0915 34.716C96.7635 34.916 96.5995 35.208 96.5995 35.592C96.5995 35.912 96.7035 36.176 96.9115 36.384C97.1195 36.584 97.4155 36.684 97.7995 36.684ZM102.831 28.968H103.923V37.5H102.831V28.968ZM106.504 28.968H107.596V37.5H106.504V28.968ZM119.25 34.788C119.154 35.644 118.834 36.332 118.29 36.852C117.754 37.364 116.994 37.62 116.01 37.62C115.346 37.62 114.762 37.456 114.258 37.128C113.754 36.8 113.362 36.34 113.082 35.748C112.81 35.148 112.674 34.456 112.674 33.672V32.808C112.674 32.016 112.814 31.324 113.094 30.732C113.374 30.132 113.774 29.668 114.294 29.34C114.814 29.012 115.422 28.848 116.118 28.848C117.054 28.848 117.786 29.104 118.314 29.616C118.842 30.128 119.154 30.824 119.25 31.704H118.11C118.022 31.064 117.822 30.584 117.51 30.264C117.206 29.936 116.742 29.772 116.118 29.772C115.374 29.772 114.802 30.044 114.402 30.588C114.01 31.132 113.814 31.868 113.814 32.796V33.672C113.814 34.56 113.998 35.288 114.366 35.856C114.742 36.424 115.29 36.708 116.01 36.708C116.69 36.708 117.182 36.552 117.486 36.24C117.798 35.92 118.006 35.436 118.11 34.788H119.25ZM120.855 34.26C120.855 33.652 120.971 33.104 121.203 32.616C121.443 32.128 121.779 31.744 122.211 31.464C122.651 31.184 123.159 31.044 123.735 31.044C124.319 31.044 124.827 31.184 125.259 31.464C125.699 31.744 126.035 32.128 126.267 32.616C126.507 33.104 126.627 33.652 126.627 34.26V34.404C126.627 35.02 126.507 35.572 126.267 36.06C126.035 36.54 125.699 36.92 125.259 37.2C124.827 37.48 124.323 37.62 123.747 37.62C123.163 37.62 122.651 37.48 122.211 37.2C121.779 36.92 121.443 36.54 121.203 36.06C120.971 35.572 120.855 35.02 120.855 34.404V34.26ZM121.947 34.404C121.947 35.068 122.103 35.624 122.415 36.072C122.727 36.52 123.171 36.744 123.747 36.744C124.315 36.744 124.755 36.52 125.067 36.072C125.379 35.624 125.535 35.068 125.535 34.404V34.26C125.535 33.596 125.379 33.04 125.067 32.592C124.755 32.144 124.311 31.92 123.735 31.92C123.167 31.92 122.727 32.144 122.415 32.592C122.103 33.04 121.947 33.596 121.947 34.26V34.404ZM128.507 31.164H129.539L129.575 31.848C130.031 31.312 130.655 31.044 131.447 31.044C132.335 31.044 132.939 31.38 133.259 32.052C133.475 31.74 133.755 31.496 134.099 31.32C134.443 31.136 134.835 31.044 135.275 31.044C136.691 31.044 137.399 31.808 137.399 33.336V37.5H136.295V33.324C136.295 32.876 136.175 32.536 135.935 32.304C135.695 32.072 135.367 31.956 134.951 31.956C134.511 31.956 134.159 32.076 133.895 32.316C133.631 32.556 133.499 32.88 133.499 33.288V37.5H132.407V33.324C132.407 32.876 132.283 32.536 132.035 32.304C131.795 32.072 131.467 31.956 131.051 31.956C130.643 31.956 130.299 32.076 130.019 32.316C129.739 32.548 129.599 32.872 129.599 33.288V37.5H128.507V31.164ZM139.798 29.472C139.798 29.288 139.854 29.14 139.966 29.028C140.078 28.908 140.238 28.848 140.446 28.848C140.646 28.848 140.802 28.908 140.914 29.028C141.034 29.14 141.094 29.288 141.094 29.472C141.094 29.648 141.034 29.796 140.914 29.916C140.802 30.028 140.646 30.084 140.446 30.084C140.238 30.084 140.078 30.028 139.966 29.916C139.854 29.796 139.798 29.648 139.798 29.472ZM139.882 31.164H140.974V37.5H139.882V31.164ZM145.943 36.744C146.335 36.744 146.675 36.628 146.963 36.396C147.251 36.156 147.411 35.856 147.443 35.496H148.475C148.459 35.872 148.331 36.224 148.091 36.552C147.859 36.872 147.551 37.132 147.167 37.332C146.791 37.524 146.383 37.62 145.943 37.62C145.327 37.62 144.807 37.48 144.383 37.2C143.967 36.912 143.651 36.528 143.435 36.048C143.227 35.568 143.123 35.036 143.123 34.452V34.212C143.123 33.62 143.227 33.088 143.435 32.616C143.651 32.136 143.971 31.756 144.395 31.476C144.819 31.188 145.335 31.044 145.943 31.044C146.431 31.044 146.863 31.144 147.239 31.344C147.615 31.544 147.911 31.82 148.127 32.172C148.343 32.516 148.459 32.904 148.475 33.336H147.443C147.411 32.936 147.259 32.6 146.987 32.328C146.715 32.056 146.367 31.92 145.943 31.92C145.335 31.92 144.895 32.14 144.623 32.58C144.351 33.02 144.215 33.564 144.215 34.212V34.452C144.215 35.1 144.347 35.644 144.611 36.084C144.883 36.524 145.327 36.744 145.943 36.744ZM153.969 35.82C153.969 35.556 153.869 35.336 153.669 35.16C153.477 34.984 153.093 34.836 152.517 34.716C151.765 34.564 151.193 34.348 150.801 34.068C150.417 33.78 150.225 33.388 150.225 32.892C150.225 32.556 150.321 32.248 150.513 31.968C150.713 31.688 150.993 31.464 151.353 31.296C151.713 31.128 152.121 31.044 152.577 31.044C153.073 31.044 153.501 31.132 153.861 31.308C154.229 31.484 154.509 31.724 154.701 32.028C154.901 32.324 155.001 32.652 155.001 33.012H153.909C153.909 32.836 153.853 32.664 153.741 32.496C153.637 32.328 153.485 32.192 153.285 32.088C153.085 31.976 152.849 31.92 152.577 31.92C152.161 31.92 151.849 32.012 151.641 32.196C151.433 32.38 151.329 32.6 151.329 32.856C151.329 33.024 151.369 33.164 151.449 33.276C151.529 33.388 151.673 33.488 151.881 33.576C152.089 33.664 152.389 33.752 152.781 33.84C153.581 34.024 154.161 34.264 154.521 34.56C154.881 34.848 155.061 35.244 155.061 35.748C155.061 36.116 154.957 36.444 154.749 36.732C154.549 37.012 154.265 37.232 153.897 37.392C153.529 37.544 153.101 37.62 152.613 37.62C152.077 37.62 151.609 37.524 151.209 37.332C150.817 37.132 150.517 36.876 150.309 36.564C150.109 36.244 150.009 35.904 150.009 35.544H151.113C151.137 35.96 151.293 36.264 151.581 36.456C151.877 36.648 152.221 36.744 152.613 36.744C153.037 36.744 153.369 36.656 153.609 36.48C153.849 36.304 153.969 36.084 153.969 35.82ZM164.655 35.34C164.655 35.06 164.595 34.828 164.475 34.644C164.363 34.46 164.163 34.296 163.875 34.152C163.587 34 163.171 33.844 162.627 33.684C161.731 33.428 161.047 33.104 160.575 32.712C160.103 32.312 159.867 31.8 159.867 31.176C159.867 30.736 159.987 30.34 160.227 29.988C160.467 29.628 160.807 29.348 161.247 29.148C161.687 28.948 162.191 28.848 162.759 28.848C163.375 28.848 163.911 28.968 164.367 29.208C164.831 29.448 165.183 29.764 165.423 30.156C165.663 30.548 165.783 30.972 165.783 31.428H164.631C164.631 30.924 164.471 30.524 164.151 30.228C163.839 29.924 163.375 29.772 162.759 29.772C162.183 29.772 161.747 29.9 161.451 30.156C161.155 30.404 161.007 30.736 161.007 31.152C161.007 31.512 161.163 31.812 161.475 32.052C161.787 32.292 162.295 32.512 162.999 32.712C163.975 32.984 164.683 33.324 165.123 33.732C165.571 34.14 165.795 34.672 165.795 35.328C165.795 35.784 165.671 36.188 165.423 36.54C165.183 36.884 164.835 37.152 164.379 37.344C163.931 37.528 163.411 37.62 162.819 37.62C162.275 37.62 161.755 37.52 161.259 37.32C160.771 37.12 160.371 36.824 160.059 36.432C159.755 36.04 159.603 35.572 159.603 35.028H160.731C160.731 35.58 160.931 36 161.331 36.288C161.731 36.568 162.227 36.708 162.819 36.708C163.403 36.708 163.855 36.588 164.175 36.348C164.495 36.1 164.655 35.764 164.655 35.34ZM170.003 38.484C169.619 39.532 168.991 40.056 168.119 40.056C167.991 40.056 167.787 40.028 167.507 39.972V39.096C167.603 39.104 167.699 39.112 167.795 39.12C168.163 39.12 168.451 39.04 168.659 38.88C168.867 38.728 169.035 38.46 169.163 38.076L169.403 37.44L167.147 31.164H168.335L169.907 35.892L171.383 31.164H172.547L170.003 38.484ZM177.731 35.82C177.731 35.556 177.631 35.336 177.431 35.16C177.239 34.984 176.855 34.836 176.279 34.716C175.527 34.564 174.955 34.348 174.563 34.068C174.179 33.78 173.987 33.388 173.987 32.892C173.987 32.556 174.083 32.248 174.275 31.968C174.475 31.688 174.755 31.464 175.115 31.296C175.475 31.128 175.883 31.044 176.339 31.044C176.835 31.044 177.263 31.132 177.623 31.308C177.991 31.484 178.271 31.724 178.463 32.028C178.663 32.324 178.763 32.652 178.763 33.012H177.671C177.671 32.836 177.615 32.664 177.503 32.496C177.399 32.328 177.247 32.192 177.047 32.088C176.847 31.976 176.611 31.92 176.339 31.92C175.923 31.92 175.611 32.012 175.403 32.196C175.195 32.38 175.091 32.6 175.091 32.856C175.091 33.024 175.131 33.164 175.211 33.276C175.291 33.388 175.435 33.488 175.643 33.576C175.851 33.664 176.151 33.752 176.543 33.84C177.343 34.024 177.923 34.264 178.283 34.56C178.643 34.848 178.823 35.244 178.823 35.748C178.823 36.116 178.719 36.444 178.511 36.732C178.311 37.012 178.027 37.232 177.659 37.392C177.291 37.544 176.863 37.62 176.375 37.62C175.839 37.62 175.371 37.524 174.971 37.332C174.579 37.132 174.279 36.876 174.071 36.564C173.871 36.244 173.771 35.904 173.771 35.544H174.875C174.899 35.96 175.055 36.264 175.343 36.456C175.639 36.648 175.983 36.744 176.375 36.744C176.799 36.744 177.131 36.656 177.371 36.48C177.611 36.304 177.731 36.084 177.731 35.82ZM182.243 35.928C182.243 36.232 182.303 36.436 182.423 36.54C182.551 36.644 182.723 36.696 182.939 36.696C183.083 36.696 183.251 36.672 183.443 36.624V37.5C183.163 37.58 182.887 37.62 182.615 37.62C182.175 37.62 181.819 37.488 181.547 37.224C181.283 36.96 181.151 36.528 181.151 35.928V31.992H179.987V31.164H181.151V29.616H182.243V31.164H183.431V31.992H182.243V35.928ZM187.806 37.62C187.23 37.62 186.718 37.492 186.27 37.236C185.83 36.972 185.49 36.608 185.25 36.144C185.01 35.672 184.89 35.14 184.89 34.548C184.89 33.812 185.018 33.18 185.274 32.652C185.538 32.124 185.878 31.724 186.294 31.452C186.718 31.18 187.174 31.044 187.662 31.044C188.534 31.044 189.186 31.328 189.618 31.896C190.058 32.456 190.278 33.204 190.278 34.14V34.632H185.994C186.01 35.232 186.186 35.736 186.522 36.144C186.858 36.544 187.306 36.744 187.866 36.744C188.234 36.744 188.55 36.672 188.814 36.528C189.078 36.376 189.318 36.16 189.534 35.88L190.194 36.396C189.658 37.212 188.862 37.62 187.806 37.62ZM187.662 31.92C187.23 31.92 186.866 32.08 186.57 32.4C186.282 32.72 186.102 33.168 186.03 33.744H189.186V33.672C189.154 33.168 189.018 32.752 188.778 32.424C188.546 32.088 188.174 31.92 187.662 31.92ZM192.098 31.164H193.13L193.166 31.848C193.622 31.312 194.246 31.044 195.038 31.044C195.926 31.044 196.53 31.38 196.85 32.052C197.066 31.74 197.346 31.496 197.69 31.32C198.034 31.136 198.426 31.044 198.866 31.044C200.282 31.044 200.99 31.808 200.99 33.336V37.5H199.886V33.324C199.886 32.876 199.766 32.536 199.526 32.304C199.286 32.072 198.958 31.956 198.542 31.956C198.102 31.956 197.75 32.076 197.486 32.316C197.222 32.556 197.09 32.88 197.09 33.288V37.5H195.998V33.324C195.998 32.876 195.874 32.536 195.626 32.304C195.386 32.072 195.058 31.956 194.642 31.956C194.234 31.956 193.89 32.076 193.61 32.316C193.33 32.548 193.19 32.872 193.19 33.288V37.5H192.098V31.164Z" fill="black"/>
<defs>
<clipPath id="clip0_1_385">
<rect width="50" height="42" fill="white"/>
</clipPath>
</defs>
</svg>
