<svg xmlns="http://www.w3.org/2000/svg" width="1025" height="770" viewBox="0 0 1025 770"><defs><clipPath id="a"><use width="100%" height="100%" href="#SVGID_1_" overflow="visible"/></clipPath><clipPath id="b"><use width="100%" height="100%" href="#SVGID_1_-0" overflow="visible"/></clipPath></defs><path fill="#cf0a2c" d="m636.949 371.328-34.697-127.682c42.897-3.673 79.72-9.556 106.848-17.105 25.29-7.04 63.87-19.394 55.692-47.878-11.652-40.586-95.472-63.643-151.139-74.627-17.29-33.284-57.237-56.655-102.74-60.068-.206-.018-.414-.03-.619-.047l-5.651-19.997-.797-2.593c3.807-1.754 6.454-5.598 6.454-10.065 0-6.121-4.963-11.088-11.087-11.088-6.123 0-11.09 4.967-11.09 11.088 0 4.468 2.647 8.308 6.454 10.063l-.795 2.593-5.678 20.173c-.297.027-1.608.053-1.904.08-44.476 4.06-83.296 27.183-100.272 59.862-55.666 10.984-139.486 34.041-151.136 74.627-8.178 28.484 30.401 40.838 55.693 47.878 26.673 7.427 62.724 13.237 104.706 16.921L352.07 371.328Z" style="stroke:#fff;stroke-width:25.3228;stroke-linejoin:round;stroke-miterlimit:0;stroke-dasharray:none;stroke-opacity:1" transform="matrix(.99969 0 0 .99969 12.657 12.48)"/><path fill="#cf0a2c" d="M672.683 200.837c1.71 2.205 2.579 4.527 2.338 6.959-.428 4.245-4.251 8.824-12.916 13.703 20.199-3.265 41.099-8.551 44.119-17.025.462-1.298.519-2.667.076-4.115-.813-2.671-4.45-5.426-10.311-7.998a73.743 73.743 0 0 0-5.741-2.218c-13.571-4.657-34.583-8.357-58.889-9.221 13.83 4.104 29.809 9.717 38.082 16.627 1.275 1.066 2.367 2.161 3.242 3.288" style="stroke:#fff;stroke-width:13.2283;stroke-miterlimit:0;stroke-dasharray:none;stroke-opacity:1" transform="matrix(.99969 0 0 .99969 12.657 12.48)"/><path fill="#eb776e" d="M354.158 209.837a1041.153 1041.153 0 0 1-15.803-4.949c-2.29-.74-4.595-1.492-6.899-2.255-13.433-4.458-26.915-9.32-37.996-14.116-10.216-4.421-18.386-8.783-22.614-12.719-4.483 1.446-8.463 2.945-11.892 4.497a67.94 67.94 0 0 0-4.054 2.003c-5.649 3.384-7.905 9.599-2.284 15.688 10.852 9.175 32.612 15.236 41.718 17.773 20.197 5.621 46.118 10.319 76.077 13.831-13.773-5.715-18.9-12.724-16.253-19.753M749.4 185.438a11.902 11.902 0 0 0-2.709-2.726c-4.658-2.599-10.791-5.064-18.266-7.378-5.201 5.184-17.51 11.148-32.437 17.025 5.86 2.572 9.498 5.327 10.311 7.996.442 1.452.386 2.82-.076 4.117-3.021 8.475-23.92 13.761-44.119 17.028 8.665-4.884 12.488-9.461 12.916-13.707.244-2.431-.628-4.753-2.338-6.96a903.542 903.542 0 0 1-22.843 7.401c-1.905.59-3.787 1.169-5.633 1.73 2.594 7.154-2.86 14.271-17.287 20.024 31.452-3.555 58.627-8.392 79.607-14.233 8.182-2.279 26.56-7.395 38.086-15.061 7.237-5.231 7.74-11.09 4.788-15.256m-107.28 20.779c10.313-3.111 19.366-5.995 27.321-8.666-8.273-6.911-24.252-12.524-38.082-16.627 24.306.864 45.317 4.563 58.889 9.219 20.406-7.776 29.442-13.064 33.446-16.199-19.758-5.552-47.487-10.159-81.152-13.536-3.306 3.463-19.085 15.631-34.971 27.618 17.802 5.172 29.558 11.591 34.549 18.191m-140.792-52.121c.037.154.096.302.096.471v21.124h2.724c8.065 0 26.047.236 46.052 2.012l11.52-22.545c-19.224-.68-39.422-1.046-60.392-1.062m65.047 1.233-11.649 22.801c4.603.459 9.28.997 13.939 1.64 9.635 1.331 17.984 2.926 25.144 4.788 2.988.656 5.857 1.34 8.598 2.054 14.978-11.283 28.852-21.923 34.543-26.747-21.426-2.024-45.113-3.558-70.575-4.536m-120.892 16.3 1.045 2.045 2.308 4.517a475.712 475.712 0 0 1 15.597-1.025c11.338-.937 22.103-1.476 30.987-1.476h1.781v-21.124c0-.163.058-.313.096-.469-20.912.022-41.057.394-60.216 1.086zm257.964-12.428c-27.653-15.041-69.862-25.229-69.862-25.229l14.071 9.219c-20.379 0-48.517 3.234-48.517 3.234s66.144 4.368 104.308 12.776m-329.179 15.906c-8.751-6.762-15.685-12.315-17.895-14.58-33.667 3.445-61.287 8.153-80.764 13.813 3.526 2.633 10.404 6.646 23.832 12.196 8.604 3.558 19.9 7.746 34.725 12.614a961.046 961.046 0 0 0 20.605 6.491c.503.152 1.008.306 1.515.457.101-.129.213-.262.32-.391 5.234-6.462 16.944-12.724 34.479-17.783a1796.692 1796.692 0 0 1-7.276-5.512 1594.865 1594.865 0 0 1-9.541-7.305m66.508-3.408-8.345-16.341c-25.445.997-49.102 2.559-70.459 4.615 3.612 3.054 10.371 8.343 18.571 14.62 2.817 2.16 5.808 4.434 8.9 6.778 2.229 1.688 4.508 3.411 6.814 5.151 13.214-3.42 29.302-6.183 48.04-7.934l-2.273-4.452z" style="stroke:#fff;stroke-width:13.2283;stroke-miterlimit:0;stroke-dasharray:none;stroke-opacity:1" transform="matrix(.99969 0 0 .99969 12.657 12.48)"/><path fill="#cf0a2c" d="M669.441 197.551c-7.955 2.67-17.008 5.556-27.321 8.665-4.991-6.598-16.747-13.016-34.552-18.192 15.889-11.986 31.668-24.15 34.971-27.616-1.846-.185-3.711-.366-5.59-.545-5.691 4.825-19.565 15.466-34.546 26.749a224.424 224.424 0 0 0-8.595-2.054c-7.159-1.863-15.509-3.456-25.144-4.788a375.07 375.07 0 0 0-13.939-1.641l11.649-22.799c-1.548-.061-3.101-.118-4.659-.173l-11.52 22.545c-20.002-1.775-37.983-2.012-46.049-2.012h-2.724v-21.124c0-.166-.059-.316-.096-.471h-2.63c-.47 0-.934 0-1.401.003-.038.151-.099.302-.099.468v21.124h-1.778c-8.884 0-19.648.536-30.99 1.473-5.376.268-10.572.613-15.594 1.028l-2.307-4.519-1.047-2.046-8.403-16.445c-1.559.058-3.106.118-4.651.179l8.348 16.339 1.243 2.44 2.276 4.45c-18.736 1.748-34.827 4.514-48.038 7.931a2453.647 2453.647 0 0 1-15.717-11.926c-8.202-6.276-14.956-11.566-18.571-14.619-1.882.182-3.751.366-5.598.553 2.21 2.265 9.147 7.818 17.896 14.58a1895.962 1895.962 0 0 0 16.818 12.819c-17.535 5.06-29.246 11.321-34.479 17.783-.107.129-.218.262-.319.391-.508-.151-1.012-.305-1.515-.457a963.23 963.23 0 0 1-20.607-6.491c-14.824-4.868-26.119-9.057-34.723-12.614-13.428-5.551-20.307-9.563-23.829-12.196a174.19 174.19 0 0 0-4.769 1.457c4.232 3.936 12.402 8.299 22.614 12.719 11.085 4.796 24.563 9.658 37.997 14.114 2.308.765 4.609 1.52 6.899 2.257 5.399 1.74 10.72 3.402 15.803 4.948-2.647 7.033 2.481 14.038 16.253 19.757a934.273 934.273 0 0 0 30.706 3.06l.028-.064 2.718-5.938c-14.585-2.631-30.11-6.685-35.178-12.485-1.177-1.349-1.8-2.792-1.705-4.334.012-.179.047-.354.075-.533.187-1.089.733-2.15 1.602-3.188 4.085-4.856 15.28-9.126 29.761-12.666 1.749-.43 3.546-.847 5.388-1.254 13.317-2.943 28.783-5.316 43.849-7.025 1.504-.171 3.002-.336 4.494-.492 16.328-1.724 31.867-2.645 43.274-2.645h8.728c11.784 0 27.203.467 42.938 1.774 1.514.124 3.026.257 4.54.397 15.818 1.476 31.626 3.834 44.077 7.452 1.722.499 3.385 1.02 4.966 1.569 10.155 3.518 17.304 8.067 19.124 13.905.416 1.337.557 2.74.382 4.215-.05.467-.154.92-.301 1.365-.436 1.312-1.271 2.532-2.414 3.673-4.323 4.313-13.154 7.433-22.303 9.628l2.552 6.064.304.72c.203-.011.417-.026.61-.044a931.524 931.524 0 0 0 28.298-2.757c14.427-5.753 19.881-12.87 17.287-20.022 1.846-.563 3.728-1.138 5.633-1.731a904.6 904.6 0 0 0 22.843-7.398c-.876-1.13-1.968-2.226-3.243-3.29m20.807-7.408c2.096.72 4.018 1.46 5.741 2.218 14.927-5.877 27.235-11.841 32.437-17.025-1.521-.47-3.101-.934-4.731-1.392-4.005 3.134-13.041 8.422-33.447 16.199" style="stroke:#fff;stroke-width:13.2283;stroke-miterlimit:0;stroke-dasharray:none;stroke-opacity:1" transform="matrix(.99969 0 0 .99969 12.657 12.48)"/><path fill="#fff" d="M353.533 220.742c-16.221-5.574-23.21-11.085-22.582-16.337a6.098 6.098 0 0 1 .5-1.774c.531-1.176 1.438-2.336 2.711-3.479 6.888-6.188 24.4-11.889 49.643-16.737 1.836-.352 3.716-.7 5.635-1.042 15.211-2.729 32.922-5.159 52.579-7.234 1.493-.154 2.994-.311 4.505-.464 7.053-.713 14.329-1.383 21.828-1.999a736.535 736.535 0 0 0-22.873-.046c-1.559.021-3.125.04-4.707.07-19.295.342-40.167 1.33-60.233 2.895-2.101.163-4.195.336-6.275.512-30.161 2.562-57.884 6.445-74.825 11.432a86.862 86.862 0 0 0-5.984 1.979c-6.217 2.336-10.118 4.879-10.949 7.619-.068.212-.082.418-.124.627-3.171 15.082 46.725 21.423 71.151 23.978" clip-path="url(#a)" opacity="0.3" style="stroke:#fff;stroke-width:13.2283;stroke-miterlimit:0;stroke-dasharray:none;stroke-opacity:1" transform="matrix(.99969 0 0 .99969 12.657 12.48)"/><path fill="#cda772" d="M504.015 21.421a11.282 11.282 0 0 0 6.417-10.155c0-6.204-5.05-11.254-11.255-11.254-6.206 0-11.255 5.05-11.255 11.254 0 4.318 2.512 8.289 6.415 10.155l-6.951 22.625-.072.239.25-.021c4.283-.369 8.538-.559 12.64-.573h.087c3.367.012 6.881.146 10.448.401l.245.017z" style="stroke:#fff;stroke-width:13.2283;stroke-miterlimit:0;stroke-dasharray:none;stroke-opacity:1" transform="matrix(.99969 0 0 .99969 12.657 12.48)"/><path fill="#ab6c22" d="m504.605 23.924-.796-2.594a11.02 11.02 0 0 1-4.633 1.025 11.04 11.04 0 0 1-4.636-1.025l-.795 2.594a11.069 11.069 0 0 0 5.431 1.425c1.972 0 3.826-.521 5.429-1.425" style="stroke:#fff;stroke-width:13.2283;stroke-miterlimit:0;stroke-dasharray:none;stroke-opacity:1" transform="matrix(.99969 0 0 .99969 12.657 12.48)"/><path fill="#fff" d="M495.689 4.481c-.055-.029-.116-.038-.173-.058-1.04-.384-2.627.693-3.656 2.535-1.083 1.943-1.126 3.986-.094 4.56.613.344 1.463.08 2.282-.585.561-.457 1.108-1.103 1.549-1.892 1.083-1.944 1.126-3.987.092-4.56" style="stroke:#fff;stroke-width:13.2283;stroke-miterlimit:0;stroke-dasharray:none;stroke-opacity:1" transform="matrix(.99969 0 0 .99969 12.657 12.48)"/><path fill="#fcd789" d="M450.207 66.117c-3.626 1.59-8.48 4.055-14.631 15.662 5.882-10.384 10.203-13.399 14.631-15.662m-3.206 34.114a740.395 740.395 0 0 1 47.603-1.559c1.979 0 3.938.011 5.888.025 3.579-1.949 4.484-4.739 2.084-8.095 9.768 1.319 26.5 3.856 28.436-5.03 2.257-10.35-14.693-23.653-28.877-27.807a35.765 35.765 0 0 0-2.346-.608 77.173 77.173 0 0 0-15.895.173c-.516.061-1.028.102-1.547.171-3.659.48-7.164 1.051-10.72 1.809-2.237 1.274-18.991 11.727-24.626 40.921" style="stroke:#fff;stroke-width:13.2283;stroke-miterlimit:0;stroke-dasharray:none;stroke-opacity:1" transform="matrix(.99969 0 0 .99969 12.657 12.48)"/><path fill="#f6b100" d="M531.013 85.573c-1.936 8.887-18.668 6.351-28.436 5.031 2.397 3.354 1.491 6.143-2.082 8.092 22.918.156 43.987 1.199 62.118 2.554-2.649-16.325-26.857-38.656-57.864-43.485a83.112 83.112 0 0 0-4.957-.607c.769.173 1.553.377 2.341.607 14.186 4.153 31.137 17.46 28.88 27.808m-95.695-12.766c-12.103 6.769-22.479 15.377-30.297 25.388a82.295 82.295 0 0 0-4.565 6.484c3.229-.412 6.643-.821 10.206-1.225a766.28 766.28 0 0 1 16.066-1.642c.891-1.904 1.65-3.568 1.91-4.379.234.022.458.071.696.071a7.044 7.044 0 0 0 7.042-7.04c0-2.186-1.02-4.116-2.584-5.409a105.005 105.005 0 0 1 1.785-3.276c6.151-11.608 11.005-14.071 14.628-15.662 1.025-.523 2.059-1.012 3.117-1.54-6.316 2.313-12.349 5.067-18.004 8.23" style="stroke:#fff;stroke-width:13.2283;stroke-miterlimit:0;stroke-dasharray:none;stroke-opacity:1" transform="matrix(.99969 0 0 .99969 12.657 12.48)"/><path fill="#fff" d="M435.577 81.781c-.087.163-.173.316-.259.483 1.564 1.29 4.58 5.778 4.58 7.964 0 3.887-5.591 9.758-9.48 9.758-.107 0-.423.743-.767 1.562a770.498 770.498 0 0 1 17.351-1.316c5.632-29.192 22.389-39.647 24.628-40.921a134.777 134.777 0 0 0-18.304 5.267c-.914.604-1.954 1.028-3.117 1.541-4.429 2.26-8.75 5.277-14.632 15.662" style="stroke:#fff;stroke-width:13.2283;stroke-miterlimit:0;stroke-dasharray:none;stroke-opacity:1" transform="matrix(.99969 0 0 .99969 12.657 12.48)"/><path fill="#fff" d="M430.419 99.988c3.887 0 9.48-5.871 9.48-9.761 0-2.183-3.016-6.672-4.58-7.963.086-.166.169-.322.259-.483-.582 1.025-1.173 2.1-1.786 3.275 1.564 1.29 2.581 3.22 2.581 5.407 0 3.89-3.15 7.04-7.037 7.04-.239 0-.467-.047-.7-.069-.256.811-1.02 2.475-1.908 4.379.969-.089 1.937-.179 2.924-.265.341-.818.66-1.56.767-1.56m22.905-35.411c-1.061.528-2.092 1.017-3.117 1.54 1.163-.512 2.204-.935 3.117-1.54" style="stroke:#fff;stroke-width:13.2283;stroke-miterlimit:0;stroke-dasharray:none;stroke-opacity:1" transform="matrix(.99969 0 0 .99969 12.657 12.48)"/><path fill="#e393a7" d="M424.358 140.838c.536-2.003 5.206-3.364 7.04-3.521l-18.656-4.929c17.954 1.408 36.229 1.731 54.208.706 3.816-.219 27.798-2.011 23.579-9.867-3.809-7.086-30.453-14.498-108.606-5.28a703.347 703.347 0 0 0-19.943 4.411c-17.109 5.066-37.274 13.208-50.167 25.621-3.232 3.104-7.435 6.941-3.803 10.41a593.243 593.243 0 0 1 21.154-3.229c26.51-3.58 58.189-6.219 92.761-7.795 3.105-.251 6.124-.507 9.035-.763.046-.003.094-.009.143-.016h.019c6.095-.541 6.095-.541 0 0-3.782-1.13-7.501-2.993-6.764-5.748" style="stroke:#fff;stroke-width:13.2283;stroke-miterlimit:0;stroke-dasharray:none;stroke-opacity:1" transform="matrix(.99969 0 0 .99969 12.657 12.48)"/><path fill="#d54c79" d="M390.612 116.193c-.78.154-1.256.25-1.256.25l-.47.092.47-.092c.432-.087.847-.17 1.256-.25" style="stroke:#fff;stroke-width:13.2283;stroke-miterlimit:0;stroke-dasharray:none;stroke-opacity:1" transform="matrix(.99969 0 0 .99969 12.657 12.48)"/><path fill="#d54c79" d="M477.02 107.771c-34.121.763-61.35 4.11-78.713 6.908a1356.142 1356.142 0 0 0-7.694 1.514c-.409.08-.823.164-1.256.25l-.469.093c-2.369.468-4.678.936-6.967 1.411 78.155-9.218 104.801-1.806 108.606 5.28 4.22 7.856-19.758 9.648-23.579 9.867-17.978 1.025-36.253.702-54.206-.706l18.656 4.929c-1.835.156-6.504 1.518-7.04 3.521-.738 2.755 2.981 4.618 6.76 5.751a863.79 863.79 0 0 0 17.014-1.677c3.5-.382 6.818-.77 9.956-1.162a495.493 495.493 0 0 0 12.922-1.78c2.606-.401 5.047-.805 7.314-1.206a240.86 240.86 0 0 0 3.277-.602c2.1-.402 4.037-.803 5.811-1.201.89-.198 1.734-.396 2.544-.597 4.038-.99 7.081-1.961 9.205-2.889 5.52-2.417 4.813-4.542-.866-5.957 16.806-.325 35.446-1.949 46.029-4.805a43.753 43.753 0 0 0 2.678-.807c3.289-1.121 5.391-2.399 5.835-3.837.169-.555.262-1.099.239-1.64a3.387 3.387 0 0 0-.181-.938 3.802 3.802 0 0 0-.568-1.08c-.568-.753-1.49-1.484-2.9-2.185a.177.177 0 0 1-.036-.02 2.452 2.452 0 0 1-.127-.058c-1.105-.533-2.498-1.046-4.228-1.542-.281-.077-.568-.157-.867-.236-.613-.16-1.26-.322-1.955-.479a81.376 81.376 0 0 0-2.057-.435 108.938 108.938 0 0 0-4.76-.821 106.063 106.063 0 0 0-1.955-.281c-.281-.041-.585-.074-.872-.115a205.393 205.393 0 0 0-3.435-.424c-.149-.017-.31-.032-.459-.049-.621-.072-1.249-.138-1.901-.207a34.732 34.732 0 0 0-.453-.046c-.669-.066-1.345-.136-2.045-.203l-1.038-.094c-.531-.047-1.055-.096-1.606-.146-2.431-.11-4.839-.224-7.19-.319a1268.953 1268.953 0 0 0-37.423-.98m-148.7 23.697c-1.731.536-16.17 4.885-25.938 9.114-12.022 4.819-21.484 9.61-28.919 14.188-4.206 2.586-7.768 5.107-10.777 7.529a77.139 77.139 0 0 0-2.834 2.386c-3.928 3.474-6.721 6.7-8.716 9.584-.188.268-.375.539-.547.801a80.23 80.23 0 0 1 7.546-3.644 114.212 114.212 0 0 1 6.552-2.521 143.468 143.468 0 0 1 6.011-1.991c.594-.185 1.201-.366 1.809-.548.957-.285 1.921-.569 2.915-.85a237.046 237.046 0 0 1 6.879-1.828s9.988-2.316 14.957-3.299c1.167-.236 2.352-.473 3.567-.703l.27-.052a346.12 346.12 0 0 1 6.918-1.245c-3.636-3.467.566-7.302 3.799-10.413 12.895-12.41 33.06-20.552 50.168-25.618-12.527 2.974-23.696 6.024-33.66 9.11" style="stroke:#fff;stroke-width:13.2283;stroke-miterlimit:0;stroke-dasharray:none;stroke-opacity:1" transform="matrix(.99969 0 0 .99969 12.657 12.48)"/><path fill="#f6b100" d="M631.874 209.299c-.186-1.091-.729-2.152-1.601-3.19-4.085-4.856-15.278-9.126-29.758-12.666-1.75-.43-3.55-.847-5.39-1.252-13.315-2.945-28.782-5.318-43.853-7.027a465.682 465.682 0 0 0-4.489-.492c-15.743-1.659-30.74-2.576-42.021-2.639l-.015-.006h-9.964l-.015.006c-11.284.063-26.277.979-42.021 2.639-1.492.156-2.99.32-4.494.492-15.066 1.709-30.532 4.082-43.85 7.027-1.841.405-3.639.822-5.387 1.252-14.478 3.54-25.676 7.81-29.761 12.666-.869 1.038-1.415 2.1-1.599 3.19-.031.179-.066.353-.077.533-.096 1.54.527 2.983 1.705 4.332 5.068 5.801 20.592 9.854 35.177 12.482l2.699-5.904.841-1.837c-2.069-4.416.429-8.227 6.19-11.417a35.946 35.946 0 0 1 2.172-1.103 53.477 53.477 0 0 1 4.574-1.867c8.444-3.016 20.228-5.294 33.716-6.827a349.91 349.91 0 0 1 4.5-.479c4.585-.451 9.34-.817 14.2-1.105.353-.021.708-.038 1.062-.058a437.73 437.73 0 0 1 23.383-.674c.655 0 1.311-.007 1.966-.003.655-.004 1.308.003 1.963.003 7.894.02 15.763.245 23.381.674.354.02.714.037 1.065.058 4.861.288 9.613.654 14.198 1.105 1.522.15 3.019.312 4.502.479 13.486 1.533 25.273 3.812 33.716 6.827a53.477 53.477 0 0 1 4.574 1.867c.765.36 1.496.726 2.175 1.103 5.758 3.19 8.256 7.001 6.188 11.417l.839 1.837 2.7 5.904c14.587-2.628 30.109-6.682 35.176-12.482 1.179-1.349 1.804-2.792 1.708-4.332-.01-.181-.044-.354-.075-.533" style="stroke:#fff;stroke-width:13.2283;stroke-miterlimit:0;stroke-dasharray:none;stroke-opacity:1" transform="matrix(.99969 0 0 .99969 12.657 12.48)"/><path fill="#cf0a2c" d="m263.611 698.051 3.924-6.397 1.902 1.165 11.765-19.187-1.902-1.164 3.92-6.397 18.054 11.067c2.262 1.384 2.966 4.394 1.567 6.678l-4.903 7.995c-1.062 1.733-2.999 2.555-4.888 2.285a4.867 4.867 0 0 1 .184 5.39l-4.903 7.995c-1.4 2.284-4.404 3.021-6.666 1.637zm19.125 2.92 3.92-6.397-6.331-3.876-3.923 6.392zm7.845-12.789 3.92-6.402-6.333-3.877-3.922 6.392zm11.34 30.32 2.349-7.128 2.117.692 11.578-19.89-2.066-.681 2.345-7.129 18.699 6.149-2.348 7.129-2.117-.697-2.754 22.798 2.065.681-2.348 7.129-8.469-2.791 1.089-7.539-8.015-2.634-3.657 6.69zm21.278-8.805 2.224-15.067-.352-.118-7.367 13.379zm21.385 16.547 1.091-5.137 8.386-.135-.939 4.405 5.813 1.232 1.328-6.234-9.909-6.988a4.827 4.827 0 0 1-1.982-4.968l1.982-9.328c.558-2.622 3.145-4.321 5.741-3.77l12.349 2.633c2.6.546 4.271 3.145 3.713 5.772l-1.094 5.137-8.383.137.937-4.406-5.813-1.237-1.095 5.143 9.91 6.982a4.813 4.813 0 0 1 1.982 4.968l-2.215 10.426c-.556 2.627-3.142 4.321-5.738 3.77l-12.353-2.628c-2.595-.552-4.266-3.152-3.711-5.774m39.015 4.873 3.123-22.286-2.207-.31 1.044-7.432 22.806 3.196-1.25 8.917-8.095-1.136.21-1.486-4.416-.618-1.04 7.433 8.357 1.169-2.725 7.197-6.673-.94-1.039 7.432 4.414.619.206-1.485 8.093 1.131-1.251 8.912-22.806-3.19 1.042-7.427zm34.349 11.967.616-7.472 2.221.18 1.85-22.432-2.221-.181.616-7.478 21.104 1.733c2.644.219 4.632 2.588 4.409 5.261l-.768 9.345c-.167 2.031-1.528 3.635-3.334 4.242 1.683.896 2.76 2.701 2.593 4.732l-.77 9.346c-.221 2.672-2.571 4.681-5.213 4.461zm18.387-6.015.618-7.472-7.404-.607-.619 7.472zm1.234-14.949.616-7.483-7.402-.607-.616 7.483zm19.452 23.861.245-7.494 2.227.067 5.505-22.342-2.174-.068.242-7.5 19.679.637-.242 7.5-2.228-.073 3.78 22.64 2.173.068-.242 7.5-8.914-.287-1.081-7.539-8.434-.276-1.623 7.455zm17.938-14.431-2.111-15.084-.372-.012-3.298 14.91z" style="stroke:#fff;stroke-width:21.5433;stroke-linejoin:round;stroke-miterlimit:0;stroke-dasharray:none;stroke-opacity:1" transform="matrix(.99969 0 0 .99969 12.657 12.48)"/><path fill="#cf0a2c" d="m498.726 746.988-.073-7.499 2.225-.022-.225-22.512-2.231.028-.076-7.505 12.632-.129.076 7.505-2.232.023.229 22.499 4.459-.039-.021-1.66 8.179-.09.093 9.166z" style="stroke:#fff;stroke-width:21.5433;stroke-miterlimit:0;stroke-dasharray:none;stroke-opacity:1" transform="matrix(.99969 0 0 .99969 12.657 12.48)"/><path fill="#cf0a2c" d="m536.35 746.303-.403-7.494 2.229-.124-1.21-22.467-2.226.118-.404-7.494 12.613-.669.403 7.488-2.225.118 1.207 22.478 4.45-.236-.087-1.661 8.161-.438.49 9.154z" style="stroke:#fff;stroke-width:21.5433;stroke-linejoin:round;stroke-miterlimit:0;stroke-dasharray:none;stroke-opacity:1" transform="matrix(.99969 0 0 .99969 12.657 12.48)"/><path fill="#cf0a2c" d="m599.19 736.411-3.93-27.479c-.383-2.649 1.46-5.131 4.087-5.508l13.236-1.896c2.628-.371 5.092 1.491 5.472 4.146l1.061 7.428-7.823 3.01-.953-6.679-6.62.945 3.188 22.274 6.619-.945-.956-6.684 7.823-3.01 1.593 11.135c.382 2.655-1.463 5.131-4.088 5.514l-13.236 1.891c-2.628.377-5.093-1.491-5.473-4.142m38.552-1.074-1.595-7.331 2.178-.473-4.788-21.994-2.181.467-1.597-7.331 12.342-2.678 1.597 7.331-2.177.473 4.788 21.993 4.355-.945-.352-1.62 7.984-1.745 1.949 8.963z" style="fill:#000;stroke:#fff;stroke-width:21.5433;stroke-linejoin:round;stroke-miterlimit:0;stroke-dasharray:none;stroke-opacity:1" transform="matrix(.99969 0 0 .99969 12.657 12.48)"/><path fill="#cf0a2c" d="m676.557 721.04-8.167-23.771-2.11.726-2.438-7.095 11.947-4.107 2.439 7.101-2.11.726 7.314 21.285 6.676-2.29-7.314-21.29-2.107.726-2.438-7.101 11.947-4.096 2.437 7.089-2.107.726 8.167 23.771c.869 2.538-.473 5.323-2.985 6.184l-12.996 4.462c-2.516.858-5.284-.509-6.155-3.046m44.034-11.883-4.22-6.206 1.849-1.255-12.662-18.617-1.843 1.249-4.22-6.206 17.515-11.899c2.197-1.491 5.229-.9 6.737 1.316l5.275 7.764a4.864 4.864 0 0 1 .07 5.391 4.887 4.887 0 0 1 4.99 2.054l5.274 7.759c1.508 2.217.945 5.261-1.252 6.752zm2.091-28.643-4.218-6.206-6.146 4.175 4.223 6.205zm8.439 12.417-4.22-6.212-6.145 4.181 4.22 6.206z" style="fill:#000;stroke:#fff;stroke-width:21.5433;stroke-miterlimit:0;stroke-dasharray:none;stroke-opacity:1" transform="matrix(.99969 0 0 .99969 12.657 12.48)"/><path fill="#cf0a2c" d="M592.462 219.073c7.325-15.66-42.448-23.735-92.326-23.608v-.003c-.113 0-.228.003-.344 0-.115.003-.23 0-.346 0v.003c-49.876-.127-99.649 7.948-92.323 23.608 0 0-158.284 354.753-158.284 373.798 0 53.957 111.009 97.696 247.946 97.696 136.94 0 254.433-43.739 254.433-97.696 0-15.349-158.756-373.798-158.756-373.798" style="stroke:#fff;stroke-width:25.3228;stroke-miterlimit:0;stroke-dasharray:none;stroke-opacity:1" transform="matrix(.99969 0 0 .99969 12.657 12.48)"/><path fill="#fff" d="M455.646 337.973v-.23c0-13.989-9.159-19.838-25.385-24.08-13.84-3.556-17.273-5.287-17.273-10.555v-.245c0-3.897 3.532-6.998 10.299-6.998 6.743 0 13.711 2.977 20.806 7.934l9.159-13.317c-8.124-6.527-18.076-10.209-29.75-10.209-16.339 0-28 9.645-28 24.21v.227c0 15.945 10.391 20.434 26.531 24.557 13.37 3.447 16.111 5.751 16.111 10.203v.232c0 4.707-4.352 7.574-11.545 7.574-9.147 0-16.693-3.791-23.898-9.743l-10.417 12.497c9.61 8.593 21.856 12.853 33.967 12.853 17.273-.002 29.395-8.948 29.395-24.91m9.776-33.492v.227c0 15.945 10.429 20.434 26.537 24.557 13.378 3.447 16.127 5.751 16.127 10.203v.232c0 4.707-4.353 7.571-11.559 7.571-9.16 0-16.685-3.789-23.892-9.74l-10.405 12.496c9.61 8.594 21.853 12.854 33.975 12.854 17.259 0 29.38-8.946 29.38-24.908v-.23c0-13.989-9.153-19.838-25.4-24.08-13.827-3.556-17.267-5.287-17.267-10.555v-.245c0-3.897 3.562-6.998 10.299-6.998 6.735 0 13.723 2.977 20.82 7.934l9.138-13.317c-8.107-6.527-18.05-10.209-29.736-10.209-16.345-.002-28.017 9.643-28.017 24.208m142.481 43.97v-33.975h-33.567v15.677h16.39v11.088c-4.585 3.261-10.251 5.254-16.39 5.254-13.34 0-24.177-11.586-24.177-24.929 0-13.359 10.837-24.176 24.177-24.176a24.1 24.1 0 0 1 17.104 7.081l12.119-12.103c-7.486-7.487-17.815-12.104-29.224-12.104-22.807 0-41.303 18.491-41.303 41.301 0 22.809 18.496 41.309 41.303 41.309 13.372.001 25.421-5.591 33.568-14.423" style="stroke:#fff;stroke-width:13.2283;stroke-miterlimit:0;stroke-dasharray:none;stroke-opacity:1" transform="matrix(.99969 0 0 .99969 12.657 12.48)"/><path fill="#cf0a2c" d="M1000 426.01c0-19.006-15.462-34.468-34.468-34.468h-77.726a34.39 34.39 0 0 0-32.926 24.29c-5.941-14.494-20.227-24.29-36.132-24.29H197.79c-26.384 0-47.845 21.465-47.845 47.853v44.972l-54.14 24.88v-81.543L72.05 391.542H0V607.68l24.422 29.111h933.931l32.022-39.723c5.952-6.2 9.624-14.606 9.624-23.855V426.01Z" style="stroke:#fff;stroke-width:25.3228;stroke-linejoin:round;stroke-miterlimit:0;stroke-dasharray:none;stroke-opacity:1" transform="matrix(.99969 0 0 .99969 12.657 12.48)"/><path fill="#fff" d="M57.41 405.631V553.34h37.899v-28.778l44.437-20.424v90.016H12.97V405.631Zm322.894 188.523V458.086c0-6.308-5.209-11.642-11.757-11.642h-18.983v147.71h-44.441V405.631h93.815c4.167 0 11.662 1.019 18.362 7.928 5.932 6.115 6.871 13.256 6.871 17.301v163.295h-43.867zm306.68-115.02v41.787l-52.997-.36v32.779h66.949v40.814H589.547V405.631h111.389v41.05l-66.949-.242v33.055zm-145.836-73.503h-93.813v188.523h93.813c13.938 0 25.234-11.298 25.234-25.234V430.859c.001-13.936-11.296-25.228-25.234-25.228M491.774 553.34V446.444h18.72c7.021 0 11.644 5.334 11.644 11.642v84.041c0 6.307-5.534 11.213-11.644 11.213zm351.373-122.481c0-13.937-11.298-25.234-25.234-25.234h-93.814v188.529h44.44v-46.992l14.938-8.507 15.833 8.496v47.003h43.838v-64.67l-21.957-13.863 21.957-13.869v-70.893zm-43.837 54.874-30.771 16.396V446.44h19.127c7.021 0 11.644 5.339 11.644 11.646zm186.049-3.117v-56.331c0-11.41-9.249-20.66-20.659-20.66h-77.729c-11.41 0-20.66 9.25-20.66 20.66v72.327l74.608 32.549v14.544c0 5.947-5.43 7.635-7.533 7.635h-15.58c-2.23 0-7.533-1.75-7.533-7.635v-8.423l-43.962-18.55v54.762c0 11.41 9.25 20.66 20.66 20.66H964.7c11.41 0 20.659-9.25 20.659-20.66V502.81l-74.608-32.549V453.63c.302-5.385 4.634-7.19 7.495-7.19h16.484c2.625 0 6.369.72 6.369 6.425v9.796zm-788.405-76.985c-18.801 0-34.042 15.236-34.042 34.039v154.484h44.441v-35.52l30.374-16.693v52.212h44.233V405.631Zm40.773 90.77-30.374 16.396v-54.711c0-6.308 5.033-11.642 11.644-11.642h18.73z" style="stroke:#fff;stroke-width:13.2283;stroke-miterlimit:0;stroke-dasharray:none;stroke-opacity:1" transform="matrix(.99969 0 0 .99969 12.657 12.48)"/><path fill="#cf0a2c" d="m649.414 383.694-34.686-127.641c42.885-3.673 79.694-9.555 106.815-17.1 25.281-7.04 63.85-19.388 55.674-47.866-11.648-40.572-95.442-63.624-151.093-74.604-17.283-33.272-57.22-56.638-102.708-60.05-.204-.018-.416-.03-.62-.045l-5.649-19.991-.793-2.592a11.074 11.074 0 0 0-4.636-21.148 11.07 11.07 0 0 0-4.636 21.144l-.794 2.592-5.675 20.169c-.295.026-1.606.053-1.904.075-44.46 4.062-83.268 27.178-100.24 59.85-55.649 10.98-139.446 34.028-151.09 74.6-8.177 28.478 30.393 40.826 55.674 47.865 26.668 7.425 62.706 13.232 104.676 16.916l-43.115 127.826z" style="stroke-width:3.77839"/><path fill="#cf0a2c" d="M685.134 213.255c1.712 2.203 2.581 4.527 2.343 6.956-.43 4.243-4.25 8.823-12.914 13.7 20.191-3.264 41.086-8.55 44.105-17.02a6.385 6.385 0 0 0 .075-4.112c-.812-2.671-4.447-5.426-10.307-7.999a73.23 73.23 0 0 0-5.74-2.214c-13.564-4.659-34.572-8.358-58.867-9.219 13.822 4.103 29.797 9.71 38.067 16.625 1.274 1.062 2.366 2.154 3.242 3.283" style="stroke-width:3.77839"/><path fill="#eb776e" d="M366.707 222.252a1040.84 1040.84 0 0 1-22.693-7.202c-13.428-4.458-26.91-9.317-37.984-14.112-10.213-4.421-18.382-8.777-22.61-12.714-4.48 1.447-8.46 2.947-11.887 4.496a67.744 67.744 0 0 0-4.054 2.002c-5.645 3.382-7.9 9.597-2.282 15.68 10.848 9.175 32.604 15.235 41.706 17.77 20.192 5.619 46.104 10.315 76.055 13.83-13.772-5.717-18.896-12.723-16.247-19.75m395.12-24.39a11.898 11.898 0 0 0-2.708-2.728c-4.655-2.596-10.788-5.063-18.261-7.375-5.2 5.184-17.505 11.146-32.426 17.021 5.856 2.57 9.495 5.328 10.307 7.992.442 1.454.386 2.822-.075 4.118-3.023 8.471-23.914 13.753-44.106 17.022 8.66-4.882 12.484-9.458 12.911-13.704.246-2.43-.627-4.75-2.339-6.956a903.268 903.268 0 0 1-28.466 9.128c2.592 7.153-2.86 14.267-17.282 20.018 31.443-3.552 58.61-8.388 79.584-14.23 8.18-2.278 26.55-7.394 38.075-15.056 7.235-5.23 7.738-11.086 4.787-15.25m-107.25 20.77a929.105 929.105 0 0 0 27.314-8.66c-8.27-6.91-24.246-12.522-38.07-16.625 24.298.865 45.302 4.564 58.87 9.22 20.404-7.777 29.434-13.063 33.44-16.195-19.754-5.554-47.476-10.156-81.13-13.534-3.307 3.46-19.081 15.627-34.962 27.609 17.796 5.172 29.547 11.588 34.538 18.185m-140.748-52.104c.038.151.094.302.094.472v21.118h2.724c8.064 0 26.041.234 46.04 2.01l11.516-22.538c-19.22-.68-39.408-1.047-60.374-1.058m65.026 1.228-11.645 22.795c4.602.46 9.28.997 13.934 1.64 9.635 1.33 17.982 2.924 25.138 4.787a224.69 224.69 0 0 1 8.596 2.051c14.974-11.278 28.844-21.914 34.534-26.735-21.423-2.026-45.102-3.56-70.557-4.534m-120.856 16.292 1.047 2.044 2.305 4.515a467.7 467.7 0 0 1 15.593-1.02c11.335-.94 22.096-1.477 30.98-1.477h1.779v-21.121c0-.163.056-.31.094-.469-20.902.023-41.044.397-60.197 1.088zm257.886-12.423c-27.642-15.038-69.84-25.221-69.84-25.221l14.068 9.215c-20.373 0-48.503 3.235-48.503 3.235s66.121 4.364 104.275 12.77m-329.078 15.9c-8.747-6.76-15.68-12.31-17.89-14.573-33.655 3.442-61.267 8.15-80.737 13.806 3.521 2.634 10.398 6.646 23.823 12.193 8.603 3.56 19.893 7.746 34.715 12.612a963.507 963.507 0 0 0 20.596 6.488l1.515.457.322-.39c5.233-6.46 16.938-12.721 34.47-17.78a1796.15 1796.15 0 0 1-16.814-12.81m66.488-3.407-8.342-16.338c-25.436.997-49.09 2.558-70.437 4.613 3.608 3.053 10.368 8.343 18.563 14.615 2.819 2.161 5.808 4.432 8.898 6.779l6.813 5.15c13.209-3.42 29.293-6.182 48.023-7.935l-2.267-4.451z" style="stroke-width:3.77839"/><path fill="#cf0a2c" d="M681.896 209.972c-7.953 2.667-17.002 5.554-27.314 8.66-4.987-6.597-16.738-13.013-34.542-18.185 15.885-11.982 31.663-24.144 34.962-27.61a1145.833 1145.833 0 0 0-5.588-.543c-5.69 4.825-19.557 15.461-34.535 26.74a224.357 224.357 0 0 0-8.592-2.052c-7.156-1.863-15.506-3.457-25.137-4.787a374.956 374.956 0 0 0-13.935-1.64l11.645-22.791a620.11 620.11 0 0 0-4.659-.174l-11.516 22.538c-19.996-1.776-37.973-2.01-46.033-2.01h-2.724v-21.121c0-.163-.06-.314-.098-.469h-4.028c-.038.151-.098.302-.098.469v21.12h-1.776c-8.883 0-19.648.533-30.983 1.474a467.92 467.92 0 0 0-15.59 1.024l-2.304-4.515-1.047-2.048-8.403-16.436c-1.557.057-3.106.114-4.647.178l8.342 16.334 1.247 2.437 2.275 4.45c-18.733 1.746-34.818 4.512-48.024 7.928-2.308-1.738-4.586-3.461-6.816-5.146-3.09-2.343-6.08-4.618-8.898-6.775-8.199-6.276-14.95-11.562-18.567-14.615-1.881.182-3.748.363-5.592.552 2.207 2.267 9.144 7.814 17.887 14.577a1777.78 1777.78 0 0 0 16.814 12.812c-17.532 5.06-29.237 11.32-34.47 17.778l-.318.393c-.506-.152-1.012-.303-1.511-.458a962.94 962.94 0 0 1-20.604-6.49c-14.818-4.867-26.108-9.054-34.712-12.61-13.424-5.55-20.3-9.559-23.822-12.192-1.651.48-3.235.963-4.769 1.458 4.232 3.934 12.401 8.294 22.61 12.715 11.079 4.794 24.556 9.653 37.984 14.108a1007.05 1007.05 0 0 0 22.697 7.202c-2.645 7.031 2.479 14.036 16.247 19.753a933.636 933.636 0 0 0 30.696 3.06l.026-.064 2.72-5.936c-14.584-2.633-30.102-6.687-35.168-12.483-1.176-1.35-1.799-2.793-1.705-4.334.012-.178.046-.352.076-.53.19-1.091.733-2.153 1.602-3.188 4.08-4.855 15.276-9.125 29.751-12.661 1.75-.431 3.544-.847 5.388-1.255 13.311-2.943 28.773-5.316 43.833-7.024 1.504-.17 3.004-.336 4.496-.491 16.323-1.723 31.852-2.645 43.26-2.645h8.724a536.115 536.115 0 0 1 47.464 2.173c15.812 1.473 31.617 3.83 44.063 7.447 1.723.499 3.386 1.02 4.965 1.568 10.152 3.518 17.297 8.067 19.119 13.904.415 1.334.555 2.736.381 4.213-.049.465-.151.918-.302 1.36-.435 1.315-1.27 2.532-2.41 3.677-4.323 4.307-13.15 7.428-22.297 9.623l2.55 6.065.303.718a931.244 931.243 0 0 0 28.9-2.8c14.423-5.75 19.875-12.866 17.283-20.018a904.326 904.326 0 0 0 28.466-9.125 21.548 21.548 0 0 0-3.242-3.287m20.8-7.406a74.884 74.884 0 0 1 5.744 2.214c14.92-5.875 27.223-11.837 32.422-17.017a193.552 193.552 0 0 0-4.727-1.39c-4.005 3.131-13.035 8.417-33.439 16.193" style="stroke-width:3.77839"/><path fill="#fff" d="M353.533 220.742c-16.221-5.574-23.21-11.085-22.582-16.337a6.098 6.098 0 0 1 .5-1.774c.531-1.176 1.438-2.336 2.711-3.479 6.888-6.188 24.4-11.889 49.643-16.737 1.836-.352 3.716-.7 5.635-1.042 15.211-2.729 32.922-5.159 52.579-7.234 1.493-.154 2.994-.311 4.505-.464 7.053-.713 14.329-1.383 21.828-1.999a736.535 736.535 0 0 0-22.873-.046c-1.559.021-3.125.04-4.707.07-19.295.342-40.167 1.33-60.233 2.895-2.101.163-4.195.336-6.275.512-30.161 2.562-57.884 6.445-74.825 11.432a86.862 86.862 0 0 0-5.984 1.979c-6.217 2.336-10.118 4.879-10.949 7.619-.068.212-.082.418-.124.627-3.171 15.082 46.725 21.423 71.151 23.978" clip-path="url(#b)" opacity="0.3" transform="translate(3.35 3.303) scale(.26458)"/><path fill="#cda772" d="M516.52 33.892a11.278 11.278 0 0 0 6.416-10.15 11.267 11.267 0 0 0-11.252-11.251 11.263 11.263 0 0 0-11.252 11.252 11.297 11.297 0 0 0 6.412 10.152l-6.949 22.618-.072.238.25-.023a154.037 154.037 0 0 1 12.639-.57h.087c3.362.01 6.876.143 10.443.4l.246.015z" style="stroke-width:3.77839"/><path fill="#ab6c22" d="m517.11 36.397-.794-2.596a11.018 11.018 0 0 1-9.268 0l-.794 2.596a11.067 11.067 0 0 0 10.856 0" style="stroke-width:3.77839"/><path fill="#fff" d="M508.196 16.957c-.056-.027-.113-.038-.173-.057-1.04-.381-2.626.695-3.654 2.532-1.085 1.946-1.126 3.986-.095 4.56.613.344 1.463.083 2.283-.582a6.612 6.612 0 0 0 1.549-1.893c1.08-1.942 1.126-3.986.09-4.56" style="stroke-width:3.77839"/><path fill="#fcd789" d="M462.727 78.575c-3.627 1.59-8.475 4.054-14.622 15.657 5.875-10.379 10.198-13.394 14.622-15.657m-3.204 34.103A740.17 740.17 0 0 1 513 111.144c3.578-1.945 4.48-4.734 2.082-8.09 9.767 1.32 26.494 3.855 28.428-5.028 2.256-10.35-14.69-23.645-28.867-27.798a35.755 35.755 0 0 0-2.346-.608 77.15 77.15 0 0 0-15.892.17c-.514.064-1.028.102-1.545.174-3.658.48-7.164 1.05-10.716 1.806-2.237 1.273-18.986 11.724-24.62 40.908" style="stroke-width:3.77839"/><path fill="#f6b100" d="M543.51 98.026c-1.935 8.883-18.666 6.348-28.43 5.029 2.4 3.355 1.493 6.144-2.077 8.09 22.908.154 43.972 1.197 62.097 2.554-2.645-16.323-26.849-38.646-57.847-43.47a83.087 83.087 0 0 0-4.953-.609c.767.174 1.549.378 2.339.605 14.18 4.156 31.126 17.456 28.87 27.8m-95.665-12.763c-12.098 6.768-22.474 15.375-30.287 25.384a82.27 82.27 0 0 0-4.565 6.48 737.023 737.023 0 0 1 26.264-2.864c.892-1.905 1.651-3.567 1.908-4.38.234.023.461.072.7.072a7.043 7.043 0 0 0 7.038-7.039c0-2.184-1.02-4.115-2.584-5.407a109.204 109.204 0 0 1 1.783-3.276c6.151-11.603 11.003-14.067 14.623-15.657 1.027-.522 2.063-1.01 3.117-1.538a124.808 124.808 0 0 0-17.997 8.225" style="stroke-width:3.77839"/><path d="M484.142 71.773a134.737 134.737 0 0 0-18.298 5.264c-1.058.53-2.092 1.016-3.116 1.537.873-.382 1.674-.715 2.407-1.113-.73.398-1.532.732-2.405 1.117-4.428 2.26-8.746 5.275-14.629 15.658v-.004l-.17.323c-.526.933-1.057 1.892-1.613 2.953 1.564 1.292 2.58 3.22 2.58 5.404a7.036 7.036 0 0 1-7.035 7.043c-.238 0-.465-.05-.699-.072-.257.812-1.02 2.474-1.908 4.379l2.92-.264h.006a769.3 769.3 0 0 1 17.341-1.316c5.63-29.185 22.383-39.635 24.62-40.909z" style="fill:#fff;stroke-width:3.77839"/><path fill="#e393a7" d="M436.887 153.273c.537-2.002 5.203-3.362 7.04-3.517l-18.651-4.927c17.947 1.405 36.216 1.73 54.19.703 3.816-.22 27.79-2.01 23.573-9.862-3.809-7.085-30.446-14.494-108.576-5.278a695.344 695.344 0 0 0-19.935 4.409c-17.104 5.063-37.262 13.202-50.15 25.614-3.234 3.098-7.436 6.937-3.805 10.405a589.406 589.406 0 0 1 21.148-3.227c26.501-3.581 58.172-6.219 92.733-7.794a1285.44 1285.44 0 0 0 9.177-.779h.02c6.09-.54 6.09-.54 0 0-3.783-1.13-7.5-2.992-6.764-5.743" style="stroke-width:3.77839"/><path fill="#d54c79" d="M403.154 128.638c-.783.151-1.259.25-1.259.25l-.468.09.468-.09 1.255-.25" style="stroke-width:3.77839"/><path fill="#d54c79" d="M489.535 120.216c-34.111.764-61.335 4.111-78.692 6.907a748.415 748.415 0 0 0-7.69 1.512l-1.258.253-.468.09c-2.37.469-4.674.937-6.964 1.414 78.13-9.22 104.771-1.807 108.572 5.278 4.22 7.851-19.75 9.642-23.57 9.862-17.973 1.027-36.242.702-54.189-.703l18.65 4.927c-1.836.155-6.502 1.515-7.039 3.517-.737 2.759 2.981 4.618 6.76 5.751a859.128 859.128 0 0 0 17.006-1.677 644.668 644.668 0 0 0 9.952-1.16 495.346 495.346 0 0 0 12.922-1.78 331.629 331.629 0 0 0 10.587-1.81 188.75 188.75 0 0 0 5.808-1.198c.891-.2 1.734-.396 2.543-.597 4.039-.99 7.08-1.964 9.204-2.89 5.516-2.418 4.81-4.538-.87-5.955 16.803-.325 35.438-1.946 46.021-4.802.96-.26 1.852-.53 2.676-.809 3.287-1.118 5.388-2.395 5.83-3.835.17-.555.264-1.096.241-1.64a3.801 3.801 0 0 0-.748-2.017c-.566-.752-1.492-1.481-2.901-2.184a26.913 26.913 0 0 0-4.39-1.621l-.866-.234a60.152 60.152 0 0 0-4.009-.915 108.904 108.904 0 0 0-6.714-1.1c-.28-.04-.586-.075-.87-.113-1.099-.147-2.228-.287-3.438-.427l-.457-.049c-.62-.071-1.247-.136-1.9-.207a34.723 34.723 0 0 0-.454-.046c-.668-.064-1.345-.136-2.044-.2l-1.039-.095-1.606-.147c-2.43-.113-4.836-.227-7.186-.317a1268.57 1268.57 0 0 0-37.41-.983m-148.657 23.69c-1.73.537-16.164 4.886-25.93 9.114-12.016 4.818-21.477 9.605-28.91 14.18a104.22 104.22 0 0 0-10.775 7.53 77.117 77.117 0 0 0-2.834 2.381c-3.926 3.476-6.718 6.703-8.713 9.586a20.05 20.05 0 0 0-.544.801 80.204 80.204 0 0 1 7.542-3.646c2.04-.862 4.231-1.7 6.551-2.52a151.049 151.049 0 0 1 6.008-1.988c.593-.189 1.202-.366 1.81-.548a216.38 216.38 0 0 1 9.79-2.678s9.986-2.317 14.954-3.299c1.164-.234 2.35-.472 3.564-.703l.272-.053c2.153-.412 4.42-.82 6.914-1.243-3.635-3.465.567-7.3 3.797-10.41 12.892-12.407 33.05-20.546 50.155-25.61-12.526 2.974-23.69 6.024-33.65 9.107" style="stroke-width:3.77839"/><path fill="#f6b100" d="M644.34 221.715c-.186-1.092-.73-2.154-1.599-3.189-4.084-4.855-15.276-9.125-29.751-12.661-1.75-.431-3.548-.847-5.388-1.255-13.311-2.943-28.772-5.316-43.84-7.024-1.497-.17-3-.336-4.486-.49-15.74-1.66-30.733-2.578-42.008-2.638l-.015-.008h-9.967l-.015.008c-11.279.06-26.268.978-42.008 2.637-1.489.155-2.985.321-4.493.491-15.06 1.708-30.522 4.081-43.837 7.028-1.84.404-3.638.82-5.384 1.247-14.471 3.54-25.666 7.81-29.75 12.665-.87 1.04-1.418 2.1-1.6 3.19-.033.177-.067.35-.075.528-.098 1.542.526 2.985 1.7 4.334 5.067 5.8 20.589 9.85 35.17 12.48l2.698-5.902.838-1.836c-2.066-4.417.431-8.226 6.19-11.415.68-.378 1.405-.744 2.172-1.103a53.464 53.464 0 0 1 4.572-1.867c8.44-3.015 20.222-5.29 33.703-6.823a349.803 349.803 0 0 1 4.5-.48 367.667 367.667 0 0 1 14.195-1.103l1.062-.06a438.572 438.572 0 0 1 23.377-.673c.654 0 1.311-.008 1.965 0 .657-.008 1.307 0 1.965 0 7.889.018 15.755.245 23.373.672l1.065.06a324.775 324.775 0 0 1 18.696 1.587c13.477 1.527 25.262 3.805 33.703 6.82a52.293 52.293 0 0 1 4.572 1.867 36.65 36.65 0 0 1 2.176 1.103c5.754 3.19 8.252 6.998 6.185 11.411l.839 1.84 2.698 5.902c14.584-2.63 30.102-6.68 35.165-12.48 1.18-1.349 1.806-2.792 1.708-4.33-.008-.182-.042-.355-.076-.533" style="stroke-width:3.77839"/><path fill="#cf0a2c" d="m276.188 710.32 3.922-6.396 1.905 1.164 11.758-19.18-1.9-1.163 3.918-6.397 18.05 11.063c2.262 1.387 2.965 4.394 1.567 6.677l-4.904 7.995a4.885 4.885 0 0 1-4.886 2.282 4.87 4.87 0 0 1 .185 5.388l-4.9 7.995a4.874 4.874 0 0 1-6.665 1.636zm19.12 2.918 3.917-6.393-6.329-3.877-3.921 6.39zm7.843-12.786 3.918-6.397-6.332-3.877-3.919 6.386zm11.335 30.314 2.35-7.126 2.116.691 11.573-19.886-2.063-.68 2.343-7.126 18.692 6.148-2.343 7.126-2.116-.7-2.758 22.792 2.067.68-2.347 7.13-8.467-2.792 1.088-7.535-8.01-2.633-3.657 6.688zm21.272-8.804 2.222-15.064-.351-.114-7.364 13.375zm21.379 16.542 1.092-5.139 8.384-.132-.941 4.405 5.811 1.232 1.33-6.234-9.907-6.986a4.825 4.825 0 0 1-1.983-4.965l1.983-9.325a4.874 4.874 0 0 1 5.74-3.771l12.344 2.633c2.6.544 4.27 3.144 3.714 5.77l-1.096 5.139-8.38.132.937-4.402-5.812-1.24-1.095 5.143 9.907 6.983a4.804 4.804 0 0 1 1.983 4.964l-2.214 10.425a4.867 4.867 0 0 1-5.74 3.767l-12.347-2.626a4.874 4.874 0 0 1-3.71-5.773m50.214-16.278-1.039 7.433 8.354 1.167-2.72 7.194-6.673-.94-1.039 7.431 4.413.62.204-1.485 8.09 1.13-1.247 8.91-22.802-3.19 1.042-7.424 2.207.302 3.12-22.277-2.206-.31 1.043-7.432 22.803 3.197-1.251 8.917-8.093-1.138.211-1.485zm23.128 33.11.616-7.466 2.221.178 1.852-22.425-2.222-.181.616-7.474 21.095 1.73c2.645.22 4.632 2.589 4.41 5.26l-.768 9.344a4.878 4.878 0 0 1-3.332 4.24c1.68.895 2.758 2.701 2.592 4.73l-.771 9.344a4.867 4.867 0 0 1-5.214 4.458zm18.382-6.007.616-7.474-7.402-.604-.616 7.466zm1.231-14.948.616-7.48-7.398-.605-.616 7.481zm19.448 23.853.245-7.492 2.23.068 5.501-22.334-2.173-.068.242-7.5 19.67.638-.241 7.497-2.23-.076 3.779 22.637 2.176.068-.242 7.496-8.913-.287-1.08-7.534-8.43-.276-1.625 7.45zm17.932-14.425-2.108-15.08-.375-.012-3.294 14.906z" style="stroke-width:3.77839"/><path fill="#cf0a2c" d="m513.378 751.714-.225-22.505-2.23.027-.076-7.503 12.628-.129.076 7.503-2.232.023.23 22.492 4.457-.04-.023-1.659 8.177-.09.093 9.163-23.028.236-.073-7.497z" style="stroke-width:.999687;stroke-linejoin:round"/><path fill="#cf0a2c" d="m550.67 750.942-1.21-22.462-2.225.117-.405-7.49 12.613-.668.4 7.481-2.221.121 1.205 22.47 4.447-.234-.087-1.663 8.161-.434.491 9.151-22.995 1.224-.4-7.492zm60.998-2.274-3.93-27.47a4.863 4.863 0 0 1 4.084-5.508l13.232-1.893a4.874 4.874 0 0 1 5.471 4.141l1.058 7.428-7.82 3.008-.95-6.677-6.619.945 3.189 22.266 6.616-.945-.956-6.68 7.821-3.007 1.591 11.13a4.874 4.874 0 0 1-4.084 5.513l-13.232 1.89a4.87 4.87 0 0 1-5.471-4.141m39.12-8.876-4.786-21.99-2.18.468-1.595-7.33 12.337-2.675 1.598 7.33-2.177.473 4.788 21.986 4.352-.944-.351-1.621 7.98-1.742 1.95 8.958-22.497 4.89-1.595-7.33z" style="stroke-width:3.77839"/><path fill="#cf0a2c" d="m689.001 733.292-8.164-23.763-2.11.726-2.437-7.093 11.944-4.106 2.438 7.099-2.11.726 7.312 21.278 6.674-2.29-7.312-21.283-2.106.726-2.437-7.099 11.943-4.094 2.436 7.087-2.106.725 8.164 23.764c.87 2.537-.472 5.321-2.984 6.182l-12.991 4.46c-2.516.858-5.283-.508-6.154-3.045m44.02-11.879-4.218-6.204 1.848-1.254-12.658-18.612-1.842 1.249-4.219-6.204 17.51-11.895c2.196-1.49 5.227-.9 6.735 1.315l5.273 7.762a4.862 4.862 0 0 1 .07 5.39 4.885 4.885 0 0 1 4.988 2.052l5.273 7.757c1.507 2.216.944 5.26-1.252 6.75zm2.09-28.634-4.216-6.204-6.144 4.174 4.222 6.203zm8.437 12.413-4.218-6.21-6.143 4.18 4.218 6.204z" style="stroke-width:.999687;stroke-linejoin:round"/><path fill="#cf0a2c" d="M604.942 231.486c7.323-15.654-42.435-23.728-92.298-23.6v-.004h-.692c-49.86-.125-99.617 7.95-92.294 23.604 0 0-158.24 354.647-158.24 373.682 0 53.944 110.98 97.671 247.874 97.671 136.899 0 254.357-43.727 254.357-97.67 0-15.341-158.707-373.683-158.707-373.683" style="stroke-width:3.77839"/><path fill="#fff" d="M468.164 350.35v-.226c0-13.988-9.155-19.837-25.375-24.076-13.837-3.556-17.267-5.286-17.267-10.553v-.246c0-3.892 3.529-6.994 10.296-6.994 6.74 0 13.704 2.978 20.8 7.935l9.155-13.315c-8.124-6.525-18.072-10.21-29.74-10.21-16.334 0-27.994 9.643-27.994 24.205v.227c0 15.94 10.39 20.43 26.524 24.548 13.364 3.446 16.108 5.75 16.108 10.201v.23c0 4.709-4.353 7.573-11.543 7.573-9.144 0-16.69-3.79-23.891-9.737l-10.413 12.491c9.604 8.592 21.85 12.847 33.956 12.847 17.267 0 29.384-8.944 29.384-24.9m9.775-33.484v.227c0 15.945 10.428 20.43 26.528 24.552 13.376 3.446 16.123 5.75 16.123 10.201v.227c0 4.708-4.353 7.572-11.555 7.572-9.159 0-16.681-3.786-23.887-9.737L474.746 362.4c9.609 8.593 21.847 12.85 33.968 12.85 17.252 0 29.37-8.943 29.37-24.899v-.227c0-13.987-9.152-19.836-25.391-24.075-13.825-3.556-17.264-5.286-17.264-10.553v-.246c0-3.892 3.56-6.994 10.296-6.994 6.733 0 13.716 2.978 20.816 7.935l9.132-13.315c-8.105-6.525-18.042-10.21-29.725-10.21-16.341 0-28.009 9.643-28.009 24.201m142.438 43.958V326.86H586.82v15.673h16.383v11.086a28.236 28.236 0 0 1-16.383 5.251c-13.338 0-24.17-11.584-24.17-24.922a24.174 24.174 0 0 1 41.267-17.09l12.117-12.098a41.173 41.173 0 0 0-29.218-12.102c-22.799 0-41.29 18.484-41.29 41.29 0 22.803 18.491 41.298 41.29 41.298 13.368 0 25.413-5.592 33.56-14.422" style="stroke-width:3.77839"/><path fill="#cf0a2c" d="M1012.354 438.36c0-19.001-15.454-34.459-34.459-34.459H900.2a34.383 34.383 0 0 0-32.917 24.284c-5.94-14.49-20.222-24.284-36.122-24.284H210.388c-26.373 0-47.834 21.461-47.834 47.838v44.963l-54.122 24.87v-81.52l-23.747-36.15H12.657v216.074l24.416 29.1H970.72l32.014-39.71a34.346 34.346 0 0 0 9.62-23.845z" style="stroke-width:3.77839"/><path fill="#fff" d="M152.36 516.467v89.986H25.624V417.987H70.05V565.65h37.886v-28.769zm240.486 89.986V470.427c0-6.31-5.207-11.637-11.75-11.637h-18.98v147.663h-44.43V417.987h93.788c4.167 0 11.66 1.02 18.359 7.927 5.932 6.114 6.869 13.251 6.869 17.294v163.245Zm306.59-114.984v41.774l-52.985-.36v32.767h66.93v40.807H602.026V417.99h111.357v41.033l-66.93-.242v33.046zm-145.793-73.482h-93.787v188.466h93.787a25.225 25.224 0 0 0 25.224-25.225V443.204a25.22 25.22 0 0 0-25.224-25.22m-49.361 147.662v-106.86h18.714c7.02 0 11.642 5.328 11.642 11.638v84.016c0 6.302-5.532 11.206-11.638 11.206zm351.269-122.438a25.225 25.224 0 0 0-25.228-25.225h-93.784v188.47h44.427v-46.977l14.932-8.505 15.831 8.494v46.988h43.822v-64.648l-21.952-13.86 21.952-13.866zm-43.826 54.858-30.76 16.39v-55.674h19.12c7.02 0 11.64 5.34 11.64 11.645zm185.995-3.117v-56.313a20.653 20.653 0 0 0-20.652-20.653H899.36a20.653 20.653 0 0 0-20.656 20.653v72.303l74.585 32.54v14.539c0 5.947-5.426 7.632-7.53 7.632h-15.575c-2.229 0-7.53-1.75-7.53-7.632V549.6l-43.95-18.545V585.8a20.653 20.653 0 0 0 20.656 20.653h77.707A20.653 20.653 0 0 0 997.72 585.8v-70.663l-74.585-32.54v-16.624c.302-5.385 4.632-7.19 7.492-7.19h16.478c2.626 0 6.367.721 6.367 6.423v9.793zm-788.17-76.962a34.028 34.028 0 0 0-34.03 34.028v154.438h44.427v-35.51l30.367-16.688v52.194h44.219V417.987Zm40.764 90.742-30.367 16.39v-54.692a11.6 11.6 0 0 1 11.641-11.637h18.722z" style="stroke-width:3.77839"/><path d="m617.154 763.611-43.864 4.387 3.749-15.106-2.354-8.777-9.016-5.207v-18.522l-10.568-10.568 52.603-8.444 5.516 1.84-.608 6.132-9.816 7.972-.612 14.109 2.456 16.56zm-307.52-93.515 1.84 9.812 9.813 7.973 2.456 7.36 12.265-4.908 14.717 5.52 6.136 9.2 9.812-6.132 15.333 3.68 9.2 7.36 11.653-4.907 16.557 4.292 14.146 8.622 4.254-8.01 22.693 3.068 7.36 8.588 11.041-9.2 14.105 1.228 9.812 7.356 10.429-7.356h9.812l7.36 12.265-1.84 13.492 12.877 8.588 3.068-9.816-4.908-12.264 5.422-5.592 4.39-14.033-66.235 3.064-52.134-4.292-40.478-6.133-38.637-12.268zm303.59 33.118 25.61-7.119 25.523-6.382 20.74-8.505 24.99-8.509 13.296-6.381 4.254 5.849-16.889 18.23 1.999 13.142 14.875 11.678-7.964 5.872-5.85-2.127-3.721-12.763-7.047-13.062-28.047 2.958-5.849 10.104 8.8 4.658.771 21.397-15.423-6.914s-.688-3.102-6.537-8.955c3.722 3.726 6.008-5.403 6.008-5.403l-7.606-3.707-8.35-6.925-5.85 3.721-4.583 5.275z" style="fill:#fff;fill-opacity:1;stroke-width:3.77839"/></svg>