<?xml version="1.0" encoding="utf-8"?>
<!-- Generator: Adobe Illustrator 27.7.0, SVG Export Plug-In . SVG Version: 6.00 Build 0)  -->
<svg version="1.1" id="Layer_1" xmlns="http://www.w3.org/2000/svg" xmlns:xlink="http://www.w3.org/1999/xlink" x="0px" y="0px"
	 viewBox="0 0 500 500" enable-background="new 0 0 500 500" xml:space="preserve">
<g>
	<path fill="#0E0F4B" d="M261.4,498.8l66.3,0.4l-4.3-33.4l-33-1.8l-0.1,7.5l-9.4,0.9c-11.5,1.2-20.2,11.2-19.7,22.7L261.4,498.8z"/>
	<path fill="#BFEFEE" d="M253.2,97.6c-56.3,0-174.6,218-151.9,240.7c31.2,31.2,270.2,27.9,298.1,0
		C431.6,306.1,308.6,97.6,253.2,97.6z"/>
	<path fill="#FFC3B0" d="M129.8,150c30,29.4,49.4,49.5,73.5,60c0,0-9.9,33.7-37.9,14.2s-48.2-56.6-48.2-56.6L129.8,150z"/>
	<path fill="#FFFFFF" d="M120.6,260.3c-4.4,9.3-8.2,18.2-11.5,26.5c97.3,38.4,194.2,39.6,290.7,6.6c-1.9-6.4-4.2-13.3-7.1-20.5
		C300.2,306,209.3,303.4,120.6,260.3z"/>
	<path fill="#FFFFFF" d="M140.2,222.4c-3.4,6.1-6.7,12.2-9.8,18.2c82.5,35,166,35.7,250.1,4.5c-2-4.2-4.2-8.4-6.4-12.6
		C292.6,271.4,214.5,270.2,140.2,222.4z"/>
	<path fill="#0E0F4B" d="M166.1,497.8l66.2,0.4l-2.5-33.6L201,463l-1.3,7.5l-9.5,0.9c-11.7,1.2-22.1,11.2-23.5,22.7L166.1,497.8z"/>
	<path fill="#FFFFFF" d="M189.4,177c10.5-10.7,19.3-45.7,34.7-44.6c24,1.8,15.4,48.1-6,75.5C198.4,220.7,174.2,202.8,189.4,177z"/>
	<path fill="#00B4A3" d="M143.8,159.5L123,175.8c-2,1.6-4.7,1.4-6.2-0.5c-6.4-7.9-22-28.2-21.5-38c0.3-6.1,5.8-16.2,11.9-17.2
		c6.4-1,18.2,16.7,18.2,16.7l0,0c1.7-2.3,6.6-4.4,8.3-2.2l11.1,18.4C146.2,155.1,145.8,157.9,143.8,159.5z"/>
	<path fill="#0E0F4B" d="M327.3,472.3H281c0,0-15.4-57.3-22.7-95.6c-7.2-37.7-7.6-77.6-9.5-128.7l56.8-6.6
		c9.5,57.7,5.8,86,9.5,116.4C320.5,402.7,327.3,472.3,327.3,472.3z"/>
	<path fill="#00B4A3" d="M281,472.3h46.4c0,0-3.4-34.9-7.4-71.3l-55.3,5.9C272.2,439.5,281,472.3,281,472.3z"/>
	<path fill="#0E0F4B" d="M230.8,474.2l-46.4-1.9c0,0-4-84.9-1.9-122.1c1.9-34.1,22.7-102.2,22.7-102.2l71.9,6.6
		c0,0-33.5,64.6-39.8,98.5C232.7,378.6,230.8,474.2,230.8,474.2z"/>
	<path fill="#00B4A3" d="M240.2,121.1c0,0-24.4,4.8-31.2,19.9c-7.5,16.5-12.2,54.7-15.2,113.1c-3,13.5,115.9,14.3,117.4-5.2
		c-12-54-7.3-99.1-20.8-113.6c-9.4-10.1-25.2-11.6-25.2-11.6S247.6,128.4,240.2,121.1z"/>
	<path fill="#FFC3B0" d="M252.8,183.4l87.2,17.9c0,0,5.5,30-28.3,25c-33.7-5-62.3-21.5-62.3-21.5L252.8,183.4z"/>
	<path fill="#FFFFFF" d="M301.7,195.8c-1.9-14.9-31.8-47.9-21.3-59.3c16.3-17.7,55.1,22.1,63.4,55.9
		C341.5,215.8,312.5,223.8,301.7,195.8z"/>
	<path fill="#FFC3B0" d="M239.8,110.5l0.4,10c0,0-11.6,4.6-3.3,9.7c9.6,5.9,29.7,3.9,32.7-5.8l-4.4-1.8l0.9-29.6L239.8,110.5z"/>
	<path fill="#0E0F4B" d="M238.3,112.2c0,0,1.8,7.4,10.8,7.1c9-0.3,18.6-23.2,18.6-23.2L238.3,112.2z"/>
	<path fill="#0E0F4B" d="M194.1,59.3c-1.2,25.2,6.9,38,19.4,45.1l-4.2-51.5L194.1,59.3z"/>
	<path fill="#FFC3B0" d="M271.1,95.4c3.2-16.5,0.3-27.7-3.9-46.9c-46.5,0.3-62.8-14.4-65.5,4.4c0,0-5.1,38.6,9.2,53.6
		c7.6,7.9,20.8,13.1,29.4,11.1C260,113,271.1,95.4,271.1,95.4z"/>
	<path fill="#0E0F4B" d="M198.1,43.7l-15.2,14.8c-0.9,1-0.3,2.5,1,2.7c27.4,4.6,55.4,6.8,72.5,3.6c1-0.2,1.9,0.5,2,1.5
		c0.7,6.6,3.4,29.1,10.2,32.8c4.1,2.2,15.2,0.9,18.3-2.7c10.7-12.4,6.9-55.7-3.9-68.1C271.3,15.1,237,4,216.6,15.7
		c-14.8,8.5-17.7,24.2-18.2,27.1C198.4,43.1,198.3,43.4,198.1,43.7z"/>
	<circle fill="#00B4A3" cx="276.9" cy="81.4" r="8"/>
	<path fill="#0E0F4B" d="M334.9,2.4c-8.1-4-18-0.6-21.8,7.7L266,111.5c-3.3,7.1-5.1,14.8-5.5,22.6l-0.1,1.8
		c-0.4,7.8-2.3,15.5-5.5,22.6l-26.6,58.1c-1.5,3.3-0.1,7.3,3.3,8.8h0c3.3,1.5,7.3,0.1,8.8-3.3l26.2-57.1c3.6-7.8,8.7-14.7,15-20.3
		l0,0c6.4-5.7,11.5-12.6,15-20.3l45.9-100.7C346.1,15.7,342.8,6.3,334.9,2.4L334.9,2.4z"/>
	<path fill="#0E0F4B" d="M272.4,186.2l-6.5,25.6c-0.6,2.4-2.9,4-5.2,3.4c-9.9-2.4-34.6-8.9-40.2-17c-3.4-5-5.3-16.4-1-20.8
		c4.5-4.7,24.6,2.2,24.6,2.2l0,0c0-2.8,2.5-7.5,5.3-6.8l20,7.9C271.7,181.2,273,183.7,272.4,186.2z"/>
	<circle fill="#0E0F4B" cx="120.6" cy="119.9" r="23.2"/>
	<path fill="#FFFFFF" d="M131.1,140.6c-3.9-13.6-2.1-26,5.4-37.5c-0.9-0.9-2-1.7-3.1-2.5c-8.4,12.6-10.4,26.5-6,41.4
		C128.7,141.7,129.9,141.2,131.1,140.6z"/>
	<path fill="#FFFFFF" d="M103.3,135.4c0.9,1,1.8,1.9,2.9,2.7c8.9-13.4,12.4-27.1,10.5-41.1c-1.4,0.2-2.7,0.6-4,1.1
		C114.5,110.8,111.4,123.2,103.3,135.4z"/>
	<path fill="#00B4A3" d="M182.2,403.4c0.6,34.6,2.2,68.9,2.2,68.9l46.4,1.9c0,0,0.7-35.7,2.3-69.3L182.2,403.4z"/>
</g>
</svg>
