<?xml version="1.0" encoding="UTF-8"?>
<svg id="Icon" xmlns="http://www.w3.org/2000/svg" version="1.1" viewBox="0 0 34.37 19.62">
  <!-- Generator: Adobe Illustrator 29.5.1, SVG Export Plug-In . SVG Version: 2.1.0 Build 141)  -->
  <defs>
    <style>
      .st0 {
        fill: #fff;
      }
    </style>
  </defs>
  <path class="st0" d="M33.82,8.73c-2.23-2.48-4.78-4.57-7.71-6.2C23.34.98,20.39,0,16.44,0c-1.21-.01-3.1.36-4.91,1.03C7.18,2.63,3.61,5.38.51,8.77c-.69.76-.67,1.31.01,2.08,2.57,2.83,5.5,5.18,8.96,6.87,4.61,2.24,9.3,2.55,14.08.59,4.03-1.65,7.36-4.26,10.28-7.45.71-.8.71-1.34-.02-2.14ZM17.32,14.72c-2.73.07-5.07-2.17-5.05-4.93.02-2.65,2.18-4.84,4.78-4.9,2.73-.06,5.09,2.19,5.04,4.94.01,2.65-2.17,4.83-4.77,4.89Z"/>
  <path class="st0" d="M17.2,7.37c-1.34,0-2.44,1.09-2.45,2.41-.01,1.36,1.08,2.46,2.44,2.46,1.34.01,2.44-1.09,2.44-2.43s-1.09-2.44-2.43-2.45Z"/>
</svg>