<svg width="170" height="28" viewBox="0 0 170 28" fill="none" xmlns="http://www.w3.org/2000/svg">
<g clip-path="url(#clip0_1_385)">
<path fill-rule="evenodd" clip-rule="evenodd" d="M32 11.5995L15.9878 27.5L0 11.6246L0.210168 10.9743C1.2657 7.69838 3.35612 5.00295 6.27221 3.14699C6.98716 2.69231 7.73963 2.2954 8.51745 1.95812C11.7122 0.574537 15.3442 0.189741 18.7763 0.743176C24.6591 1.69166 29.6478 5.29923 31.7485 10.9268L32 11.5995Z" fill="white"/>
<path fill-rule="evenodd" clip-rule="evenodd" d="M31.468 11.4839L15.9878 26.8562L0.521667 11.4988L0.646455 11.1131C1.67103 7.9369 3.69296 5.32905 6.51991 3.53085C10.0853 1.26121 14.5485 0.522363 18.7022 1.19226C24.4077 2.11279 29.2706 5.60018 31.3188 11.0851L31.468 11.4849V11.4839Z" fill="#248247"/>
<path fill-rule="evenodd" clip-rule="evenodd" d="M30.6921 11.3153L15.9878 25.917L1.28353 11.3153C5.45969 -1.63268 25.8732 -1.59448 30.6921 11.3153Z" fill="#00A551"/>
<path fill-rule="evenodd" clip-rule="evenodd" d="M6.49364 16.49L3.78115 13.7964V6.78903C4.57773 5.84521 5.49064 5.02997 6.49364 4.34423V16.49ZM11.9186 21.8771L9.20612 19.1836V2.88704C10.0796 2.52647 10.9879 2.24229 11.9186 2.03545V21.8771ZM17.3436 24.5707L16.0366 25.8686H15.939L14.632 24.5707V1.65345C15.5337 1.59848 16.4419 1.61153 17.3445 1.69259V24.5707H17.3436ZM22.7685 19.1836L20.0561 21.8771V2.15005C20.9849 2.38205 21.8941 2.68951 22.7685 3.07338V19.1845V19.1836ZM28.1935 13.7964L25.481 16.49V4.59393C26.4756 5.29178 27.3894 6.10982 28.1935 7.05271V13.7964Z" fill="#248247"/>
<path fill-rule="evenodd" clip-rule="evenodd" d="M25.9342 16.039L15.9869 25.917L5.98229 15.9822C9.59456 8.1102 22.0986 8.19498 25.9333 16.039" fill="#FDCF9D"/>
<path fill-rule="evenodd" clip-rule="evenodd" d="M16.3706 14.4533L21.1454 19.1947C21.0469 19.2926 20.9868 19.4267 20.9868 19.5758C20.9868 19.7249 21.0478 19.8591 21.1454 19.9569L16.4391 24.6303C16.3246 24.5129 16.1642 24.4393 15.9869 24.4393C15.8095 24.4393 15.6491 24.512 15.5346 24.6303L10.8199 19.9485C10.9231 19.8507 10.9879 19.7118 10.9879 19.559C10.9879 19.4146 10.9306 19.2842 10.8377 19.1873L15.6041 14.4542C15.7026 14.552 15.8377 14.6117 15.9878 14.6117C16.1379 14.6117 16.273 14.5511 16.3715 14.4542" fill="#00A551"/>
<path fill-rule="evenodd" clip-rule="evenodd" d="M15.9878 18.9329C16.3359 18.9329 16.6174 19.2124 16.6174 19.5581C16.6174 19.9038 16.3349 20.1833 15.9878 20.1833C15.6406 20.1833 15.3582 19.9028 15.3582 19.5581C15.3582 19.2134 15.6397 18.9329 15.9878 18.9329Z" fill="#FDCF9D"/>
<path d="M15.9996 13.5972L15.6161 13.9779L15.9995 14.3588L16.383 13.9781L15.9996 13.5972Z" fill="white"/>
<path d="M21.6837 19.1744L21.3002 19.5552L21.6838 19.936L22.0672 19.5551L21.6837 19.1744Z" fill="white"/>
<path d="M10.3704 19.177L9.987 19.5578L10.3705 19.9386L10.7539 19.5577L10.3704 19.177Z" fill="white"/>
<path d="M16.4307 19.3829H15.545V19.7323H16.4307V19.3829Z" fill="white"/>
<path d="M15.8386 24.7226H15.635V25.113H15.8386V24.7226ZM15.6144 24.6853H15.8808V25.1502H15.5937V24.6853H15.6144Z" fill="white"/>
<path d="M16.3303 24.7226H16.1267V25.113H16.3303V24.7226ZM16.1051 24.6853H16.3715V25.1502H16.0844V24.6853H16.1051Z" fill="white"/>
</g>
<path d="M161.979 8.73633L168.338 14.709L166.49 16.6426L160.883 11.2715C159.536 13.5488 157.574 15.3105 154.996 16.5566L153.406 14.5586C155.368 13.599 156.887 12.3314 157.961 10.7559C159.035 9.18034 159.572 7.45443 159.572 5.57812V4.80469H162.387V5.87891C162.387 6.86719 162.251 7.81966 161.979 8.73633ZM152.117 19.1992H169.498V21.6914H152.117V19.1992Z" fill="white"/>
<path d="M145.135 14.752H135.811V4.63281H145.135V14.752ZM142.428 12.3027V7.06055H138.518V12.3027H142.428ZM147.734 15.8691V3.10742H150.506V15.8691H147.734ZM150.441 24.8926H147.67V18.9844H139.012V16.5352H150.441V24.8926Z" fill="white"/>
<path d="M131.6 9.89648C131.6 12.403 131.227 14.974 130.482 17.6094H127.711C128.169 15.9336 128.492 14.3652 128.678 12.9043H119.934V10.5195H128.85V7.8125H119.912V5.32031H131.6V9.89648ZM134.758 21.6914H117.377V19.2207H123.479V14.4082H126.25V19.2207H134.758V21.6914Z" fill="white"/>
<path d="M107.279 11.7441H103.111V12.7324H110.416V15.1387H93.0352V12.7324H100.34V11.7441H96.1934V3.60156H98.9004V5.53516H104.572V3.60156H107.279V11.7441ZM104.572 9.35938V7.87695H98.9004V9.35938H104.572ZM107.666 24.6777H96.1934V19.0918H104.529V18.2969H96.043V15.9121H107.236V21.3906H98.9004V22.293H107.666V24.6777Z" fill="#00A551"/>
<path d="M85.1504 8.73633L91.5098 14.709L89.6621 16.6426L84.0547 11.2715C82.7083 13.5488 80.7461 15.3105 78.168 16.5566L76.5781 14.5586C78.5404 13.599 80.0586 12.3314 81.1328 10.7559C82.207 9.18034 82.7441 7.45443 82.7441 5.57812V4.80469H85.5586V5.87891C85.5586 6.86719 85.4225 7.81966 85.1504 8.73633ZM75.2891 19.1992H92.6699V21.6914H75.2891V19.1992Z" fill="#00A551"/>
<path d="M69.2305 11.7441C69.2305 12.5319 69.0944 13.2767 68.8223 13.9785C68.5501 14.6803 68.1706 15.2962 67.6836 15.8262C67.1966 16.3418 66.6165 16.7428 65.9434 17.0293C65.2702 17.3158 64.5612 17.459 63.8164 17.459C63.0716 17.459 62.3626 17.3158 61.6895 17.0293C61.0306 16.7428 60.4505 16.3418 59.9492 15.8262C59.4622 15.2962 59.0827 14.6803 58.8105 13.9785C58.5384 13.2767 58.4023 12.5319 58.4023 11.7441C58.4023 10.9707 58.5384 10.2331 58.8105 9.53125C59.0827 8.82943 59.4622 8.21354 59.9492 7.68359C60.4505 7.16797 61.0306 6.76693 61.6895 6.48047C62.3626 6.19401 63.0716 6.05078 63.8164 6.05078C64.5612 6.05078 65.2702 6.19401 65.9434 6.48047C66.6165 6.76693 67.1966 7.16797 67.6836 7.68359C68.1706 8.21354 68.5501 8.82943 68.8223 9.53125C69.0944 10.2331 69.2305 10.9707 69.2305 11.7441ZM66.4375 11.7441C66.4375 10.8418 66.1868 10.0827 65.6855 9.4668C65.1842 8.85091 64.5612 8.54297 63.8164 8.54297C63.0716 8.54297 62.4486 8.85091 61.9473 9.4668C61.446 10.0827 61.1953 10.8418 61.1953 11.7441C61.1953 12.6608 61.446 13.4271 61.9473 14.043C62.4486 14.6589 63.0716 14.9668 63.8164 14.9668C64.5612 14.9668 65.1842 14.6589 65.6855 14.043C66.1868 13.4271 66.4375 12.6608 66.4375 11.7441ZM73.6992 24.334H70.9277V3.10742H73.6992V24.334Z" fill="#00A551"/>
<path d="M48.9277 18.082H41V5.3418H43.6641V9.61719H46.2637V5.3418H48.9277V10.5195H50.4102V3.55859H52.9668V22.9805H50.4102V12.9902H48.9277V18.082ZM46.2637 15.6328V12.0664H43.6641V15.6328H46.2637ZM56.6836 24.334H54.0625V3.10742H56.6836V24.334Z" fill="#00A551"/>
<defs>
<clipPath id="clip0_1_385">
<rect width="32" height="27" fill="white" transform="translate(0 0.5)"/>
</clipPath>
</defs>
</svg>
